<mxfile host="app.diagrams.net" agent="Mozilla/5.0 (Windows NT 10.0; Win64; x64) AppleWebKit/537.36 (KHTML, like Gecko) Chrome/134.0.0.0 Safari/537.36" version="26.2.7" pages="7">
  <diagram name="root_page" id="_MVxPaWDY9nUTC5SlAOA">
    <mxGraphModel dx="1667" dy="743" grid="1" gridSize="10" guides="1" tooltips="1" connect="1" arrows="1" fold="1" page="1" pageScale="1" pageWidth="827" pageHeight="1169" math="0" shadow="0">
      <root>
        <mxCell id="0" />
        <mxCell id="1" parent="0" />
        <mxCell id="iLnh9LYtmCxks-QTeESe-197" value="" style="group" parent="1" vertex="1" connectable="0">
          <mxGeometry x="40" y="400" width="80" height="80" as="geometry" />
        </mxCell>
        <mxCell id="3N5nppbNkiOyzgR5uvMz-2" value="" style="rounded=0;whiteSpace=wrap;html=1;" parent="iLnh9LYtmCxks-QTeESe-197" vertex="1">
          <mxGeometry width="80" height="80" as="geometry" />
        </mxCell>
        <mxCell id="iLnh9LYtmCxks-QTeESe-1" value="&lt;font style=&quot;font-size: 24px;&quot;&gt;9&lt;/font&gt;" style="text;html=1;align=center;verticalAlign=middle;whiteSpace=wrap;rounded=0;" parent="iLnh9LYtmCxks-QTeESe-197" vertex="1">
          <mxGeometry x="17.5" y="25" width="45" height="30" as="geometry" />
        </mxCell>
        <mxCell id="iLnh9LYtmCxks-QTeESe-3" value="&lt;font style=&quot;font-size: 14px;&quot;&gt;[0]&lt;/font&gt;" style="text;html=1;align=center;verticalAlign=middle;whiteSpace=wrap;rounded=0;" parent="iLnh9LYtmCxks-QTeESe-197" vertex="1">
          <mxGeometry x="30" y="60" width="50" height="20" as="geometry" />
        </mxCell>
        <mxCell id="iLnh9LYtmCxks-QTeESe-198" value="" style="group" parent="1" vertex="1" connectable="0">
          <mxGeometry x="137" y="400" width="80" height="80" as="geometry" />
        </mxCell>
        <mxCell id="iLnh9LYtmCxks-QTeESe-199" value="" style="rounded=0;whiteSpace=wrap;html=1;" parent="iLnh9LYtmCxks-QTeESe-198" vertex="1">
          <mxGeometry width="80" height="80" as="geometry" />
        </mxCell>
        <mxCell id="iLnh9LYtmCxks-QTeESe-200" value="&lt;font style=&quot;font-size: 24px;&quot;&gt;27&lt;/font&gt;" style="text;html=1;align=center;verticalAlign=middle;whiteSpace=wrap;rounded=0;" parent="iLnh9LYtmCxks-QTeESe-198" vertex="1">
          <mxGeometry x="17.5" y="25" width="45" height="30" as="geometry" />
        </mxCell>
        <mxCell id="iLnh9LYtmCxks-QTeESe-201" value="&lt;font style=&quot;font-size: 14px;&quot;&gt;[1]&lt;/font&gt;" style="text;html=1;align=center;verticalAlign=middle;whiteSpace=wrap;rounded=0;" parent="iLnh9LYtmCxks-QTeESe-198" vertex="1">
          <mxGeometry x="30" y="60" width="50" height="20" as="geometry" />
        </mxCell>
        <mxCell id="iLnh9LYtmCxks-QTeESe-202" value="" style="group" parent="1" vertex="1" connectable="0">
          <mxGeometry x="234" y="400" width="80" height="80" as="geometry" />
        </mxCell>
        <mxCell id="iLnh9LYtmCxks-QTeESe-203" value="" style="rounded=0;whiteSpace=wrap;html=1;" parent="iLnh9LYtmCxks-QTeESe-202" vertex="1">
          <mxGeometry width="80" height="80" as="geometry" />
        </mxCell>
        <mxCell id="iLnh9LYtmCxks-QTeESe-204" value="&lt;font style=&quot;font-size: 24px;&quot;&gt;12&lt;/font&gt;" style="text;html=1;align=center;verticalAlign=middle;whiteSpace=wrap;rounded=0;" parent="iLnh9LYtmCxks-QTeESe-202" vertex="1">
          <mxGeometry x="17.5" y="25" width="45" height="30" as="geometry" />
        </mxCell>
        <mxCell id="iLnh9LYtmCxks-QTeESe-205" value="&lt;font style=&quot;font-size: 14px;&quot;&gt;[2]&lt;/font&gt;" style="text;html=1;align=center;verticalAlign=middle;whiteSpace=wrap;rounded=0;" parent="iLnh9LYtmCxks-QTeESe-202" vertex="1">
          <mxGeometry x="30" y="60" width="50" height="20" as="geometry" />
        </mxCell>
        <mxCell id="iLnh9LYtmCxks-QTeESe-206" value="" style="group" parent="1" vertex="1" connectable="0">
          <mxGeometry x="331" y="400" width="80" height="80" as="geometry" />
        </mxCell>
        <mxCell id="iLnh9LYtmCxks-QTeESe-207" value="" style="rounded=0;whiteSpace=wrap;html=1;" parent="iLnh9LYtmCxks-QTeESe-206" vertex="1">
          <mxGeometry width="80" height="80" as="geometry" />
        </mxCell>
        <mxCell id="iLnh9LYtmCxks-QTeESe-208" value="&lt;font style=&quot;font-size: 24px;&quot;&gt;5&lt;/font&gt;" style="text;html=1;align=center;verticalAlign=middle;whiteSpace=wrap;rounded=0;" parent="iLnh9LYtmCxks-QTeESe-206" vertex="1">
          <mxGeometry x="17.5" y="25" width="45" height="30" as="geometry" />
        </mxCell>
        <mxCell id="iLnh9LYtmCxks-QTeESe-209" value="&lt;font style=&quot;font-size: 14px;&quot;&gt;[3]&lt;/font&gt;" style="text;html=1;align=center;verticalAlign=middle;whiteSpace=wrap;rounded=0;" parent="iLnh9LYtmCxks-QTeESe-206" vertex="1">
          <mxGeometry x="30" y="60" width="50" height="20" as="geometry" />
        </mxCell>
        <mxCell id="iLnh9LYtmCxks-QTeESe-210" value="" style="group" parent="1" vertex="1" connectable="0">
          <mxGeometry x="429" y="400" width="80" height="80" as="geometry" />
        </mxCell>
        <mxCell id="iLnh9LYtmCxks-QTeESe-211" value="" style="rounded=0;whiteSpace=wrap;html=1;" parent="iLnh9LYtmCxks-QTeESe-210" vertex="1">
          <mxGeometry width="80" height="80" as="geometry" />
        </mxCell>
        <mxCell id="iLnh9LYtmCxks-QTeESe-212" value="&lt;span style=&quot;font-size: 24px;&quot;&gt;14&lt;/span&gt;" style="text;html=1;align=center;verticalAlign=middle;whiteSpace=wrap;rounded=0;" parent="iLnh9LYtmCxks-QTeESe-210" vertex="1">
          <mxGeometry x="17.5" y="25" width="45" height="30" as="geometry" />
        </mxCell>
        <mxCell id="iLnh9LYtmCxks-QTeESe-213" value="&lt;font style=&quot;font-size: 14px;&quot;&gt;[4]&lt;/font&gt;" style="text;html=1;align=center;verticalAlign=middle;whiteSpace=wrap;rounded=0;" parent="iLnh9LYtmCxks-QTeESe-210" vertex="1">
          <mxGeometry x="30" y="60" width="50" height="20" as="geometry" />
        </mxCell>
        <mxCell id="iLnh9LYtmCxks-QTeESe-214" value="" style="group" parent="1" vertex="1" connectable="0">
          <mxGeometry x="526" y="400" width="80" height="80" as="geometry" />
        </mxCell>
        <mxCell id="iLnh9LYtmCxks-QTeESe-215" value="" style="rounded=0;whiteSpace=wrap;html=1;" parent="iLnh9LYtmCxks-QTeESe-214" vertex="1">
          <mxGeometry width="80" height="80" as="geometry" />
        </mxCell>
        <mxCell id="iLnh9LYtmCxks-QTeESe-216" value="&lt;font style=&quot;font-size: 24px;&quot;&gt;41&lt;/font&gt;" style="text;html=1;align=center;verticalAlign=middle;whiteSpace=wrap;rounded=0;" parent="iLnh9LYtmCxks-QTeESe-214" vertex="1">
          <mxGeometry x="17.5" y="25" width="45" height="30" as="geometry" />
        </mxCell>
        <mxCell id="iLnh9LYtmCxks-QTeESe-217" value="&lt;font style=&quot;font-size: 14px;&quot;&gt;[5]&lt;/font&gt;" style="text;html=1;align=center;verticalAlign=middle;whiteSpace=wrap;rounded=0;" parent="iLnh9LYtmCxks-QTeESe-214" vertex="1">
          <mxGeometry x="30" y="60" width="50" height="20" as="geometry" />
        </mxCell>
        <mxCell id="iLnh9LYtmCxks-QTeESe-218" value="" style="group" parent="1" vertex="1" connectable="0">
          <mxGeometry x="623" y="400" width="80" height="80" as="geometry" />
        </mxCell>
        <mxCell id="iLnh9LYtmCxks-QTeESe-219" value="" style="rounded=0;whiteSpace=wrap;html=1;" parent="iLnh9LYtmCxks-QTeESe-218" vertex="1">
          <mxGeometry width="80" height="80" as="geometry" />
        </mxCell>
        <mxCell id="iLnh9LYtmCxks-QTeESe-220" value="&lt;span style=&quot;font-size: 24px;&quot;&gt;42&lt;/span&gt;" style="text;html=1;align=center;verticalAlign=middle;whiteSpace=wrap;rounded=0;" parent="iLnh9LYtmCxks-QTeESe-218" vertex="1">
          <mxGeometry x="17.5" y="25" width="45" height="30" as="geometry" />
        </mxCell>
        <mxCell id="iLnh9LYtmCxks-QTeESe-221" value="&lt;font style=&quot;font-size: 14px;&quot;&gt;[6]&lt;/font&gt;" style="text;html=1;align=center;verticalAlign=middle;whiteSpace=wrap;rounded=0;" parent="iLnh9LYtmCxks-QTeESe-218" vertex="1">
          <mxGeometry x="30" y="60" width="50" height="20" as="geometry" />
        </mxCell>
        <mxCell id="iLnh9LYtmCxks-QTeESe-222" value="" style="group" parent="1" vertex="1" connectable="0">
          <mxGeometry x="720" y="400" width="80" height="80" as="geometry" />
        </mxCell>
        <mxCell id="iLnh9LYtmCxks-QTeESe-223" value="" style="rounded=0;whiteSpace=wrap;html=1;" parent="iLnh9LYtmCxks-QTeESe-222" vertex="1">
          <mxGeometry width="80" height="80" as="geometry" />
        </mxCell>
        <mxCell id="iLnh9LYtmCxks-QTeESe-224" value="&lt;font style=&quot;font-size: 24px;&quot;&gt;75&lt;/font&gt;" style="text;html=1;align=center;verticalAlign=middle;whiteSpace=wrap;rounded=0;" parent="iLnh9LYtmCxks-QTeESe-222" vertex="1">
          <mxGeometry x="17.5" y="25" width="45" height="30" as="geometry" />
        </mxCell>
        <mxCell id="iLnh9LYtmCxks-QTeESe-225" value="&lt;font style=&quot;font-size: 14px;&quot;&gt;[7]&lt;/font&gt;" style="text;html=1;align=center;verticalAlign=middle;whiteSpace=wrap;rounded=0;" parent="iLnh9LYtmCxks-QTeESe-222" vertex="1">
          <mxGeometry x="30" y="60" width="50" height="20" as="geometry" />
        </mxCell>
        <mxCell id="iLnh9LYtmCxks-QTeESe-226" value="" style="group" parent="1" vertex="1" connectable="0">
          <mxGeometry x="40" y="290" width="177" height="80" as="geometry" />
        </mxCell>
        <mxCell id="iLnh9LYtmCxks-QTeESe-227" value="" style="rounded=0;whiteSpace=wrap;html=1;" parent="iLnh9LYtmCxks-QTeESe-226" vertex="1">
          <mxGeometry width="177" height="80" as="geometry" />
        </mxCell>
        <mxCell id="iLnh9LYtmCxks-QTeESe-228" value="&lt;font style=&quot;font-size: 24px;&quot;&gt;36&lt;/font&gt;" style="text;html=1;align=center;verticalAlign=middle;whiteSpace=wrap;rounded=0;" parent="iLnh9LYtmCxks-QTeESe-226" vertex="1">
          <mxGeometry x="38.71875" y="25" width="99.56250000000001" height="30" as="geometry" />
        </mxCell>
        <mxCell id="iLnh9LYtmCxks-QTeESe-229" value="&lt;font style=&quot;font-size: 14px;&quot;&gt;[0, 2)&lt;/font&gt;" style="text;html=1;align=center;verticalAlign=middle;whiteSpace=wrap;rounded=0;" parent="iLnh9LYtmCxks-QTeESe-226" vertex="1">
          <mxGeometry x="110" y="60" width="67" height="20" as="geometry" />
        </mxCell>
        <mxCell id="iLnh9LYtmCxks-QTeESe-230" value="" style="group" parent="1" vertex="1" connectable="0">
          <mxGeometry x="237" y="290" width="177" height="80" as="geometry" />
        </mxCell>
        <mxCell id="iLnh9LYtmCxks-QTeESe-231" value="" style="rounded=0;whiteSpace=wrap;html=1;" parent="iLnh9LYtmCxks-QTeESe-230" vertex="1">
          <mxGeometry width="177" height="80" as="geometry" />
        </mxCell>
        <mxCell id="iLnh9LYtmCxks-QTeESe-232" value="&lt;font style=&quot;font-size: 24px;&quot;&gt;17&lt;/font&gt;" style="text;html=1;align=center;verticalAlign=middle;whiteSpace=wrap;rounded=0;" parent="iLnh9LYtmCxks-QTeESe-230" vertex="1">
          <mxGeometry x="38.71875" y="25" width="99.56250000000001" height="30" as="geometry" />
        </mxCell>
        <mxCell id="iLnh9LYtmCxks-QTeESe-233" value="&lt;font style=&quot;font-size: 14px;&quot;&gt;[2, 4)&lt;/font&gt;" style="text;html=1;align=center;verticalAlign=middle;whiteSpace=wrap;rounded=0;" parent="iLnh9LYtmCxks-QTeESe-230" vertex="1">
          <mxGeometry x="110" y="60" width="67" height="20" as="geometry" />
        </mxCell>
        <mxCell id="iLnh9LYtmCxks-QTeESe-234" value="" style="group" parent="1" vertex="1" connectable="0">
          <mxGeometry x="429" y="290" width="177" height="80" as="geometry" />
        </mxCell>
        <mxCell id="iLnh9LYtmCxks-QTeESe-235" value="" style="rounded=0;whiteSpace=wrap;html=1;" parent="iLnh9LYtmCxks-QTeESe-234" vertex="1">
          <mxGeometry width="177" height="80" as="geometry" />
        </mxCell>
        <mxCell id="iLnh9LYtmCxks-QTeESe-236" value="&lt;font style=&quot;font-size: 24px;&quot;&gt;55&lt;/font&gt;" style="text;html=1;align=center;verticalAlign=middle;whiteSpace=wrap;rounded=0;" parent="iLnh9LYtmCxks-QTeESe-234" vertex="1">
          <mxGeometry x="38.71875" y="25" width="99.56250000000001" height="30" as="geometry" />
        </mxCell>
        <mxCell id="iLnh9LYtmCxks-QTeESe-237" value="&lt;font style=&quot;font-size: 14px;&quot;&gt;[4, 6)&lt;/font&gt;" style="text;html=1;align=center;verticalAlign=middle;whiteSpace=wrap;rounded=0;" parent="iLnh9LYtmCxks-QTeESe-234" vertex="1">
          <mxGeometry x="110" y="60" width="67" height="20" as="geometry" />
        </mxCell>
        <mxCell id="iLnh9LYtmCxks-QTeESe-243" value="" style="group" parent="1" vertex="1" connectable="0">
          <mxGeometry x="623" y="290" width="177" height="80" as="geometry" />
        </mxCell>
        <mxCell id="iLnh9LYtmCxks-QTeESe-244" value="" style="rounded=0;whiteSpace=wrap;html=1;" parent="iLnh9LYtmCxks-QTeESe-243" vertex="1">
          <mxGeometry width="177" height="80" as="geometry" />
        </mxCell>
        <mxCell id="iLnh9LYtmCxks-QTeESe-245" value="&lt;font style=&quot;font-size: 24px;&quot;&gt;117&lt;/font&gt;" style="text;html=1;align=center;verticalAlign=middle;whiteSpace=wrap;rounded=0;" parent="iLnh9LYtmCxks-QTeESe-243" vertex="1">
          <mxGeometry x="38.71875" y="25" width="99.56250000000001" height="30" as="geometry" />
        </mxCell>
        <mxCell id="iLnh9LYtmCxks-QTeESe-246" value="&lt;font style=&quot;font-size: 14px;&quot;&gt;[6, 8)&lt;/font&gt;" style="text;html=1;align=center;verticalAlign=middle;whiteSpace=wrap;rounded=0;" parent="iLnh9LYtmCxks-QTeESe-243" vertex="1">
          <mxGeometry x="110" y="60" width="67" height="20" as="geometry" />
        </mxCell>
        <mxCell id="iLnh9LYtmCxks-QTeESe-247" value="" style="group" parent="1" vertex="1" connectable="0">
          <mxGeometry x="40" y="180" width="374" height="80" as="geometry" />
        </mxCell>
        <mxCell id="iLnh9LYtmCxks-QTeESe-248" value="" style="rounded=0;whiteSpace=wrap;html=1;" parent="iLnh9LYtmCxks-QTeESe-247" vertex="1">
          <mxGeometry width="374.00000000000006" height="80" as="geometry" />
        </mxCell>
        <mxCell id="iLnh9LYtmCxks-QTeESe-249" value="&lt;span style=&quot;font-size: 24px;&quot;&gt;53&lt;/span&gt;" style="text;html=1;align=center;verticalAlign=middle;whiteSpace=wrap;rounded=0;" parent="iLnh9LYtmCxks-QTeESe-247" vertex="1">
          <mxGeometry x="81.8125" y="25" width="210.37500000000006" height="30" as="geometry" />
        </mxCell>
        <mxCell id="iLnh9LYtmCxks-QTeESe-250" value="&lt;font style=&quot;font-size: 14px;&quot;&gt;[0, 4)&lt;/font&gt;" style="text;html=1;align=center;verticalAlign=middle;whiteSpace=wrap;rounded=0;" parent="iLnh9LYtmCxks-QTeESe-247" vertex="1">
          <mxGeometry x="232.42937853107344" y="60" width="141.57062146892656" height="20" as="geometry" />
        </mxCell>
        <mxCell id="iLnh9LYtmCxks-QTeESe-251" value="" style="group" parent="1" vertex="1" connectable="0">
          <mxGeometry x="430" y="180" width="374" height="80" as="geometry" />
        </mxCell>
        <mxCell id="iLnh9LYtmCxks-QTeESe-252" value="" style="rounded=0;whiteSpace=wrap;html=1;" parent="iLnh9LYtmCxks-QTeESe-251" vertex="1">
          <mxGeometry width="374.00000000000006" height="80" as="geometry" />
        </mxCell>
        <mxCell id="iLnh9LYtmCxks-QTeESe-253" value="&lt;span style=&quot;font-size: 24px;&quot;&gt;172&lt;/span&gt;" style="text;html=1;align=center;verticalAlign=middle;whiteSpace=wrap;rounded=0;" parent="iLnh9LYtmCxks-QTeESe-251" vertex="1">
          <mxGeometry x="81.8125" y="25" width="210.37500000000006" height="30" as="geometry" />
        </mxCell>
        <mxCell id="iLnh9LYtmCxks-QTeESe-254" value="&lt;font style=&quot;font-size: 14px;&quot;&gt;[4, 8)&lt;/font&gt;" style="text;html=1;align=center;verticalAlign=middle;whiteSpace=wrap;rounded=0;" parent="iLnh9LYtmCxks-QTeESe-251" vertex="1">
          <mxGeometry x="232.42937853107344" y="60" width="141.57062146892656" height="20" as="geometry" />
        </mxCell>
        <mxCell id="iLnh9LYtmCxks-QTeESe-255" value="" style="group" parent="1" vertex="1" connectable="0">
          <mxGeometry x="40" y="60" width="760" height="80" as="geometry" />
        </mxCell>
        <mxCell id="iLnh9LYtmCxks-QTeESe-256" value="" style="rounded=0;whiteSpace=wrap;html=1;" parent="iLnh9LYtmCxks-QTeESe-255" vertex="1">
          <mxGeometry width="760.0000000000001" height="80" as="geometry" />
        </mxCell>
        <mxCell id="iLnh9LYtmCxks-QTeESe-257" value="&lt;span style=&quot;font-size: 24px;&quot;&gt;225&lt;/span&gt;" style="text;html=1;align=center;verticalAlign=middle;whiteSpace=wrap;rounded=0;" parent="iLnh9LYtmCxks-QTeESe-255" vertex="1">
          <mxGeometry x="166.25" y="25" width="427.50000000000017" height="30" as="geometry" />
        </mxCell>
        <mxCell id="iLnh9LYtmCxks-QTeESe-258" value="&lt;font style=&quot;font-size: 14px;&quot;&gt;[0, 8)&lt;/font&gt;" style="text;html=1;align=center;verticalAlign=middle;whiteSpace=wrap;rounded=0;" parent="iLnh9LYtmCxks-QTeESe-255" vertex="1">
          <mxGeometry x="472.316384180791" y="60" width="287.6836158192091" height="20" as="geometry" />
        </mxCell>
        <mxCell id="iLnh9LYtmCxks-QTeESe-259" value="" style="endArrow=none;html=1;rounded=0;" parent="1" source="iLnh9LYtmCxks-QTeESe-256" target="iLnh9LYtmCxks-QTeESe-252" edge="1">
          <mxGeometry width="50" height="50" relative="1" as="geometry">
            <mxPoint x="479.99727272727273" y="140" as="sourcePoint" />
            <mxPoint x="621.27" y="70" as="targetPoint" />
          </mxGeometry>
        </mxCell>
        <mxCell id="iLnh9LYtmCxks-QTeESe-260" value="" style="endArrow=none;html=1;rounded=0;" parent="1" source="iLnh9LYtmCxks-QTeESe-256" target="iLnh9LYtmCxks-QTeESe-248" edge="1">
          <mxGeometry width="50" height="50" relative="1" as="geometry">
            <mxPoint x="496" y="150" as="sourcePoint" />
            <mxPoint x="561" y="190" as="targetPoint" />
          </mxGeometry>
        </mxCell>
        <mxCell id="iLnh9LYtmCxks-QTeESe-261" value="" style="endArrow=none;html=1;rounded=0;" parent="1" source="iLnh9LYtmCxks-QTeESe-227" target="3N5nppbNkiOyzgR5uvMz-2" edge="1">
          <mxGeometry width="50" height="50" relative="1" as="geometry">
            <mxPoint x="366" y="150" as="sourcePoint" />
            <mxPoint x="301" y="190" as="targetPoint" />
          </mxGeometry>
        </mxCell>
        <mxCell id="iLnh9LYtmCxks-QTeESe-262" value="" style="endArrow=none;html=1;rounded=0;" parent="1" source="iLnh9LYtmCxks-QTeESe-227" target="iLnh9LYtmCxks-QTeESe-199" edge="1">
          <mxGeometry width="50" height="50" relative="1" as="geometry">
            <mxPoint x="121" y="380" as="sourcePoint" />
            <mxPoint x="108" y="410" as="targetPoint" />
          </mxGeometry>
        </mxCell>
        <mxCell id="iLnh9LYtmCxks-QTeESe-263" value="" style="endArrow=none;html=1;rounded=0;" parent="1" source="iLnh9LYtmCxks-QTeESe-231" target="iLnh9LYtmCxks-QTeESe-203" edge="1">
          <mxGeometry width="50" height="50" relative="1" as="geometry">
            <mxPoint x="156" y="380" as="sourcePoint" />
            <mxPoint x="169" y="410" as="targetPoint" />
          </mxGeometry>
        </mxCell>
        <mxCell id="iLnh9LYtmCxks-QTeESe-264" value="" style="endArrow=none;html=1;rounded=0;" parent="1" source="iLnh9LYtmCxks-QTeESe-231" target="iLnh9LYtmCxks-QTeESe-207" edge="1">
          <mxGeometry width="50" height="50" relative="1" as="geometry">
            <mxPoint x="317" y="380" as="sourcePoint" />
            <mxPoint x="303" y="410" as="targetPoint" />
          </mxGeometry>
        </mxCell>
        <mxCell id="iLnh9LYtmCxks-QTeESe-265" value="" style="endArrow=none;html=1;rounded=0;" parent="1" source="iLnh9LYtmCxks-QTeESe-235" target="iLnh9LYtmCxks-QTeESe-211" edge="1">
          <mxGeometry width="50" height="50" relative="1" as="geometry">
            <mxPoint x="352" y="380" as="sourcePoint" />
            <mxPoint x="364" y="410" as="targetPoint" />
          </mxGeometry>
        </mxCell>
        <mxCell id="iLnh9LYtmCxks-QTeESe-266" value="" style="endArrow=none;html=1;rounded=0;" parent="1" source="iLnh9LYtmCxks-QTeESe-235" target="iLnh9LYtmCxks-QTeESe-215" edge="1">
          <mxGeometry width="50" height="50" relative="1" as="geometry">
            <mxPoint x="510" y="380" as="sourcePoint" />
            <mxPoint x="497" y="410" as="targetPoint" />
          </mxGeometry>
        </mxCell>
        <mxCell id="iLnh9LYtmCxks-QTeESe-267" value="" style="endArrow=none;html=1;rounded=0;" parent="1" source="iLnh9LYtmCxks-QTeESe-244" target="iLnh9LYtmCxks-QTeESe-219" edge="1">
          <mxGeometry width="50" height="50" relative="1" as="geometry">
            <mxPoint x="545" y="380" as="sourcePoint" />
            <mxPoint x="558" y="410" as="targetPoint" />
          </mxGeometry>
        </mxCell>
        <mxCell id="iLnh9LYtmCxks-QTeESe-268" value="" style="endArrow=none;html=1;rounded=0;" parent="1" source="iLnh9LYtmCxks-QTeESe-244" target="iLnh9LYtmCxks-QTeESe-223" edge="1">
          <mxGeometry width="50" height="50" relative="1" as="geometry">
            <mxPoint x="704" y="380" as="sourcePoint" />
            <mxPoint x="691" y="410" as="targetPoint" />
          </mxGeometry>
        </mxCell>
        <mxCell id="iLnh9LYtmCxks-QTeESe-269" value="" style="endArrow=none;html=1;rounded=0;" parent="1" source="iLnh9LYtmCxks-QTeESe-252" target="iLnh9LYtmCxks-QTeESe-244" edge="1">
          <mxGeometry width="50" height="50" relative="1" as="geometry">
            <mxPoint x="739" y="380" as="sourcePoint" />
            <mxPoint x="752" y="410" as="targetPoint" />
          </mxGeometry>
        </mxCell>
        <mxCell id="iLnh9LYtmCxks-QTeESe-270" value="" style="endArrow=none;html=1;rounded=0;" parent="1" source="iLnh9LYtmCxks-QTeESe-252" target="iLnh9LYtmCxks-QTeESe-235" edge="1">
          <mxGeometry width="50" height="50" relative="1" as="geometry">
            <mxPoint x="661" y="270" as="sourcePoint" />
            <mxPoint x="687" y="300" as="targetPoint" />
          </mxGeometry>
        </mxCell>
        <mxCell id="iLnh9LYtmCxks-QTeESe-271" value="" style="endArrow=none;html=1;rounded=0;" parent="1" source="iLnh9LYtmCxks-QTeESe-248" target="iLnh9LYtmCxks-QTeESe-231" edge="1">
          <mxGeometry width="50" height="50" relative="1" as="geometry">
            <mxPoint x="591" y="270" as="sourcePoint" />
            <mxPoint x="564" y="300" as="targetPoint" />
          </mxGeometry>
        </mxCell>
        <mxCell id="iLnh9LYtmCxks-QTeESe-272" value="" style="endArrow=none;html=1;rounded=0;" parent="1" source="iLnh9LYtmCxks-QTeESe-248" target="iLnh9LYtmCxks-QTeESe-227" edge="1">
          <mxGeometry width="50" height="50" relative="1" as="geometry">
            <mxPoint x="273" y="270" as="sourcePoint" />
            <mxPoint x="300" y="300" as="targetPoint" />
          </mxGeometry>
        </mxCell>
      </root>
    </mxGraphModel>
  </diagram>
  <diagram name="update1" id="YUaqUMlTGxlrNogUm4Ix">
    <mxGraphModel dx="1428" dy="743" grid="1" gridSize="10" guides="1" tooltips="1" connect="1" arrows="1" fold="1" page="1" pageScale="1" pageWidth="827" pageHeight="1169" math="0" shadow="0">
      <root>
        <mxCell id="6aDjS3TKT9FoqfZR6L2B-0" />
        <mxCell id="6aDjS3TKT9FoqfZR6L2B-1" parent="6aDjS3TKT9FoqfZR6L2B-0" />
        <mxCell id="6aDjS3TKT9FoqfZR6L2B-2" value="" style="group" vertex="1" connectable="0" parent="6aDjS3TKT9FoqfZR6L2B-1">
          <mxGeometry x="40" y="400" width="80" height="80" as="geometry" />
        </mxCell>
        <mxCell id="6aDjS3TKT9FoqfZR6L2B-3" value="" style="rounded=0;whiteSpace=wrap;html=1;" vertex="1" parent="6aDjS3TKT9FoqfZR6L2B-2">
          <mxGeometry width="80" height="80" as="geometry" />
        </mxCell>
        <mxCell id="6aDjS3TKT9FoqfZR6L2B-4" value="&lt;font style=&quot;font-size: 24px;&quot;&gt;9&lt;/font&gt;" style="text;html=1;align=center;verticalAlign=middle;whiteSpace=wrap;rounded=0;" vertex="1" parent="6aDjS3TKT9FoqfZR6L2B-2">
          <mxGeometry x="17.5" y="25" width="45" height="30" as="geometry" />
        </mxCell>
        <mxCell id="6aDjS3TKT9FoqfZR6L2B-5" value="&lt;font style=&quot;font-size: 14px;&quot;&gt;[0]&lt;/font&gt;" style="text;html=1;align=center;verticalAlign=middle;whiteSpace=wrap;rounded=0;" vertex="1" parent="6aDjS3TKT9FoqfZR6L2B-2">
          <mxGeometry x="30" y="60" width="50" height="20" as="geometry" />
        </mxCell>
        <mxCell id="6aDjS3TKT9FoqfZR6L2B-6" value="" style="group" vertex="1" connectable="0" parent="6aDjS3TKT9FoqfZR6L2B-1">
          <mxGeometry x="137" y="400" width="80" height="80" as="geometry" />
        </mxCell>
        <mxCell id="6aDjS3TKT9FoqfZR6L2B-7" value="" style="rounded=0;whiteSpace=wrap;html=1;" vertex="1" parent="6aDjS3TKT9FoqfZR6L2B-6">
          <mxGeometry width="80" height="80" as="geometry" />
        </mxCell>
        <mxCell id="6aDjS3TKT9FoqfZR6L2B-8" value="&lt;font style=&quot;font-size: 24px;&quot;&gt;27&lt;/font&gt;" style="text;html=1;align=center;verticalAlign=middle;whiteSpace=wrap;rounded=0;" vertex="1" parent="6aDjS3TKT9FoqfZR6L2B-6">
          <mxGeometry x="17.5" y="25" width="45" height="30" as="geometry" />
        </mxCell>
        <mxCell id="6aDjS3TKT9FoqfZR6L2B-9" value="&lt;font style=&quot;font-size: 14px;&quot;&gt;[1]&lt;/font&gt;" style="text;html=1;align=center;verticalAlign=middle;whiteSpace=wrap;rounded=0;" vertex="1" parent="6aDjS3TKT9FoqfZR6L2B-6">
          <mxGeometry x="30" y="60" width="50" height="20" as="geometry" />
        </mxCell>
        <mxCell id="6aDjS3TKT9FoqfZR6L2B-10" value="" style="group" vertex="1" connectable="0" parent="6aDjS3TKT9FoqfZR6L2B-1">
          <mxGeometry x="234" y="400" width="80" height="80" as="geometry" />
        </mxCell>
        <mxCell id="6aDjS3TKT9FoqfZR6L2B-11" value="" style="rounded=0;whiteSpace=wrap;html=1;" vertex="1" parent="6aDjS3TKT9FoqfZR6L2B-10">
          <mxGeometry width="80" height="80" as="geometry" />
        </mxCell>
        <mxCell id="6aDjS3TKT9FoqfZR6L2B-12" value="&lt;font style=&quot;font-size: 24px;&quot;&gt;12&lt;/font&gt;" style="text;html=1;align=center;verticalAlign=middle;whiteSpace=wrap;rounded=0;" vertex="1" parent="6aDjS3TKT9FoqfZR6L2B-10">
          <mxGeometry x="17.5" y="25" width="45" height="30" as="geometry" />
        </mxCell>
        <mxCell id="6aDjS3TKT9FoqfZR6L2B-13" value="&lt;font style=&quot;font-size: 14px;&quot;&gt;[2]&lt;/font&gt;" style="text;html=1;align=center;verticalAlign=middle;whiteSpace=wrap;rounded=0;" vertex="1" parent="6aDjS3TKT9FoqfZR6L2B-10">
          <mxGeometry x="30" y="60" width="50" height="20" as="geometry" />
        </mxCell>
        <mxCell id="6aDjS3TKT9FoqfZR6L2B-14" value="" style="group" vertex="1" connectable="0" parent="6aDjS3TKT9FoqfZR6L2B-1">
          <mxGeometry x="331" y="400" width="80" height="80" as="geometry" />
        </mxCell>
        <mxCell id="6aDjS3TKT9FoqfZR6L2B-15" value="" style="rounded=0;whiteSpace=wrap;html=1;" vertex="1" parent="6aDjS3TKT9FoqfZR6L2B-14">
          <mxGeometry width="80" height="80" as="geometry" />
        </mxCell>
        <mxCell id="6aDjS3TKT9FoqfZR6L2B-16" value="&lt;font style=&quot;font-size: 24px;&quot;&gt;5&lt;/font&gt;" style="text;html=1;align=center;verticalAlign=middle;whiteSpace=wrap;rounded=0;" vertex="1" parent="6aDjS3TKT9FoqfZR6L2B-14">
          <mxGeometry x="17.5" y="25" width="45" height="30" as="geometry" />
        </mxCell>
        <mxCell id="6aDjS3TKT9FoqfZR6L2B-17" value="&lt;font style=&quot;font-size: 14px;&quot;&gt;[3]&lt;/font&gt;" style="text;html=1;align=center;verticalAlign=middle;whiteSpace=wrap;rounded=0;" vertex="1" parent="6aDjS3TKT9FoqfZR6L2B-14">
          <mxGeometry x="30" y="60" width="50" height="20" as="geometry" />
        </mxCell>
        <mxCell id="6aDjS3TKT9FoqfZR6L2B-18" value="" style="group" vertex="1" connectable="0" parent="6aDjS3TKT9FoqfZR6L2B-1">
          <mxGeometry x="429" y="400" width="80" height="80" as="geometry" />
        </mxCell>
        <mxCell id="6aDjS3TKT9FoqfZR6L2B-19" value="" style="rounded=0;whiteSpace=wrap;html=1;" vertex="1" parent="6aDjS3TKT9FoqfZR6L2B-18">
          <mxGeometry width="80" height="80" as="geometry" />
        </mxCell>
        <mxCell id="6aDjS3TKT9FoqfZR6L2B-20" value="&lt;span style=&quot;font-size: 24px;&quot;&gt;14&lt;/span&gt;" style="text;html=1;align=center;verticalAlign=middle;whiteSpace=wrap;rounded=0;" vertex="1" parent="6aDjS3TKT9FoqfZR6L2B-18">
          <mxGeometry x="17.5" y="25" width="45" height="30" as="geometry" />
        </mxCell>
        <mxCell id="6aDjS3TKT9FoqfZR6L2B-21" value="&lt;font style=&quot;font-size: 14px;&quot;&gt;[4]&lt;/font&gt;" style="text;html=1;align=center;verticalAlign=middle;whiteSpace=wrap;rounded=0;" vertex="1" parent="6aDjS3TKT9FoqfZR6L2B-18">
          <mxGeometry x="30" y="60" width="50" height="20" as="geometry" />
        </mxCell>
        <mxCell id="6aDjS3TKT9FoqfZR6L2B-22" value="" style="group" vertex="1" connectable="0" parent="6aDjS3TKT9FoqfZR6L2B-1">
          <mxGeometry x="526" y="400" width="80" height="80" as="geometry" />
        </mxCell>
        <mxCell id="6aDjS3TKT9FoqfZR6L2B-23" value="" style="rounded=0;whiteSpace=wrap;html=1;" vertex="1" parent="6aDjS3TKT9FoqfZR6L2B-22">
          <mxGeometry width="80" height="80" as="geometry" />
        </mxCell>
        <mxCell id="6aDjS3TKT9FoqfZR6L2B-24" value="&lt;font style=&quot;font-size: 24px;&quot;&gt;41&lt;/font&gt;" style="text;html=1;align=center;verticalAlign=middle;whiteSpace=wrap;rounded=0;" vertex="1" parent="6aDjS3TKT9FoqfZR6L2B-22">
          <mxGeometry x="17.5" y="25" width="45" height="30" as="geometry" />
        </mxCell>
        <mxCell id="6aDjS3TKT9FoqfZR6L2B-25" value="&lt;font style=&quot;font-size: 14px;&quot;&gt;[5]&lt;/font&gt;" style="text;html=1;align=center;verticalAlign=middle;whiteSpace=wrap;rounded=0;" vertex="1" parent="6aDjS3TKT9FoqfZR6L2B-22">
          <mxGeometry x="30" y="60" width="50" height="20" as="geometry" />
        </mxCell>
        <mxCell id="6aDjS3TKT9FoqfZR6L2B-26" value="" style="group" vertex="1" connectable="0" parent="6aDjS3TKT9FoqfZR6L2B-1">
          <mxGeometry x="623" y="400" width="80" height="80" as="geometry" />
        </mxCell>
        <mxCell id="6aDjS3TKT9FoqfZR6L2B-27" value="" style="rounded=0;whiteSpace=wrap;html=1;" vertex="1" parent="6aDjS3TKT9FoqfZR6L2B-26">
          <mxGeometry width="80" height="80" as="geometry" />
        </mxCell>
        <mxCell id="6aDjS3TKT9FoqfZR6L2B-28" value="&lt;span style=&quot;font-size: 24px;&quot;&gt;42&lt;/span&gt;" style="text;html=1;align=center;verticalAlign=middle;whiteSpace=wrap;rounded=0;" vertex="1" parent="6aDjS3TKT9FoqfZR6L2B-26">
          <mxGeometry x="17.5" y="25" width="45" height="30" as="geometry" />
        </mxCell>
        <mxCell id="6aDjS3TKT9FoqfZR6L2B-29" value="&lt;font style=&quot;font-size: 14px;&quot;&gt;[6]&lt;/font&gt;" style="text;html=1;align=center;verticalAlign=middle;whiteSpace=wrap;rounded=0;" vertex="1" parent="6aDjS3TKT9FoqfZR6L2B-26">
          <mxGeometry x="30" y="60" width="50" height="20" as="geometry" />
        </mxCell>
        <mxCell id="6aDjS3TKT9FoqfZR6L2B-30" value="" style="group" vertex="1" connectable="0" parent="6aDjS3TKT9FoqfZR6L2B-1">
          <mxGeometry x="720" y="400" width="80" height="80" as="geometry" />
        </mxCell>
        <mxCell id="6aDjS3TKT9FoqfZR6L2B-31" value="" style="rounded=0;whiteSpace=wrap;html=1;" vertex="1" parent="6aDjS3TKT9FoqfZR6L2B-30">
          <mxGeometry width="80" height="80" as="geometry" />
        </mxCell>
        <mxCell id="6aDjS3TKT9FoqfZR6L2B-32" value="&lt;font style=&quot;font-size: 24px;&quot;&gt;75&lt;/font&gt;" style="text;html=1;align=center;verticalAlign=middle;whiteSpace=wrap;rounded=0;" vertex="1" parent="6aDjS3TKT9FoqfZR6L2B-30">
          <mxGeometry x="17.5" y="25" width="45" height="30" as="geometry" />
        </mxCell>
        <mxCell id="6aDjS3TKT9FoqfZR6L2B-33" value="&lt;font style=&quot;font-size: 14px;&quot;&gt;[7]&lt;/font&gt;" style="text;html=1;align=center;verticalAlign=middle;whiteSpace=wrap;rounded=0;" vertex="1" parent="6aDjS3TKT9FoqfZR6L2B-30">
          <mxGeometry x="30" y="60" width="50" height="20" as="geometry" />
        </mxCell>
        <mxCell id="6aDjS3TKT9FoqfZR6L2B-34" value="" style="group" vertex="1" connectable="0" parent="6aDjS3TKT9FoqfZR6L2B-1">
          <mxGeometry x="40" y="290" width="177" height="80" as="geometry" />
        </mxCell>
        <mxCell id="6aDjS3TKT9FoqfZR6L2B-35" value="" style="rounded=0;whiteSpace=wrap;html=1;" vertex="1" parent="6aDjS3TKT9FoqfZR6L2B-34">
          <mxGeometry width="177" height="80" as="geometry" />
        </mxCell>
        <mxCell id="6aDjS3TKT9FoqfZR6L2B-36" value="&lt;font style=&quot;font-size: 24px;&quot;&gt;36&lt;/font&gt;" style="text;html=1;align=center;verticalAlign=middle;whiteSpace=wrap;rounded=0;" vertex="1" parent="6aDjS3TKT9FoqfZR6L2B-34">
          <mxGeometry x="38.71875" y="25" width="99.56250000000001" height="30" as="geometry" />
        </mxCell>
        <mxCell id="6aDjS3TKT9FoqfZR6L2B-37" value="&lt;font style=&quot;font-size: 14px;&quot;&gt;[0, 2)&lt;/font&gt;" style="text;html=1;align=center;verticalAlign=middle;whiteSpace=wrap;rounded=0;" vertex="1" parent="6aDjS3TKT9FoqfZR6L2B-34">
          <mxGeometry x="110" y="60" width="67" height="20" as="geometry" />
        </mxCell>
        <mxCell id="6aDjS3TKT9FoqfZR6L2B-38" value="" style="group" vertex="1" connectable="0" parent="6aDjS3TKT9FoqfZR6L2B-1">
          <mxGeometry x="237" y="290" width="177" height="80" as="geometry" />
        </mxCell>
        <mxCell id="6aDjS3TKT9FoqfZR6L2B-39" value="" style="rounded=0;whiteSpace=wrap;html=1;" vertex="1" parent="6aDjS3TKT9FoqfZR6L2B-38">
          <mxGeometry width="177" height="80" as="geometry" />
        </mxCell>
        <mxCell id="6aDjS3TKT9FoqfZR6L2B-40" value="&lt;font style=&quot;font-size: 24px;&quot;&gt;17&lt;/font&gt;" style="text;html=1;align=center;verticalAlign=middle;whiteSpace=wrap;rounded=0;" vertex="1" parent="6aDjS3TKT9FoqfZR6L2B-38">
          <mxGeometry x="38.71875" y="25" width="99.56250000000001" height="30" as="geometry" />
        </mxCell>
        <mxCell id="6aDjS3TKT9FoqfZR6L2B-41" value="&lt;font style=&quot;font-size: 14px;&quot;&gt;[2, 4)&lt;/font&gt;" style="text;html=1;align=center;verticalAlign=middle;whiteSpace=wrap;rounded=0;" vertex="1" parent="6aDjS3TKT9FoqfZR6L2B-38">
          <mxGeometry x="110" y="60" width="67" height="20" as="geometry" />
        </mxCell>
        <mxCell id="6aDjS3TKT9FoqfZR6L2B-42" value="" style="group" vertex="1" connectable="0" parent="6aDjS3TKT9FoqfZR6L2B-1">
          <mxGeometry x="429" y="290" width="177" height="80" as="geometry" />
        </mxCell>
        <mxCell id="6aDjS3TKT9FoqfZR6L2B-43" value="" style="rounded=0;whiteSpace=wrap;html=1;" vertex="1" parent="6aDjS3TKT9FoqfZR6L2B-42">
          <mxGeometry width="177" height="80" as="geometry" />
        </mxCell>
        <mxCell id="6aDjS3TKT9FoqfZR6L2B-44" value="&lt;font style=&quot;font-size: 24px;&quot;&gt;55&lt;/font&gt;" style="text;html=1;align=center;verticalAlign=middle;whiteSpace=wrap;rounded=0;" vertex="1" parent="6aDjS3TKT9FoqfZR6L2B-42">
          <mxGeometry x="38.71875" y="25" width="99.56250000000001" height="30" as="geometry" />
        </mxCell>
        <mxCell id="6aDjS3TKT9FoqfZR6L2B-45" value="&lt;font style=&quot;font-size: 14px;&quot;&gt;[4, 6)&lt;/font&gt;" style="text;html=1;align=center;verticalAlign=middle;whiteSpace=wrap;rounded=0;" vertex="1" parent="6aDjS3TKT9FoqfZR6L2B-42">
          <mxGeometry x="110" y="60" width="67" height="20" as="geometry" />
        </mxCell>
        <mxCell id="6aDjS3TKT9FoqfZR6L2B-46" value="" style="group" vertex="1" connectable="0" parent="6aDjS3TKT9FoqfZR6L2B-1">
          <mxGeometry x="623" y="290" width="177" height="80" as="geometry" />
        </mxCell>
        <mxCell id="6aDjS3TKT9FoqfZR6L2B-47" value="" style="rounded=0;whiteSpace=wrap;html=1;" vertex="1" parent="6aDjS3TKT9FoqfZR6L2B-46">
          <mxGeometry width="177" height="80" as="geometry" />
        </mxCell>
        <mxCell id="6aDjS3TKT9FoqfZR6L2B-48" value="&lt;font style=&quot;font-size: 24px;&quot;&gt;117&lt;/font&gt;" style="text;html=1;align=center;verticalAlign=middle;whiteSpace=wrap;rounded=0;" vertex="1" parent="6aDjS3TKT9FoqfZR6L2B-46">
          <mxGeometry x="38.71875" y="25" width="99.56250000000001" height="30" as="geometry" />
        </mxCell>
        <mxCell id="6aDjS3TKT9FoqfZR6L2B-49" value="&lt;font style=&quot;font-size: 14px;&quot;&gt;[6, 8)&lt;/font&gt;" style="text;html=1;align=center;verticalAlign=middle;whiteSpace=wrap;rounded=0;" vertex="1" parent="6aDjS3TKT9FoqfZR6L2B-46">
          <mxGeometry x="110" y="60" width="67" height="20" as="geometry" />
        </mxCell>
        <mxCell id="6aDjS3TKT9FoqfZR6L2B-50" value="" style="group" vertex="1" connectable="0" parent="6aDjS3TKT9FoqfZR6L2B-1">
          <mxGeometry x="40" y="180" width="374" height="80" as="geometry" />
        </mxCell>
        <mxCell id="6aDjS3TKT9FoqfZR6L2B-51" value="" style="rounded=0;whiteSpace=wrap;html=1;" vertex="1" parent="6aDjS3TKT9FoqfZR6L2B-50">
          <mxGeometry width="374.00000000000006" height="80" as="geometry" />
        </mxCell>
        <mxCell id="6aDjS3TKT9FoqfZR6L2B-52" value="&lt;span style=&quot;font-size: 24px;&quot;&gt;53&lt;/span&gt;" style="text;html=1;align=center;verticalAlign=middle;whiteSpace=wrap;rounded=0;" vertex="1" parent="6aDjS3TKT9FoqfZR6L2B-50">
          <mxGeometry x="81.8125" y="25" width="210.37500000000006" height="30" as="geometry" />
        </mxCell>
        <mxCell id="6aDjS3TKT9FoqfZR6L2B-53" value="&lt;font style=&quot;font-size: 14px;&quot;&gt;[0, 4)&lt;/font&gt;" style="text;html=1;align=center;verticalAlign=middle;whiteSpace=wrap;rounded=0;" vertex="1" parent="6aDjS3TKT9FoqfZR6L2B-50">
          <mxGeometry x="232.42937853107344" y="60" width="141.57062146892656" height="20" as="geometry" />
        </mxCell>
        <mxCell id="6aDjS3TKT9FoqfZR6L2B-54" value="" style="group" vertex="1" connectable="0" parent="6aDjS3TKT9FoqfZR6L2B-1">
          <mxGeometry x="430" y="180" width="374" height="80" as="geometry" />
        </mxCell>
        <mxCell id="6aDjS3TKT9FoqfZR6L2B-55" value="" style="rounded=0;whiteSpace=wrap;html=1;" vertex="1" parent="6aDjS3TKT9FoqfZR6L2B-54">
          <mxGeometry width="374.00000000000006" height="80" as="geometry" />
        </mxCell>
        <mxCell id="6aDjS3TKT9FoqfZR6L2B-56" value="&lt;span style=&quot;font-size: 24px;&quot;&gt;172&lt;/span&gt;" style="text;html=1;align=center;verticalAlign=middle;whiteSpace=wrap;rounded=0;" vertex="1" parent="6aDjS3TKT9FoqfZR6L2B-54">
          <mxGeometry x="81.8125" y="25" width="210.37500000000006" height="30" as="geometry" />
        </mxCell>
        <mxCell id="6aDjS3TKT9FoqfZR6L2B-57" value="&lt;font style=&quot;font-size: 14px;&quot;&gt;[4, 8)&lt;/font&gt;" style="text;html=1;align=center;verticalAlign=middle;whiteSpace=wrap;rounded=0;" vertex="1" parent="6aDjS3TKT9FoqfZR6L2B-54">
          <mxGeometry x="232.42937853107344" y="60" width="141.57062146892656" height="20" as="geometry" />
        </mxCell>
        <mxCell id="6aDjS3TKT9FoqfZR6L2B-58" value="" style="group" vertex="1" connectable="0" parent="6aDjS3TKT9FoqfZR6L2B-1">
          <mxGeometry x="40" y="60" width="760" height="80" as="geometry" />
        </mxCell>
        <mxCell id="6aDjS3TKT9FoqfZR6L2B-59" value="" style="rounded=0;whiteSpace=wrap;html=1;" vertex="1" parent="6aDjS3TKT9FoqfZR6L2B-58">
          <mxGeometry width="760.0000000000001" height="80" as="geometry" />
        </mxCell>
        <mxCell id="6aDjS3TKT9FoqfZR6L2B-60" value="&lt;span style=&quot;font-size: 24px;&quot;&gt;225&lt;/span&gt;" style="text;html=1;align=center;verticalAlign=middle;whiteSpace=wrap;rounded=0;" vertex="1" parent="6aDjS3TKT9FoqfZR6L2B-58">
          <mxGeometry x="166.25" y="25" width="427.50000000000017" height="30" as="geometry" />
        </mxCell>
        <mxCell id="6aDjS3TKT9FoqfZR6L2B-61" value="&lt;font style=&quot;font-size: 14px;&quot;&gt;[0, 8)&lt;/font&gt;" style="text;html=1;align=center;verticalAlign=middle;whiteSpace=wrap;rounded=0;" vertex="1" parent="6aDjS3TKT9FoqfZR6L2B-58">
          <mxGeometry x="472.316384180791" y="60" width="287.6836158192091" height="20" as="geometry" />
        </mxCell>
        <mxCell id="6aDjS3TKT9FoqfZR6L2B-62" value="" style="endArrow=none;html=1;rounded=0;" edge="1" parent="6aDjS3TKT9FoqfZR6L2B-1" source="6aDjS3TKT9FoqfZR6L2B-59" target="6aDjS3TKT9FoqfZR6L2B-55">
          <mxGeometry width="50" height="50" relative="1" as="geometry">
            <mxPoint x="479.99727272727273" y="140" as="sourcePoint" />
            <mxPoint x="621.27" y="70" as="targetPoint" />
          </mxGeometry>
        </mxCell>
        <mxCell id="6aDjS3TKT9FoqfZR6L2B-63" value="" style="endArrow=none;html=1;rounded=0;" edge="1" parent="6aDjS3TKT9FoqfZR6L2B-1" source="6aDjS3TKT9FoqfZR6L2B-59" target="6aDjS3TKT9FoqfZR6L2B-51">
          <mxGeometry width="50" height="50" relative="1" as="geometry">
            <mxPoint x="496" y="150" as="sourcePoint" />
            <mxPoint x="561" y="190" as="targetPoint" />
          </mxGeometry>
        </mxCell>
        <mxCell id="6aDjS3TKT9FoqfZR6L2B-64" value="" style="endArrow=none;html=1;rounded=0;" edge="1" parent="6aDjS3TKT9FoqfZR6L2B-1" source="6aDjS3TKT9FoqfZR6L2B-35" target="6aDjS3TKT9FoqfZR6L2B-3">
          <mxGeometry width="50" height="50" relative="1" as="geometry">
            <mxPoint x="366" y="150" as="sourcePoint" />
            <mxPoint x="301" y="190" as="targetPoint" />
          </mxGeometry>
        </mxCell>
        <mxCell id="6aDjS3TKT9FoqfZR6L2B-65" value="" style="endArrow=none;html=1;rounded=0;" edge="1" parent="6aDjS3TKT9FoqfZR6L2B-1" source="6aDjS3TKT9FoqfZR6L2B-35" target="6aDjS3TKT9FoqfZR6L2B-7">
          <mxGeometry width="50" height="50" relative="1" as="geometry">
            <mxPoint x="121" y="380" as="sourcePoint" />
            <mxPoint x="108" y="410" as="targetPoint" />
          </mxGeometry>
        </mxCell>
        <mxCell id="6aDjS3TKT9FoqfZR6L2B-66" value="" style="endArrow=none;html=1;rounded=0;" edge="1" parent="6aDjS3TKT9FoqfZR6L2B-1" source="6aDjS3TKT9FoqfZR6L2B-39" target="6aDjS3TKT9FoqfZR6L2B-11">
          <mxGeometry width="50" height="50" relative="1" as="geometry">
            <mxPoint x="156" y="380" as="sourcePoint" />
            <mxPoint x="169" y="410" as="targetPoint" />
          </mxGeometry>
        </mxCell>
        <mxCell id="6aDjS3TKT9FoqfZR6L2B-67" value="" style="endArrow=none;html=1;rounded=0;" edge="1" parent="6aDjS3TKT9FoqfZR6L2B-1" source="6aDjS3TKT9FoqfZR6L2B-39" target="6aDjS3TKT9FoqfZR6L2B-15">
          <mxGeometry width="50" height="50" relative="1" as="geometry">
            <mxPoint x="317" y="380" as="sourcePoint" />
            <mxPoint x="303" y="410" as="targetPoint" />
          </mxGeometry>
        </mxCell>
        <mxCell id="6aDjS3TKT9FoqfZR6L2B-68" value="" style="endArrow=none;html=1;rounded=0;" edge="1" parent="6aDjS3TKT9FoqfZR6L2B-1" source="6aDjS3TKT9FoqfZR6L2B-43" target="6aDjS3TKT9FoqfZR6L2B-19">
          <mxGeometry width="50" height="50" relative="1" as="geometry">
            <mxPoint x="352" y="380" as="sourcePoint" />
            <mxPoint x="364" y="410" as="targetPoint" />
          </mxGeometry>
        </mxCell>
        <mxCell id="6aDjS3TKT9FoqfZR6L2B-69" value="" style="endArrow=none;html=1;rounded=0;" edge="1" parent="6aDjS3TKT9FoqfZR6L2B-1" source="6aDjS3TKT9FoqfZR6L2B-43" target="6aDjS3TKT9FoqfZR6L2B-23">
          <mxGeometry width="50" height="50" relative="1" as="geometry">
            <mxPoint x="510" y="380" as="sourcePoint" />
            <mxPoint x="497" y="410" as="targetPoint" />
          </mxGeometry>
        </mxCell>
        <mxCell id="6aDjS3TKT9FoqfZR6L2B-70" value="" style="endArrow=none;html=1;rounded=0;" edge="1" parent="6aDjS3TKT9FoqfZR6L2B-1" source="6aDjS3TKT9FoqfZR6L2B-47" target="6aDjS3TKT9FoqfZR6L2B-27">
          <mxGeometry width="50" height="50" relative="1" as="geometry">
            <mxPoint x="545" y="380" as="sourcePoint" />
            <mxPoint x="558" y="410" as="targetPoint" />
          </mxGeometry>
        </mxCell>
        <mxCell id="6aDjS3TKT9FoqfZR6L2B-71" value="" style="endArrow=none;html=1;rounded=0;" edge="1" parent="6aDjS3TKT9FoqfZR6L2B-1" source="6aDjS3TKT9FoqfZR6L2B-47" target="6aDjS3TKT9FoqfZR6L2B-31">
          <mxGeometry width="50" height="50" relative="1" as="geometry">
            <mxPoint x="704" y="380" as="sourcePoint" />
            <mxPoint x="691" y="410" as="targetPoint" />
          </mxGeometry>
        </mxCell>
        <mxCell id="6aDjS3TKT9FoqfZR6L2B-72" value="" style="endArrow=none;html=1;rounded=0;" edge="1" parent="6aDjS3TKT9FoqfZR6L2B-1" source="6aDjS3TKT9FoqfZR6L2B-55" target="6aDjS3TKT9FoqfZR6L2B-47">
          <mxGeometry width="50" height="50" relative="1" as="geometry">
            <mxPoint x="739" y="380" as="sourcePoint" />
            <mxPoint x="752" y="410" as="targetPoint" />
          </mxGeometry>
        </mxCell>
        <mxCell id="6aDjS3TKT9FoqfZR6L2B-73" value="" style="endArrow=none;html=1;rounded=0;" edge="1" parent="6aDjS3TKT9FoqfZR6L2B-1" source="6aDjS3TKT9FoqfZR6L2B-55" target="6aDjS3TKT9FoqfZR6L2B-43">
          <mxGeometry width="50" height="50" relative="1" as="geometry">
            <mxPoint x="661" y="270" as="sourcePoint" />
            <mxPoint x="687" y="300" as="targetPoint" />
          </mxGeometry>
        </mxCell>
        <mxCell id="6aDjS3TKT9FoqfZR6L2B-74" value="" style="endArrow=none;html=1;rounded=0;" edge="1" parent="6aDjS3TKT9FoqfZR6L2B-1" source="6aDjS3TKT9FoqfZR6L2B-51" target="6aDjS3TKT9FoqfZR6L2B-39">
          <mxGeometry width="50" height="50" relative="1" as="geometry">
            <mxPoint x="591" y="270" as="sourcePoint" />
            <mxPoint x="564" y="300" as="targetPoint" />
          </mxGeometry>
        </mxCell>
        <mxCell id="6aDjS3TKT9FoqfZR6L2B-75" value="" style="endArrow=none;html=1;rounded=0;" edge="1" parent="6aDjS3TKT9FoqfZR6L2B-1" source="6aDjS3TKT9FoqfZR6L2B-51" target="6aDjS3TKT9FoqfZR6L2B-35">
          <mxGeometry width="50" height="50" relative="1" as="geometry">
            <mxPoint x="273" y="270" as="sourcePoint" />
            <mxPoint x="300" y="300" as="targetPoint" />
          </mxGeometry>
        </mxCell>
        <mxCell id="2X4QURaDgzvS7ZBMP8cU-0" value="" style="endArrow=none;dashed=1;html=1;dashPattern=12 12;strokeWidth=2;rounded=0;strokeColor=#FF6666;" edge="1" parent="6aDjS3TKT9FoqfZR6L2B-1">
          <mxGeometry width="50" height="50" relative="1" as="geometry">
            <mxPoint x="120" y="600" as="sourcePoint" />
            <mxPoint x="120" y="40" as="targetPoint" />
          </mxGeometry>
        </mxCell>
        <mxCell id="2X4QURaDgzvS7ZBMP8cU-1" value="" style="endArrow=none;dashed=1;html=1;dashPattern=12 12;strokeWidth=2;rounded=0;strokeColor=#FF6666;" edge="1" parent="6aDjS3TKT9FoqfZR6L2B-1">
          <mxGeometry width="50" height="50" relative="1" as="geometry">
            <mxPoint x="610" y="600" as="sourcePoint" />
            <mxPoint x="610" y="40" as="targetPoint" />
          </mxGeometry>
        </mxCell>
        <mxCell id="2X4QURaDgzvS7ZBMP8cU-2" value="&lt;font style=&quot;font-size: 20px; color: rgb(255, 102, 102);&quot;&gt;將範圍[1, 6)內的數值+10&lt;/font&gt;" style="text;html=1;align=center;verticalAlign=middle;whiteSpace=wrap;rounded=0;" vertex="1" parent="6aDjS3TKT9FoqfZR6L2B-1">
          <mxGeometry x="286" y="560" width="240" height="25" as="geometry" />
        </mxCell>
        <mxCell id="MALkOrBtnXrnPUS6yWgd-0" value="&lt;span style=&quot;color: rgb(255, 102, 102); font-size: 20px;&quot;&gt;[1&lt;/span&gt;" style="text;html=1;align=center;verticalAlign=middle;whiteSpace=wrap;rounded=0;" vertex="1" parent="6aDjS3TKT9FoqfZR6L2B-1">
          <mxGeometry x="90" y="600" width="60" height="30" as="geometry" />
        </mxCell>
        <mxCell id="MALkOrBtnXrnPUS6yWgd-1" value="&lt;span style=&quot;color: rgb(255, 102, 102); font-size: 20px;&quot;&gt;6)&lt;/span&gt;" style="text;html=1;align=center;verticalAlign=middle;whiteSpace=wrap;rounded=0;" vertex="1" parent="6aDjS3TKT9FoqfZR6L2B-1">
          <mxGeometry x="580" y="600" width="60" height="30" as="geometry" />
        </mxCell>
      </root>
    </mxGraphModel>
  </diagram>
  <diagram name="update2" id="bgcrAuAwJ6lHpi7ES7Te">
    <mxGraphModel dx="1428" dy="1912" grid="1" gridSize="10" guides="1" tooltips="1" connect="1" arrows="1" fold="1" page="1" pageScale="1" pageWidth="827" pageHeight="1169" math="0" shadow="0">
      <root>
        <mxCell id="5XwMB53WprIgXsmNHRvS-0" />
        <mxCell id="5XwMB53WprIgXsmNHRvS-1" parent="5XwMB53WprIgXsmNHRvS-0" />
        <mxCell id="5XwMB53WprIgXsmNHRvS-2" value="" style="group" vertex="1" connectable="0" parent="5XwMB53WprIgXsmNHRvS-1">
          <mxGeometry x="40" y="400" width="80" height="80" as="geometry" />
        </mxCell>
        <mxCell id="5XwMB53WprIgXsmNHRvS-3" value="" style="rounded=0;whiteSpace=wrap;html=1;" vertex="1" parent="5XwMB53WprIgXsmNHRvS-2">
          <mxGeometry width="80" height="80" as="geometry" />
        </mxCell>
        <mxCell id="5XwMB53WprIgXsmNHRvS-4" value="&lt;font style=&quot;font-size: 24px;&quot;&gt;9&lt;/font&gt;" style="text;html=1;align=center;verticalAlign=middle;whiteSpace=wrap;rounded=0;" vertex="1" parent="5XwMB53WprIgXsmNHRvS-2">
          <mxGeometry x="17.5" y="25" width="45" height="30" as="geometry" />
        </mxCell>
        <mxCell id="5XwMB53WprIgXsmNHRvS-5" value="&lt;font style=&quot;font-size: 14px;&quot;&gt;[0]&lt;/font&gt;" style="text;html=1;align=center;verticalAlign=middle;whiteSpace=wrap;rounded=0;" vertex="1" parent="5XwMB53WprIgXsmNHRvS-2">
          <mxGeometry x="30" y="60" width="50" height="20" as="geometry" />
        </mxCell>
        <mxCell id="5XwMB53WprIgXsmNHRvS-6" value="" style="group" vertex="1" connectable="0" parent="5XwMB53WprIgXsmNHRvS-1">
          <mxGeometry x="137" y="400" width="80" height="80" as="geometry" />
        </mxCell>
        <mxCell id="5XwMB53WprIgXsmNHRvS-7" value="" style="rounded=0;whiteSpace=wrap;html=1;" vertex="1" parent="5XwMB53WprIgXsmNHRvS-6">
          <mxGeometry width="80" height="80" as="geometry" />
        </mxCell>
        <mxCell id="5XwMB53WprIgXsmNHRvS-8" value="&lt;font style=&quot;font-size: 24px;&quot;&gt;27&lt;/font&gt;" style="text;html=1;align=center;verticalAlign=middle;whiteSpace=wrap;rounded=0;" vertex="1" parent="5XwMB53WprIgXsmNHRvS-6">
          <mxGeometry x="17.5" y="25" width="45" height="30" as="geometry" />
        </mxCell>
        <mxCell id="5XwMB53WprIgXsmNHRvS-9" value="&lt;font style=&quot;font-size: 14px;&quot;&gt;[1]&lt;/font&gt;" style="text;html=1;align=center;verticalAlign=middle;whiteSpace=wrap;rounded=0;" vertex="1" parent="5XwMB53WprIgXsmNHRvS-6">
          <mxGeometry x="30" y="60" width="50" height="20" as="geometry" />
        </mxCell>
        <mxCell id="5XwMB53WprIgXsmNHRvS-10" value="" style="group" vertex="1" connectable="0" parent="5XwMB53WprIgXsmNHRvS-1">
          <mxGeometry x="234" y="400" width="80" height="80" as="geometry" />
        </mxCell>
        <mxCell id="5XwMB53WprIgXsmNHRvS-11" value="" style="rounded=0;whiteSpace=wrap;html=1;" vertex="1" parent="5XwMB53WprIgXsmNHRvS-10">
          <mxGeometry width="80" height="80" as="geometry" />
        </mxCell>
        <mxCell id="5XwMB53WprIgXsmNHRvS-12" value="&lt;font style=&quot;font-size: 24px;&quot;&gt;12&lt;/font&gt;" style="text;html=1;align=center;verticalAlign=middle;whiteSpace=wrap;rounded=0;" vertex="1" parent="5XwMB53WprIgXsmNHRvS-10">
          <mxGeometry x="17.5" y="25" width="45" height="30" as="geometry" />
        </mxCell>
        <mxCell id="5XwMB53WprIgXsmNHRvS-13" value="&lt;font style=&quot;font-size: 14px;&quot;&gt;[2]&lt;/font&gt;" style="text;html=1;align=center;verticalAlign=middle;whiteSpace=wrap;rounded=0;" vertex="1" parent="5XwMB53WprIgXsmNHRvS-10">
          <mxGeometry x="30" y="60" width="50" height="20" as="geometry" />
        </mxCell>
        <mxCell id="5XwMB53WprIgXsmNHRvS-14" value="" style="group" vertex="1" connectable="0" parent="5XwMB53WprIgXsmNHRvS-1">
          <mxGeometry x="331" y="400" width="80" height="80" as="geometry" />
        </mxCell>
        <mxCell id="5XwMB53WprIgXsmNHRvS-15" value="" style="rounded=0;whiteSpace=wrap;html=1;" vertex="1" parent="5XwMB53WprIgXsmNHRvS-14">
          <mxGeometry width="80" height="80" as="geometry" />
        </mxCell>
        <mxCell id="5XwMB53WprIgXsmNHRvS-16" value="&lt;font style=&quot;font-size: 24px;&quot;&gt;5&lt;/font&gt;" style="text;html=1;align=center;verticalAlign=middle;whiteSpace=wrap;rounded=0;" vertex="1" parent="5XwMB53WprIgXsmNHRvS-14">
          <mxGeometry x="17.5" y="25" width="45" height="30" as="geometry" />
        </mxCell>
        <mxCell id="5XwMB53WprIgXsmNHRvS-17" value="&lt;font style=&quot;font-size: 14px;&quot;&gt;[3]&lt;/font&gt;" style="text;html=1;align=center;verticalAlign=middle;whiteSpace=wrap;rounded=0;" vertex="1" parent="5XwMB53WprIgXsmNHRvS-14">
          <mxGeometry x="30" y="60" width="50" height="20" as="geometry" />
        </mxCell>
        <mxCell id="5XwMB53WprIgXsmNHRvS-18" value="" style="group" vertex="1" connectable="0" parent="5XwMB53WprIgXsmNHRvS-1">
          <mxGeometry x="429" y="400" width="80" height="80" as="geometry" />
        </mxCell>
        <mxCell id="5XwMB53WprIgXsmNHRvS-19" value="" style="rounded=0;whiteSpace=wrap;html=1;" vertex="1" parent="5XwMB53WprIgXsmNHRvS-18">
          <mxGeometry width="80" height="80" as="geometry" />
        </mxCell>
        <mxCell id="5XwMB53WprIgXsmNHRvS-20" value="&lt;span style=&quot;font-size: 24px;&quot;&gt;14&lt;/span&gt;" style="text;html=1;align=center;verticalAlign=middle;whiteSpace=wrap;rounded=0;" vertex="1" parent="5XwMB53WprIgXsmNHRvS-18">
          <mxGeometry x="17.5" y="25" width="45" height="30" as="geometry" />
        </mxCell>
        <mxCell id="5XwMB53WprIgXsmNHRvS-21" value="&lt;font style=&quot;font-size: 14px;&quot;&gt;[4]&lt;/font&gt;" style="text;html=1;align=center;verticalAlign=middle;whiteSpace=wrap;rounded=0;" vertex="1" parent="5XwMB53WprIgXsmNHRvS-18">
          <mxGeometry x="30" y="60" width="50" height="20" as="geometry" />
        </mxCell>
        <mxCell id="5XwMB53WprIgXsmNHRvS-22" value="" style="group" vertex="1" connectable="0" parent="5XwMB53WprIgXsmNHRvS-1">
          <mxGeometry x="526" y="400" width="80" height="80" as="geometry" />
        </mxCell>
        <mxCell id="5XwMB53WprIgXsmNHRvS-23" value="" style="rounded=0;whiteSpace=wrap;html=1;" vertex="1" parent="5XwMB53WprIgXsmNHRvS-22">
          <mxGeometry width="80" height="80" as="geometry" />
        </mxCell>
        <mxCell id="5XwMB53WprIgXsmNHRvS-24" value="&lt;font style=&quot;font-size: 24px;&quot;&gt;41&lt;/font&gt;" style="text;html=1;align=center;verticalAlign=middle;whiteSpace=wrap;rounded=0;" vertex="1" parent="5XwMB53WprIgXsmNHRvS-22">
          <mxGeometry x="17.5" y="25" width="45" height="30" as="geometry" />
        </mxCell>
        <mxCell id="5XwMB53WprIgXsmNHRvS-25" value="&lt;font style=&quot;font-size: 14px;&quot;&gt;[5]&lt;/font&gt;" style="text;html=1;align=center;verticalAlign=middle;whiteSpace=wrap;rounded=0;" vertex="1" parent="5XwMB53WprIgXsmNHRvS-22">
          <mxGeometry x="30" y="60" width="50" height="20" as="geometry" />
        </mxCell>
        <mxCell id="5XwMB53WprIgXsmNHRvS-26" value="" style="group" vertex="1" connectable="0" parent="5XwMB53WprIgXsmNHRvS-1">
          <mxGeometry x="623" y="400" width="80" height="80" as="geometry" />
        </mxCell>
        <mxCell id="5XwMB53WprIgXsmNHRvS-27" value="" style="rounded=0;whiteSpace=wrap;html=1;" vertex="1" parent="5XwMB53WprIgXsmNHRvS-26">
          <mxGeometry width="80" height="80" as="geometry" />
        </mxCell>
        <mxCell id="5XwMB53WprIgXsmNHRvS-28" value="&lt;span style=&quot;font-size: 24px;&quot;&gt;42&lt;/span&gt;" style="text;html=1;align=center;verticalAlign=middle;whiteSpace=wrap;rounded=0;" vertex="1" parent="5XwMB53WprIgXsmNHRvS-26">
          <mxGeometry x="17.5" y="25" width="45" height="30" as="geometry" />
        </mxCell>
        <mxCell id="5XwMB53WprIgXsmNHRvS-29" value="&lt;font style=&quot;font-size: 14px;&quot;&gt;[6]&lt;/font&gt;" style="text;html=1;align=center;verticalAlign=middle;whiteSpace=wrap;rounded=0;" vertex="1" parent="5XwMB53WprIgXsmNHRvS-26">
          <mxGeometry x="30" y="60" width="50" height="20" as="geometry" />
        </mxCell>
        <mxCell id="5XwMB53WprIgXsmNHRvS-30" value="" style="group" vertex="1" connectable="0" parent="5XwMB53WprIgXsmNHRvS-1">
          <mxGeometry x="720" y="400" width="80" height="80" as="geometry" />
        </mxCell>
        <mxCell id="5XwMB53WprIgXsmNHRvS-31" value="" style="rounded=0;whiteSpace=wrap;html=1;" vertex="1" parent="5XwMB53WprIgXsmNHRvS-30">
          <mxGeometry width="80" height="80" as="geometry" />
        </mxCell>
        <mxCell id="5XwMB53WprIgXsmNHRvS-32" value="&lt;font style=&quot;font-size: 24px;&quot;&gt;75&lt;/font&gt;" style="text;html=1;align=center;verticalAlign=middle;whiteSpace=wrap;rounded=0;" vertex="1" parent="5XwMB53WprIgXsmNHRvS-30">
          <mxGeometry x="17.5" y="25" width="45" height="30" as="geometry" />
        </mxCell>
        <mxCell id="5XwMB53WprIgXsmNHRvS-33" value="&lt;font style=&quot;font-size: 14px;&quot;&gt;[7]&lt;/font&gt;" style="text;html=1;align=center;verticalAlign=middle;whiteSpace=wrap;rounded=0;" vertex="1" parent="5XwMB53WprIgXsmNHRvS-30">
          <mxGeometry x="30" y="60" width="50" height="20" as="geometry" />
        </mxCell>
        <mxCell id="5XwMB53WprIgXsmNHRvS-34" value="" style="group" vertex="1" connectable="0" parent="5XwMB53WprIgXsmNHRvS-1">
          <mxGeometry x="40" y="290" width="177" height="80" as="geometry" />
        </mxCell>
        <mxCell id="5XwMB53WprIgXsmNHRvS-35" value="" style="rounded=0;whiteSpace=wrap;html=1;" vertex="1" parent="5XwMB53WprIgXsmNHRvS-34">
          <mxGeometry width="177" height="80" as="geometry" />
        </mxCell>
        <mxCell id="5XwMB53WprIgXsmNHRvS-36" value="&lt;font style=&quot;font-size: 24px;&quot;&gt;36&lt;/font&gt;" style="text;html=1;align=center;verticalAlign=middle;whiteSpace=wrap;rounded=0;" vertex="1" parent="5XwMB53WprIgXsmNHRvS-34">
          <mxGeometry x="38.71875" y="25" width="99.56250000000001" height="30" as="geometry" />
        </mxCell>
        <mxCell id="5XwMB53WprIgXsmNHRvS-37" value="&lt;font style=&quot;font-size: 14px;&quot;&gt;[0, 2)&lt;/font&gt;" style="text;html=1;align=center;verticalAlign=middle;whiteSpace=wrap;rounded=0;" vertex="1" parent="5XwMB53WprIgXsmNHRvS-34">
          <mxGeometry x="110" y="60" width="67" height="20" as="geometry" />
        </mxCell>
        <mxCell id="5XwMB53WprIgXsmNHRvS-38" value="" style="group" vertex="1" connectable="0" parent="5XwMB53WprIgXsmNHRvS-1">
          <mxGeometry x="237" y="290" width="177" height="80" as="geometry" />
        </mxCell>
        <mxCell id="5XwMB53WprIgXsmNHRvS-39" value="" style="rounded=0;whiteSpace=wrap;html=1;" vertex="1" parent="5XwMB53WprIgXsmNHRvS-38">
          <mxGeometry width="177" height="80" as="geometry" />
        </mxCell>
        <mxCell id="5XwMB53WprIgXsmNHRvS-40" value="&lt;font style=&quot;font-size: 24px;&quot;&gt;17&lt;/font&gt;" style="text;html=1;align=center;verticalAlign=middle;whiteSpace=wrap;rounded=0;" vertex="1" parent="5XwMB53WprIgXsmNHRvS-38">
          <mxGeometry x="38.71875" y="25" width="99.56250000000001" height="30" as="geometry" />
        </mxCell>
        <mxCell id="5XwMB53WprIgXsmNHRvS-41" value="&lt;font style=&quot;font-size: 14px;&quot;&gt;[2, 4)&lt;/font&gt;" style="text;html=1;align=center;verticalAlign=middle;whiteSpace=wrap;rounded=0;" vertex="1" parent="5XwMB53WprIgXsmNHRvS-38">
          <mxGeometry x="110" y="60" width="67" height="20" as="geometry" />
        </mxCell>
        <mxCell id="5XwMB53WprIgXsmNHRvS-42" value="" style="group" vertex="1" connectable="0" parent="5XwMB53WprIgXsmNHRvS-1">
          <mxGeometry x="429" y="290" width="177" height="80" as="geometry" />
        </mxCell>
        <mxCell id="5XwMB53WprIgXsmNHRvS-43" value="" style="rounded=0;whiteSpace=wrap;html=1;" vertex="1" parent="5XwMB53WprIgXsmNHRvS-42">
          <mxGeometry width="177" height="80" as="geometry" />
        </mxCell>
        <mxCell id="5XwMB53WprIgXsmNHRvS-44" value="&lt;font style=&quot;font-size: 24px;&quot;&gt;55&lt;/font&gt;" style="text;html=1;align=center;verticalAlign=middle;whiteSpace=wrap;rounded=0;" vertex="1" parent="5XwMB53WprIgXsmNHRvS-42">
          <mxGeometry x="38.71875" y="25" width="99.56250000000001" height="30" as="geometry" />
        </mxCell>
        <mxCell id="5XwMB53WprIgXsmNHRvS-45" value="&lt;font style=&quot;font-size: 14px;&quot;&gt;[4, 6)&lt;/font&gt;" style="text;html=1;align=center;verticalAlign=middle;whiteSpace=wrap;rounded=0;" vertex="1" parent="5XwMB53WprIgXsmNHRvS-42">
          <mxGeometry x="110" y="60" width="67" height="20" as="geometry" />
        </mxCell>
        <mxCell id="5XwMB53WprIgXsmNHRvS-46" value="" style="group" vertex="1" connectable="0" parent="5XwMB53WprIgXsmNHRvS-1">
          <mxGeometry x="623" y="290" width="177" height="80" as="geometry" />
        </mxCell>
        <mxCell id="5XwMB53WprIgXsmNHRvS-47" value="" style="rounded=0;whiteSpace=wrap;html=1;" vertex="1" parent="5XwMB53WprIgXsmNHRvS-46">
          <mxGeometry width="177" height="80" as="geometry" />
        </mxCell>
        <mxCell id="5XwMB53WprIgXsmNHRvS-48" value="&lt;font style=&quot;font-size: 24px;&quot;&gt;117&lt;/font&gt;" style="text;html=1;align=center;verticalAlign=middle;whiteSpace=wrap;rounded=0;" vertex="1" parent="5XwMB53WprIgXsmNHRvS-46">
          <mxGeometry x="38.71875" y="25" width="99.56250000000001" height="30" as="geometry" />
        </mxCell>
        <mxCell id="5XwMB53WprIgXsmNHRvS-49" value="&lt;font style=&quot;font-size: 14px;&quot;&gt;[6, 8)&lt;/font&gt;" style="text;html=1;align=center;verticalAlign=middle;whiteSpace=wrap;rounded=0;" vertex="1" parent="5XwMB53WprIgXsmNHRvS-46">
          <mxGeometry x="110" y="60" width="67" height="20" as="geometry" />
        </mxCell>
        <mxCell id="5XwMB53WprIgXsmNHRvS-50" value="" style="group" vertex="1" connectable="0" parent="5XwMB53WprIgXsmNHRvS-1">
          <mxGeometry x="40" y="180" width="374" height="80" as="geometry" />
        </mxCell>
        <mxCell id="5XwMB53WprIgXsmNHRvS-51" value="" style="rounded=0;whiteSpace=wrap;html=1;" vertex="1" parent="5XwMB53WprIgXsmNHRvS-50">
          <mxGeometry width="374.00000000000006" height="80" as="geometry" />
        </mxCell>
        <mxCell id="5XwMB53WprIgXsmNHRvS-52" value="&lt;span style=&quot;font-size: 24px;&quot;&gt;53&lt;/span&gt;" style="text;html=1;align=center;verticalAlign=middle;whiteSpace=wrap;rounded=0;" vertex="1" parent="5XwMB53WprIgXsmNHRvS-50">
          <mxGeometry x="81.8125" y="25" width="210.37500000000006" height="30" as="geometry" />
        </mxCell>
        <mxCell id="5XwMB53WprIgXsmNHRvS-53" value="&lt;font style=&quot;font-size: 14px;&quot;&gt;[0, 4)&lt;/font&gt;" style="text;html=1;align=center;verticalAlign=middle;whiteSpace=wrap;rounded=0;" vertex="1" parent="5XwMB53WprIgXsmNHRvS-50">
          <mxGeometry x="232.42937853107344" y="60" width="141.57062146892656" height="20" as="geometry" />
        </mxCell>
        <mxCell id="5XwMB53WprIgXsmNHRvS-54" value="" style="group" vertex="1" connectable="0" parent="5XwMB53WprIgXsmNHRvS-1">
          <mxGeometry x="430" y="180" width="374" height="80" as="geometry" />
        </mxCell>
        <mxCell id="5XwMB53WprIgXsmNHRvS-55" value="" style="rounded=0;whiteSpace=wrap;html=1;" vertex="1" parent="5XwMB53WprIgXsmNHRvS-54">
          <mxGeometry width="374.00000000000006" height="80" as="geometry" />
        </mxCell>
        <mxCell id="5XwMB53WprIgXsmNHRvS-56" value="&lt;span style=&quot;font-size: 24px;&quot;&gt;172&lt;/span&gt;" style="text;html=1;align=center;verticalAlign=middle;whiteSpace=wrap;rounded=0;" vertex="1" parent="5XwMB53WprIgXsmNHRvS-54">
          <mxGeometry x="81.8125" y="25" width="210.37500000000006" height="30" as="geometry" />
        </mxCell>
        <mxCell id="5XwMB53WprIgXsmNHRvS-57" value="&lt;font style=&quot;font-size: 14px;&quot;&gt;[4, 8)&lt;/font&gt;" style="text;html=1;align=center;verticalAlign=middle;whiteSpace=wrap;rounded=0;" vertex="1" parent="5XwMB53WprIgXsmNHRvS-54">
          <mxGeometry x="232.42937853107344" y="60" width="141.57062146892656" height="20" as="geometry" />
        </mxCell>
        <mxCell id="5XwMB53WprIgXsmNHRvS-58" value="" style="group;fillColor=#fff2cc;strokeColor=#d6b656;" vertex="1" connectable="0" parent="5XwMB53WprIgXsmNHRvS-1">
          <mxGeometry x="40" y="60" width="760" height="80" as="geometry" />
        </mxCell>
        <mxCell id="5XwMB53WprIgXsmNHRvS-59" value="" style="rounded=0;whiteSpace=wrap;html=1;fillColor=#fff2cc;strokeColor=#d6b656;" vertex="1" parent="5XwMB53WprIgXsmNHRvS-58">
          <mxGeometry width="760.0000000000001" height="80" as="geometry" />
        </mxCell>
        <mxCell id="5XwMB53WprIgXsmNHRvS-60" value="&lt;span style=&quot;font-size: 24px;&quot;&gt;225&lt;/span&gt;" style="text;html=1;align=center;verticalAlign=middle;whiteSpace=wrap;rounded=0;" vertex="1" parent="5XwMB53WprIgXsmNHRvS-58">
          <mxGeometry x="166.25" y="25" width="427.50000000000017" height="30" as="geometry" />
        </mxCell>
        <mxCell id="5XwMB53WprIgXsmNHRvS-61" value="&lt;font style=&quot;font-size: 14px;&quot;&gt;[0, 8)&lt;/font&gt;" style="text;html=1;align=center;verticalAlign=middle;whiteSpace=wrap;rounded=0;" vertex="1" parent="5XwMB53WprIgXsmNHRvS-58">
          <mxGeometry x="472.316384180791" y="60" width="287.6836158192091" height="20" as="geometry" />
        </mxCell>
        <mxCell id="5XwMB53WprIgXsmNHRvS-62" value="" style="endArrow=none;html=1;rounded=0;" edge="1" parent="5XwMB53WprIgXsmNHRvS-1" source="5XwMB53WprIgXsmNHRvS-59" target="5XwMB53WprIgXsmNHRvS-55">
          <mxGeometry width="50" height="50" relative="1" as="geometry">
            <mxPoint x="479.99727272727273" y="140" as="sourcePoint" />
            <mxPoint x="621.27" y="70" as="targetPoint" />
          </mxGeometry>
        </mxCell>
        <mxCell id="5XwMB53WprIgXsmNHRvS-63" value="" style="endArrow=none;html=1;rounded=0;" edge="1" parent="5XwMB53WprIgXsmNHRvS-1" source="5XwMB53WprIgXsmNHRvS-59" target="5XwMB53WprIgXsmNHRvS-51">
          <mxGeometry width="50" height="50" relative="1" as="geometry">
            <mxPoint x="496" y="150" as="sourcePoint" />
            <mxPoint x="561" y="190" as="targetPoint" />
          </mxGeometry>
        </mxCell>
        <mxCell id="5XwMB53WprIgXsmNHRvS-64" value="" style="endArrow=none;html=1;rounded=0;" edge="1" parent="5XwMB53WprIgXsmNHRvS-1" source="5XwMB53WprIgXsmNHRvS-35" target="5XwMB53WprIgXsmNHRvS-3">
          <mxGeometry width="50" height="50" relative="1" as="geometry">
            <mxPoint x="366" y="150" as="sourcePoint" />
            <mxPoint x="301" y="190" as="targetPoint" />
          </mxGeometry>
        </mxCell>
        <mxCell id="5XwMB53WprIgXsmNHRvS-65" value="" style="endArrow=none;html=1;rounded=0;" edge="1" parent="5XwMB53WprIgXsmNHRvS-1" source="5XwMB53WprIgXsmNHRvS-35" target="5XwMB53WprIgXsmNHRvS-7">
          <mxGeometry width="50" height="50" relative="1" as="geometry">
            <mxPoint x="121" y="380" as="sourcePoint" />
            <mxPoint x="108" y="410" as="targetPoint" />
          </mxGeometry>
        </mxCell>
        <mxCell id="5XwMB53WprIgXsmNHRvS-66" value="" style="endArrow=none;html=1;rounded=0;" edge="1" parent="5XwMB53WprIgXsmNHRvS-1" source="5XwMB53WprIgXsmNHRvS-39" target="5XwMB53WprIgXsmNHRvS-11">
          <mxGeometry width="50" height="50" relative="1" as="geometry">
            <mxPoint x="156" y="380" as="sourcePoint" />
            <mxPoint x="169" y="410" as="targetPoint" />
          </mxGeometry>
        </mxCell>
        <mxCell id="5XwMB53WprIgXsmNHRvS-67" value="" style="endArrow=none;html=1;rounded=0;" edge="1" parent="5XwMB53WprIgXsmNHRvS-1" source="5XwMB53WprIgXsmNHRvS-39" target="5XwMB53WprIgXsmNHRvS-15">
          <mxGeometry width="50" height="50" relative="1" as="geometry">
            <mxPoint x="317" y="380" as="sourcePoint" />
            <mxPoint x="303" y="410" as="targetPoint" />
          </mxGeometry>
        </mxCell>
        <mxCell id="5XwMB53WprIgXsmNHRvS-68" value="" style="endArrow=none;html=1;rounded=0;" edge="1" parent="5XwMB53WprIgXsmNHRvS-1" source="5XwMB53WprIgXsmNHRvS-43" target="5XwMB53WprIgXsmNHRvS-19">
          <mxGeometry width="50" height="50" relative="1" as="geometry">
            <mxPoint x="352" y="380" as="sourcePoint" />
            <mxPoint x="364" y="410" as="targetPoint" />
          </mxGeometry>
        </mxCell>
        <mxCell id="5XwMB53WprIgXsmNHRvS-69" value="" style="endArrow=none;html=1;rounded=0;" edge="1" parent="5XwMB53WprIgXsmNHRvS-1" source="5XwMB53WprIgXsmNHRvS-43" target="5XwMB53WprIgXsmNHRvS-23">
          <mxGeometry width="50" height="50" relative="1" as="geometry">
            <mxPoint x="510" y="380" as="sourcePoint" />
            <mxPoint x="497" y="410" as="targetPoint" />
          </mxGeometry>
        </mxCell>
        <mxCell id="5XwMB53WprIgXsmNHRvS-70" value="" style="endArrow=none;html=1;rounded=0;" edge="1" parent="5XwMB53WprIgXsmNHRvS-1" source="5XwMB53WprIgXsmNHRvS-47" target="5XwMB53WprIgXsmNHRvS-27">
          <mxGeometry width="50" height="50" relative="1" as="geometry">
            <mxPoint x="545" y="380" as="sourcePoint" />
            <mxPoint x="558" y="410" as="targetPoint" />
          </mxGeometry>
        </mxCell>
        <mxCell id="5XwMB53WprIgXsmNHRvS-71" value="" style="endArrow=none;html=1;rounded=0;" edge="1" parent="5XwMB53WprIgXsmNHRvS-1" source="5XwMB53WprIgXsmNHRvS-47" target="5XwMB53WprIgXsmNHRvS-31">
          <mxGeometry width="50" height="50" relative="1" as="geometry">
            <mxPoint x="704" y="380" as="sourcePoint" />
            <mxPoint x="691" y="410" as="targetPoint" />
          </mxGeometry>
        </mxCell>
        <mxCell id="5XwMB53WprIgXsmNHRvS-72" value="" style="endArrow=none;html=1;rounded=0;" edge="1" parent="5XwMB53WprIgXsmNHRvS-1" source="5XwMB53WprIgXsmNHRvS-55" target="5XwMB53WprIgXsmNHRvS-47">
          <mxGeometry width="50" height="50" relative="1" as="geometry">
            <mxPoint x="739" y="380" as="sourcePoint" />
            <mxPoint x="752" y="410" as="targetPoint" />
          </mxGeometry>
        </mxCell>
        <mxCell id="5XwMB53WprIgXsmNHRvS-73" value="" style="endArrow=none;html=1;rounded=0;" edge="1" parent="5XwMB53WprIgXsmNHRvS-1" source="5XwMB53WprIgXsmNHRvS-55" target="5XwMB53WprIgXsmNHRvS-43">
          <mxGeometry width="50" height="50" relative="1" as="geometry">
            <mxPoint x="661" y="270" as="sourcePoint" />
            <mxPoint x="687" y="300" as="targetPoint" />
          </mxGeometry>
        </mxCell>
        <mxCell id="5XwMB53WprIgXsmNHRvS-74" value="" style="endArrow=none;html=1;rounded=0;" edge="1" parent="5XwMB53WprIgXsmNHRvS-1" source="5XwMB53WprIgXsmNHRvS-51" target="5XwMB53WprIgXsmNHRvS-39">
          <mxGeometry width="50" height="50" relative="1" as="geometry">
            <mxPoint x="591" y="270" as="sourcePoint" />
            <mxPoint x="564" y="300" as="targetPoint" />
          </mxGeometry>
        </mxCell>
        <mxCell id="5XwMB53WprIgXsmNHRvS-75" value="" style="endArrow=none;html=1;rounded=0;" edge="1" parent="5XwMB53WprIgXsmNHRvS-1" source="5XwMB53WprIgXsmNHRvS-51" target="5XwMB53WprIgXsmNHRvS-35">
          <mxGeometry width="50" height="50" relative="1" as="geometry">
            <mxPoint x="273" y="270" as="sourcePoint" />
            <mxPoint x="300" y="300" as="targetPoint" />
          </mxGeometry>
        </mxCell>
        <mxCell id="5XwMB53WprIgXsmNHRvS-76" value="" style="endArrow=none;dashed=1;html=1;dashPattern=12 12;strokeWidth=2;rounded=0;strokeColor=#FF6666;" edge="1" parent="5XwMB53WprIgXsmNHRvS-1" source="7xSPQX-c75ZVvP2p_LvA-0">
          <mxGeometry width="50" height="50" relative="1" as="geometry">
            <mxPoint x="120" y="600" as="sourcePoint" />
            <mxPoint x="120" y="40" as="targetPoint" />
          </mxGeometry>
        </mxCell>
        <mxCell id="5XwMB53WprIgXsmNHRvS-77" value="" style="endArrow=none;dashed=1;html=1;dashPattern=12 12;strokeWidth=2;rounded=0;strokeColor=#FF6666;" edge="1" parent="5XwMB53WprIgXsmNHRvS-1">
          <mxGeometry width="50" height="50" relative="1" as="geometry">
            <mxPoint x="610" y="600" as="sourcePoint" />
            <mxPoint x="610" y="40" as="targetPoint" />
          </mxGeometry>
        </mxCell>
        <mxCell id="5XwMB53WprIgXsmNHRvS-78" value="&lt;font style=&quot;font-size: 20px; color: rgb(255, 102, 102);&quot;&gt;將範圍[1, 6)內的數值+10&lt;/font&gt;" style="text;html=1;align=center;verticalAlign=middle;whiteSpace=wrap;rounded=0;" vertex="1" parent="5XwMB53WprIgXsmNHRvS-1">
          <mxGeometry x="286" y="560" width="240" height="25" as="geometry" />
        </mxCell>
        <mxCell id="M34qdnLOPMrdyOo_oaQ6-0" value="&lt;span style=&quot;font-size: 20px;&quot;&gt;我有一共&lt;/span&gt;&lt;span style=&quot;color: rgb(255, 102, 102); font-size: 20px;&quot;&gt;6-1=5&lt;/span&gt;&lt;span style=&quot;font-size: 20px;&quot;&gt;個元素在更新的範圍內，&lt;/span&gt;&lt;div&gt;&lt;span style=&quot;font-size: 20px;&quot;&gt;我的總和要加上&lt;/span&gt;&lt;span style=&quot;color: rgb(255, 102, 102); font-size: 20px;&quot;&gt;5*10=50&lt;/span&gt;&lt;/div&gt;" style="shape=callout;whiteSpace=wrap;html=1;perimeter=calloutPerimeter;fillColor=#d5e8d4;strokeColor=#82b366;" vertex="1" parent="5XwMB53WprIgXsmNHRvS-1">
          <mxGeometry x="350" y="-30" width="370" height="90" as="geometry" />
        </mxCell>
        <mxCell id="7xSPQX-c75ZVvP2p_LvA-1" value="" style="endArrow=none;dashed=1;html=1;dashPattern=12 12;strokeWidth=2;rounded=0;strokeColor=#FF6666;" edge="1" parent="5XwMB53WprIgXsmNHRvS-1" target="7xSPQX-c75ZVvP2p_LvA-0">
          <mxGeometry width="50" height="50" relative="1" as="geometry">
            <mxPoint x="120" y="600" as="sourcePoint" />
            <mxPoint x="120" y="40" as="targetPoint" />
          </mxGeometry>
        </mxCell>
        <mxCell id="7xSPQX-c75ZVvP2p_LvA-0" value="&lt;span style=&quot;color: rgb(255, 102, 102); font-size: 20px;&quot;&gt;[1&lt;/span&gt;" style="text;html=1;align=center;verticalAlign=middle;whiteSpace=wrap;rounded=0;" vertex="1" parent="5XwMB53WprIgXsmNHRvS-1">
          <mxGeometry x="90" y="600" width="60" height="30" as="geometry" />
        </mxCell>
        <mxCell id="7xSPQX-c75ZVvP2p_LvA-2" value="&lt;span style=&quot;color: rgb(255, 102, 102); font-size: 20px;&quot;&gt;6)&lt;/span&gt;" style="text;html=1;align=center;verticalAlign=middle;whiteSpace=wrap;rounded=0;" vertex="1" parent="5XwMB53WprIgXsmNHRvS-1">
          <mxGeometry x="580" y="600" width="60" height="30" as="geometry" />
        </mxCell>
      </root>
    </mxGraphModel>
  </diagram>
  <diagram name="update3" id="9egkgLrZec80kAGWH8Ep">
    <mxGraphModel dx="2255" dy="743" grid="1" gridSize="10" guides="1" tooltips="1" connect="1" arrows="1" fold="1" page="1" pageScale="1" pageWidth="827" pageHeight="1169" math="0" shadow="0">
      <root>
        <mxCell id="ZEoUcP8KCs0EKRpIArlr-0" />
        <mxCell id="ZEoUcP8KCs0EKRpIArlr-1" parent="ZEoUcP8KCs0EKRpIArlr-0" />
        <mxCell id="ZEoUcP8KCs0EKRpIArlr-2" value="" style="group" vertex="1" connectable="0" parent="ZEoUcP8KCs0EKRpIArlr-1">
          <mxGeometry x="40" y="400" width="80" height="80" as="geometry" />
        </mxCell>
        <mxCell id="ZEoUcP8KCs0EKRpIArlr-3" value="" style="rounded=0;whiteSpace=wrap;html=1;" vertex="1" parent="ZEoUcP8KCs0EKRpIArlr-2">
          <mxGeometry width="80" height="80" as="geometry" />
        </mxCell>
        <mxCell id="ZEoUcP8KCs0EKRpIArlr-4" value="&lt;font style=&quot;font-size: 24px;&quot;&gt;9&lt;/font&gt;" style="text;html=1;align=center;verticalAlign=middle;whiteSpace=wrap;rounded=0;" vertex="1" parent="ZEoUcP8KCs0EKRpIArlr-2">
          <mxGeometry x="17.5" y="25" width="45" height="30" as="geometry" />
        </mxCell>
        <mxCell id="ZEoUcP8KCs0EKRpIArlr-5" value="&lt;font style=&quot;font-size: 14px;&quot;&gt;[0]&lt;/font&gt;" style="text;html=1;align=center;verticalAlign=middle;whiteSpace=wrap;rounded=0;" vertex="1" parent="ZEoUcP8KCs0EKRpIArlr-2">
          <mxGeometry x="30" y="60" width="50" height="20" as="geometry" />
        </mxCell>
        <mxCell id="ZEoUcP8KCs0EKRpIArlr-6" value="" style="group" vertex="1" connectable="0" parent="ZEoUcP8KCs0EKRpIArlr-1">
          <mxGeometry x="137" y="400" width="80" height="80" as="geometry" />
        </mxCell>
        <mxCell id="ZEoUcP8KCs0EKRpIArlr-7" value="" style="rounded=0;whiteSpace=wrap;html=1;" vertex="1" parent="ZEoUcP8KCs0EKRpIArlr-6">
          <mxGeometry width="80" height="80" as="geometry" />
        </mxCell>
        <mxCell id="ZEoUcP8KCs0EKRpIArlr-8" value="&lt;font style=&quot;font-size: 24px;&quot;&gt;27&lt;/font&gt;" style="text;html=1;align=center;verticalAlign=middle;whiteSpace=wrap;rounded=0;" vertex="1" parent="ZEoUcP8KCs0EKRpIArlr-6">
          <mxGeometry x="17.5" y="25" width="45" height="30" as="geometry" />
        </mxCell>
        <mxCell id="ZEoUcP8KCs0EKRpIArlr-9" value="&lt;font style=&quot;font-size: 14px;&quot;&gt;[1]&lt;/font&gt;" style="text;html=1;align=center;verticalAlign=middle;whiteSpace=wrap;rounded=0;" vertex="1" parent="ZEoUcP8KCs0EKRpIArlr-6">
          <mxGeometry x="30" y="60" width="50" height="20" as="geometry" />
        </mxCell>
        <mxCell id="ZEoUcP8KCs0EKRpIArlr-10" value="" style="group" vertex="1" connectable="0" parent="ZEoUcP8KCs0EKRpIArlr-1">
          <mxGeometry x="234" y="400" width="80" height="80" as="geometry" />
        </mxCell>
        <mxCell id="ZEoUcP8KCs0EKRpIArlr-11" value="" style="rounded=0;whiteSpace=wrap;html=1;" vertex="1" parent="ZEoUcP8KCs0EKRpIArlr-10">
          <mxGeometry width="80" height="80" as="geometry" />
        </mxCell>
        <mxCell id="ZEoUcP8KCs0EKRpIArlr-12" value="&lt;font style=&quot;font-size: 24px;&quot;&gt;12&lt;/font&gt;" style="text;html=1;align=center;verticalAlign=middle;whiteSpace=wrap;rounded=0;" vertex="1" parent="ZEoUcP8KCs0EKRpIArlr-10">
          <mxGeometry x="17.5" y="25" width="45" height="30" as="geometry" />
        </mxCell>
        <mxCell id="ZEoUcP8KCs0EKRpIArlr-13" value="&lt;font style=&quot;font-size: 14px;&quot;&gt;[2]&lt;/font&gt;" style="text;html=1;align=center;verticalAlign=middle;whiteSpace=wrap;rounded=0;" vertex="1" parent="ZEoUcP8KCs0EKRpIArlr-10">
          <mxGeometry x="30" y="60" width="50" height="20" as="geometry" />
        </mxCell>
        <mxCell id="ZEoUcP8KCs0EKRpIArlr-14" value="" style="group" vertex="1" connectable="0" parent="ZEoUcP8KCs0EKRpIArlr-1">
          <mxGeometry x="331" y="400" width="80" height="80" as="geometry" />
        </mxCell>
        <mxCell id="ZEoUcP8KCs0EKRpIArlr-15" value="" style="rounded=0;whiteSpace=wrap;html=1;" vertex="1" parent="ZEoUcP8KCs0EKRpIArlr-14">
          <mxGeometry width="80" height="80" as="geometry" />
        </mxCell>
        <mxCell id="ZEoUcP8KCs0EKRpIArlr-16" value="&lt;font style=&quot;font-size: 24px;&quot;&gt;5&lt;/font&gt;" style="text;html=1;align=center;verticalAlign=middle;whiteSpace=wrap;rounded=0;" vertex="1" parent="ZEoUcP8KCs0EKRpIArlr-14">
          <mxGeometry x="17.5" y="25" width="45" height="30" as="geometry" />
        </mxCell>
        <mxCell id="ZEoUcP8KCs0EKRpIArlr-17" value="&lt;font style=&quot;font-size: 14px;&quot;&gt;[3]&lt;/font&gt;" style="text;html=1;align=center;verticalAlign=middle;whiteSpace=wrap;rounded=0;" vertex="1" parent="ZEoUcP8KCs0EKRpIArlr-14">
          <mxGeometry x="30" y="60" width="50" height="20" as="geometry" />
        </mxCell>
        <mxCell id="ZEoUcP8KCs0EKRpIArlr-18" value="" style="group" vertex="1" connectable="0" parent="ZEoUcP8KCs0EKRpIArlr-1">
          <mxGeometry x="429" y="400" width="80" height="80" as="geometry" />
        </mxCell>
        <mxCell id="ZEoUcP8KCs0EKRpIArlr-19" value="" style="rounded=0;whiteSpace=wrap;html=1;" vertex="1" parent="ZEoUcP8KCs0EKRpIArlr-18">
          <mxGeometry width="80" height="80" as="geometry" />
        </mxCell>
        <mxCell id="ZEoUcP8KCs0EKRpIArlr-20" value="&lt;span style=&quot;font-size: 24px;&quot;&gt;14&lt;/span&gt;" style="text;html=1;align=center;verticalAlign=middle;whiteSpace=wrap;rounded=0;" vertex="1" parent="ZEoUcP8KCs0EKRpIArlr-18">
          <mxGeometry x="17.5" y="25" width="45" height="30" as="geometry" />
        </mxCell>
        <mxCell id="ZEoUcP8KCs0EKRpIArlr-21" value="&lt;font style=&quot;font-size: 14px;&quot;&gt;[4]&lt;/font&gt;" style="text;html=1;align=center;verticalAlign=middle;whiteSpace=wrap;rounded=0;" vertex="1" parent="ZEoUcP8KCs0EKRpIArlr-18">
          <mxGeometry x="30" y="60" width="50" height="20" as="geometry" />
        </mxCell>
        <mxCell id="ZEoUcP8KCs0EKRpIArlr-22" value="" style="group" vertex="1" connectable="0" parent="ZEoUcP8KCs0EKRpIArlr-1">
          <mxGeometry x="526" y="400" width="80" height="80" as="geometry" />
        </mxCell>
        <mxCell id="ZEoUcP8KCs0EKRpIArlr-23" value="" style="rounded=0;whiteSpace=wrap;html=1;" vertex="1" parent="ZEoUcP8KCs0EKRpIArlr-22">
          <mxGeometry width="80" height="80" as="geometry" />
        </mxCell>
        <mxCell id="ZEoUcP8KCs0EKRpIArlr-24" value="&lt;font style=&quot;font-size: 24px;&quot;&gt;41&lt;/font&gt;" style="text;html=1;align=center;verticalAlign=middle;whiteSpace=wrap;rounded=0;" vertex="1" parent="ZEoUcP8KCs0EKRpIArlr-22">
          <mxGeometry x="17.5" y="25" width="45" height="30" as="geometry" />
        </mxCell>
        <mxCell id="ZEoUcP8KCs0EKRpIArlr-25" value="&lt;font style=&quot;font-size: 14px;&quot;&gt;[5]&lt;/font&gt;" style="text;html=1;align=center;verticalAlign=middle;whiteSpace=wrap;rounded=0;" vertex="1" parent="ZEoUcP8KCs0EKRpIArlr-22">
          <mxGeometry x="30" y="60" width="50" height="20" as="geometry" />
        </mxCell>
        <mxCell id="ZEoUcP8KCs0EKRpIArlr-26" value="" style="group" vertex="1" connectable="0" parent="ZEoUcP8KCs0EKRpIArlr-1">
          <mxGeometry x="623" y="400" width="80" height="80" as="geometry" />
        </mxCell>
        <mxCell id="ZEoUcP8KCs0EKRpIArlr-27" value="" style="rounded=0;whiteSpace=wrap;html=1;" vertex="1" parent="ZEoUcP8KCs0EKRpIArlr-26">
          <mxGeometry width="80" height="80" as="geometry" />
        </mxCell>
        <mxCell id="ZEoUcP8KCs0EKRpIArlr-28" value="&lt;span style=&quot;font-size: 24px;&quot;&gt;42&lt;/span&gt;" style="text;html=1;align=center;verticalAlign=middle;whiteSpace=wrap;rounded=0;" vertex="1" parent="ZEoUcP8KCs0EKRpIArlr-26">
          <mxGeometry x="17.5" y="25" width="45" height="30" as="geometry" />
        </mxCell>
        <mxCell id="ZEoUcP8KCs0EKRpIArlr-29" value="&lt;font style=&quot;font-size: 14px;&quot;&gt;[6]&lt;/font&gt;" style="text;html=1;align=center;verticalAlign=middle;whiteSpace=wrap;rounded=0;" vertex="1" parent="ZEoUcP8KCs0EKRpIArlr-26">
          <mxGeometry x="30" y="60" width="50" height="20" as="geometry" />
        </mxCell>
        <mxCell id="ZEoUcP8KCs0EKRpIArlr-30" value="" style="group" vertex="1" connectable="0" parent="ZEoUcP8KCs0EKRpIArlr-1">
          <mxGeometry x="720" y="400" width="80" height="80" as="geometry" />
        </mxCell>
        <mxCell id="ZEoUcP8KCs0EKRpIArlr-31" value="" style="rounded=0;whiteSpace=wrap;html=1;" vertex="1" parent="ZEoUcP8KCs0EKRpIArlr-30">
          <mxGeometry width="80" height="80" as="geometry" />
        </mxCell>
        <mxCell id="ZEoUcP8KCs0EKRpIArlr-32" value="&lt;font style=&quot;font-size: 24px;&quot;&gt;75&lt;/font&gt;" style="text;html=1;align=center;verticalAlign=middle;whiteSpace=wrap;rounded=0;" vertex="1" parent="ZEoUcP8KCs0EKRpIArlr-30">
          <mxGeometry x="17.5" y="25" width="45" height="30" as="geometry" />
        </mxCell>
        <mxCell id="ZEoUcP8KCs0EKRpIArlr-33" value="&lt;font style=&quot;font-size: 14px;&quot;&gt;[7]&lt;/font&gt;" style="text;html=1;align=center;verticalAlign=middle;whiteSpace=wrap;rounded=0;" vertex="1" parent="ZEoUcP8KCs0EKRpIArlr-30">
          <mxGeometry x="30" y="60" width="50" height="20" as="geometry" />
        </mxCell>
        <mxCell id="ZEoUcP8KCs0EKRpIArlr-34" value="" style="group" vertex="1" connectable="0" parent="ZEoUcP8KCs0EKRpIArlr-1">
          <mxGeometry x="40" y="290" width="177" height="80" as="geometry" />
        </mxCell>
        <mxCell id="ZEoUcP8KCs0EKRpIArlr-35" value="" style="rounded=0;whiteSpace=wrap;html=1;" vertex="1" parent="ZEoUcP8KCs0EKRpIArlr-34">
          <mxGeometry width="177" height="80" as="geometry" />
        </mxCell>
        <mxCell id="ZEoUcP8KCs0EKRpIArlr-36" value="&lt;font style=&quot;font-size: 24px;&quot;&gt;36&lt;/font&gt;" style="text;html=1;align=center;verticalAlign=middle;whiteSpace=wrap;rounded=0;" vertex="1" parent="ZEoUcP8KCs0EKRpIArlr-34">
          <mxGeometry x="38.71875" y="25" width="99.56250000000001" height="30" as="geometry" />
        </mxCell>
        <mxCell id="ZEoUcP8KCs0EKRpIArlr-37" value="&lt;font style=&quot;font-size: 14px;&quot;&gt;[0, 2)&lt;/font&gt;" style="text;html=1;align=center;verticalAlign=middle;whiteSpace=wrap;rounded=0;" vertex="1" parent="ZEoUcP8KCs0EKRpIArlr-34">
          <mxGeometry x="110" y="60" width="67" height="20" as="geometry" />
        </mxCell>
        <mxCell id="ZEoUcP8KCs0EKRpIArlr-38" value="" style="group" vertex="1" connectable="0" parent="ZEoUcP8KCs0EKRpIArlr-1">
          <mxGeometry x="237" y="290" width="177" height="80" as="geometry" />
        </mxCell>
        <mxCell id="ZEoUcP8KCs0EKRpIArlr-39" value="" style="rounded=0;whiteSpace=wrap;html=1;" vertex="1" parent="ZEoUcP8KCs0EKRpIArlr-38">
          <mxGeometry width="177" height="80" as="geometry" />
        </mxCell>
        <mxCell id="ZEoUcP8KCs0EKRpIArlr-40" value="&lt;font style=&quot;font-size: 24px;&quot;&gt;17&lt;/font&gt;" style="text;html=1;align=center;verticalAlign=middle;whiteSpace=wrap;rounded=0;" vertex="1" parent="ZEoUcP8KCs0EKRpIArlr-38">
          <mxGeometry x="38.71875" y="25" width="99.56250000000001" height="30" as="geometry" />
        </mxCell>
        <mxCell id="ZEoUcP8KCs0EKRpIArlr-41" value="&lt;font style=&quot;font-size: 14px;&quot;&gt;[2, 4)&lt;/font&gt;" style="text;html=1;align=center;verticalAlign=middle;whiteSpace=wrap;rounded=0;" vertex="1" parent="ZEoUcP8KCs0EKRpIArlr-38">
          <mxGeometry x="110" y="60" width="67" height="20" as="geometry" />
        </mxCell>
        <mxCell id="ZEoUcP8KCs0EKRpIArlr-42" value="" style="group" vertex="1" connectable="0" parent="ZEoUcP8KCs0EKRpIArlr-1">
          <mxGeometry x="429" y="290" width="177" height="80" as="geometry" />
        </mxCell>
        <mxCell id="ZEoUcP8KCs0EKRpIArlr-43" value="" style="rounded=0;whiteSpace=wrap;html=1;" vertex="1" parent="ZEoUcP8KCs0EKRpIArlr-42">
          <mxGeometry width="177" height="80" as="geometry" />
        </mxCell>
        <mxCell id="ZEoUcP8KCs0EKRpIArlr-44" value="&lt;font style=&quot;font-size: 24px;&quot;&gt;55&lt;/font&gt;" style="text;html=1;align=center;verticalAlign=middle;whiteSpace=wrap;rounded=0;" vertex="1" parent="ZEoUcP8KCs0EKRpIArlr-42">
          <mxGeometry x="38.71875" y="25" width="99.56250000000001" height="30" as="geometry" />
        </mxCell>
        <mxCell id="ZEoUcP8KCs0EKRpIArlr-45" value="&lt;font style=&quot;font-size: 14px;&quot;&gt;[4, 6)&lt;/font&gt;" style="text;html=1;align=center;verticalAlign=middle;whiteSpace=wrap;rounded=0;" vertex="1" parent="ZEoUcP8KCs0EKRpIArlr-42">
          <mxGeometry x="110" y="60" width="67" height="20" as="geometry" />
        </mxCell>
        <mxCell id="ZEoUcP8KCs0EKRpIArlr-46" value="" style="group" vertex="1" connectable="0" parent="ZEoUcP8KCs0EKRpIArlr-1">
          <mxGeometry x="623" y="290" width="177" height="80" as="geometry" />
        </mxCell>
        <mxCell id="ZEoUcP8KCs0EKRpIArlr-47" value="" style="rounded=0;whiteSpace=wrap;html=1;" vertex="1" parent="ZEoUcP8KCs0EKRpIArlr-46">
          <mxGeometry width="177" height="80" as="geometry" />
        </mxCell>
        <mxCell id="ZEoUcP8KCs0EKRpIArlr-48" value="&lt;font style=&quot;font-size: 24px;&quot;&gt;117&lt;/font&gt;" style="text;html=1;align=center;verticalAlign=middle;whiteSpace=wrap;rounded=0;" vertex="1" parent="ZEoUcP8KCs0EKRpIArlr-46">
          <mxGeometry x="38.71875" y="25" width="99.56250000000001" height="30" as="geometry" />
        </mxCell>
        <mxCell id="ZEoUcP8KCs0EKRpIArlr-49" value="&lt;font style=&quot;font-size: 14px;&quot;&gt;[6, 8)&lt;/font&gt;" style="text;html=1;align=center;verticalAlign=middle;whiteSpace=wrap;rounded=0;" vertex="1" parent="ZEoUcP8KCs0EKRpIArlr-46">
          <mxGeometry x="110" y="60" width="67" height="20" as="geometry" />
        </mxCell>
        <mxCell id="ZEoUcP8KCs0EKRpIArlr-50" value="" style="group;fillColor=#fff2cc;strokeColor=#d6b656;" vertex="1" connectable="0" parent="ZEoUcP8KCs0EKRpIArlr-1">
          <mxGeometry x="40" y="180" width="374" height="80" as="geometry" />
        </mxCell>
        <mxCell id="ZEoUcP8KCs0EKRpIArlr-51" value="" style="rounded=0;whiteSpace=wrap;html=1;fillColor=#fff2cc;strokeColor=#d6b656;" vertex="1" parent="ZEoUcP8KCs0EKRpIArlr-50">
          <mxGeometry width="374.00000000000006" height="80" as="geometry" />
        </mxCell>
        <mxCell id="ZEoUcP8KCs0EKRpIArlr-52" value="&lt;span style=&quot;font-size: 24px;&quot;&gt;53&lt;/span&gt;" style="text;html=1;align=center;verticalAlign=middle;whiteSpace=wrap;rounded=0;" vertex="1" parent="ZEoUcP8KCs0EKRpIArlr-50">
          <mxGeometry x="81.8125" y="25" width="210.37500000000006" height="30" as="geometry" />
        </mxCell>
        <mxCell id="ZEoUcP8KCs0EKRpIArlr-53" value="&lt;font style=&quot;font-size: 14px;&quot;&gt;[0, 4)&lt;/font&gt;" style="text;html=1;align=center;verticalAlign=middle;whiteSpace=wrap;rounded=0;" vertex="1" parent="ZEoUcP8KCs0EKRpIArlr-50">
          <mxGeometry x="232.42937853107344" y="60" width="141.57062146892656" height="20" as="geometry" />
        </mxCell>
        <mxCell id="ZEoUcP8KCs0EKRpIArlr-54" value="" style="group" vertex="1" connectable="0" parent="ZEoUcP8KCs0EKRpIArlr-1">
          <mxGeometry x="430" y="180" width="374" height="80" as="geometry" />
        </mxCell>
        <mxCell id="ZEoUcP8KCs0EKRpIArlr-55" value="" style="rounded=0;whiteSpace=wrap;html=1;fillColor=#fff2cc;strokeColor=#d6b656;" vertex="1" parent="ZEoUcP8KCs0EKRpIArlr-54">
          <mxGeometry width="374.00000000000006" height="80" as="geometry" />
        </mxCell>
        <mxCell id="ZEoUcP8KCs0EKRpIArlr-56" value="&lt;span style=&quot;font-size: 24px;&quot;&gt;172&lt;/span&gt;" style="text;html=1;align=center;verticalAlign=middle;whiteSpace=wrap;rounded=0;" vertex="1" parent="ZEoUcP8KCs0EKRpIArlr-54">
          <mxGeometry x="81.8125" y="25" width="210.37500000000006" height="30" as="geometry" />
        </mxCell>
        <mxCell id="ZEoUcP8KCs0EKRpIArlr-57" value="&lt;font style=&quot;font-size: 14px;&quot;&gt;[4, 8)&lt;/font&gt;" style="text;html=1;align=center;verticalAlign=middle;whiteSpace=wrap;rounded=0;" vertex="1" parent="ZEoUcP8KCs0EKRpIArlr-54">
          <mxGeometry x="232.42937853107344" y="60" width="141.57062146892656" height="20" as="geometry" />
        </mxCell>
        <mxCell id="ZEoUcP8KCs0EKRpIArlr-58" value="" style="group;fillColor=#fff2cc;strokeColor=#d6b656;" vertex="1" connectable="0" parent="ZEoUcP8KCs0EKRpIArlr-1">
          <mxGeometry x="40" y="60" width="760" height="80" as="geometry" />
        </mxCell>
        <mxCell id="ZEoUcP8KCs0EKRpIArlr-59" value="" style="rounded=0;whiteSpace=wrap;html=1;fillColor=#647687;strokeColor=#314354;fontColor=#ffffff;" vertex="1" parent="ZEoUcP8KCs0EKRpIArlr-58">
          <mxGeometry width="760.0000000000001" height="80" as="geometry" />
        </mxCell>
        <mxCell id="ZEoUcP8KCs0EKRpIArlr-60" value="&lt;span style=&quot;font-size: 24px;&quot;&gt;275&lt;/span&gt;" style="text;html=1;align=center;verticalAlign=middle;whiteSpace=wrap;rounded=0;" vertex="1" parent="ZEoUcP8KCs0EKRpIArlr-58">
          <mxGeometry x="166.25" y="25" width="427.50000000000017" height="30" as="geometry" />
        </mxCell>
        <mxCell id="ZEoUcP8KCs0EKRpIArlr-61" value="&lt;font style=&quot;font-size: 14px;&quot;&gt;[0, 8)&lt;/font&gt;" style="text;html=1;align=center;verticalAlign=middle;whiteSpace=wrap;rounded=0;" vertex="1" parent="ZEoUcP8KCs0EKRpIArlr-58">
          <mxGeometry x="472.316384180791" y="60" width="287.6836158192091" height="20" as="geometry" />
        </mxCell>
        <mxCell id="ZEoUcP8KCs0EKRpIArlr-62" value="" style="endArrow=none;html=1;rounded=0;" edge="1" parent="ZEoUcP8KCs0EKRpIArlr-1" source="ZEoUcP8KCs0EKRpIArlr-59" target="ZEoUcP8KCs0EKRpIArlr-55">
          <mxGeometry width="50" height="50" relative="1" as="geometry">
            <mxPoint x="479.99727272727273" y="140" as="sourcePoint" />
            <mxPoint x="621.27" y="70" as="targetPoint" />
          </mxGeometry>
        </mxCell>
        <mxCell id="ZEoUcP8KCs0EKRpIArlr-63" value="" style="endArrow=none;html=1;rounded=0;" edge="1" parent="ZEoUcP8KCs0EKRpIArlr-1" source="ZEoUcP8KCs0EKRpIArlr-59" target="ZEoUcP8KCs0EKRpIArlr-51">
          <mxGeometry width="50" height="50" relative="1" as="geometry">
            <mxPoint x="496" y="150" as="sourcePoint" />
            <mxPoint x="561" y="190" as="targetPoint" />
          </mxGeometry>
        </mxCell>
        <mxCell id="ZEoUcP8KCs0EKRpIArlr-64" value="" style="endArrow=none;html=1;rounded=0;" edge="1" parent="ZEoUcP8KCs0EKRpIArlr-1" source="ZEoUcP8KCs0EKRpIArlr-35" target="ZEoUcP8KCs0EKRpIArlr-3">
          <mxGeometry width="50" height="50" relative="1" as="geometry">
            <mxPoint x="366" y="150" as="sourcePoint" />
            <mxPoint x="301" y="190" as="targetPoint" />
          </mxGeometry>
        </mxCell>
        <mxCell id="ZEoUcP8KCs0EKRpIArlr-65" value="" style="endArrow=none;html=1;rounded=0;" edge="1" parent="ZEoUcP8KCs0EKRpIArlr-1" source="ZEoUcP8KCs0EKRpIArlr-35" target="ZEoUcP8KCs0EKRpIArlr-7">
          <mxGeometry width="50" height="50" relative="1" as="geometry">
            <mxPoint x="121" y="380" as="sourcePoint" />
            <mxPoint x="108" y="410" as="targetPoint" />
          </mxGeometry>
        </mxCell>
        <mxCell id="ZEoUcP8KCs0EKRpIArlr-66" value="" style="endArrow=none;html=1;rounded=0;" edge="1" parent="ZEoUcP8KCs0EKRpIArlr-1" source="ZEoUcP8KCs0EKRpIArlr-39" target="ZEoUcP8KCs0EKRpIArlr-11">
          <mxGeometry width="50" height="50" relative="1" as="geometry">
            <mxPoint x="156" y="380" as="sourcePoint" />
            <mxPoint x="169" y="410" as="targetPoint" />
          </mxGeometry>
        </mxCell>
        <mxCell id="ZEoUcP8KCs0EKRpIArlr-67" value="" style="endArrow=none;html=1;rounded=0;" edge="1" parent="ZEoUcP8KCs0EKRpIArlr-1" source="ZEoUcP8KCs0EKRpIArlr-39" target="ZEoUcP8KCs0EKRpIArlr-15">
          <mxGeometry width="50" height="50" relative="1" as="geometry">
            <mxPoint x="317" y="380" as="sourcePoint" />
            <mxPoint x="303" y="410" as="targetPoint" />
          </mxGeometry>
        </mxCell>
        <mxCell id="ZEoUcP8KCs0EKRpIArlr-68" value="" style="endArrow=none;html=1;rounded=0;" edge="1" parent="ZEoUcP8KCs0EKRpIArlr-1" source="ZEoUcP8KCs0EKRpIArlr-43" target="ZEoUcP8KCs0EKRpIArlr-19">
          <mxGeometry width="50" height="50" relative="1" as="geometry">
            <mxPoint x="352" y="380" as="sourcePoint" />
            <mxPoint x="364" y="410" as="targetPoint" />
          </mxGeometry>
        </mxCell>
        <mxCell id="ZEoUcP8KCs0EKRpIArlr-69" value="" style="endArrow=none;html=1;rounded=0;" edge="1" parent="ZEoUcP8KCs0EKRpIArlr-1" source="ZEoUcP8KCs0EKRpIArlr-43" target="ZEoUcP8KCs0EKRpIArlr-23">
          <mxGeometry width="50" height="50" relative="1" as="geometry">
            <mxPoint x="510" y="380" as="sourcePoint" />
            <mxPoint x="497" y="410" as="targetPoint" />
          </mxGeometry>
        </mxCell>
        <mxCell id="ZEoUcP8KCs0EKRpIArlr-70" value="" style="endArrow=none;html=1;rounded=0;" edge="1" parent="ZEoUcP8KCs0EKRpIArlr-1" source="ZEoUcP8KCs0EKRpIArlr-47" target="ZEoUcP8KCs0EKRpIArlr-27">
          <mxGeometry width="50" height="50" relative="1" as="geometry">
            <mxPoint x="545" y="380" as="sourcePoint" />
            <mxPoint x="558" y="410" as="targetPoint" />
          </mxGeometry>
        </mxCell>
        <mxCell id="ZEoUcP8KCs0EKRpIArlr-71" value="" style="endArrow=none;html=1;rounded=0;" edge="1" parent="ZEoUcP8KCs0EKRpIArlr-1" source="ZEoUcP8KCs0EKRpIArlr-47" target="ZEoUcP8KCs0EKRpIArlr-31">
          <mxGeometry width="50" height="50" relative="1" as="geometry">
            <mxPoint x="704" y="380" as="sourcePoint" />
            <mxPoint x="691" y="410" as="targetPoint" />
          </mxGeometry>
        </mxCell>
        <mxCell id="ZEoUcP8KCs0EKRpIArlr-72" value="" style="endArrow=none;html=1;rounded=0;" edge="1" parent="ZEoUcP8KCs0EKRpIArlr-1" source="ZEoUcP8KCs0EKRpIArlr-55" target="ZEoUcP8KCs0EKRpIArlr-47">
          <mxGeometry width="50" height="50" relative="1" as="geometry">
            <mxPoint x="739" y="380" as="sourcePoint" />
            <mxPoint x="752" y="410" as="targetPoint" />
          </mxGeometry>
        </mxCell>
        <mxCell id="ZEoUcP8KCs0EKRpIArlr-73" value="" style="endArrow=none;html=1;rounded=0;" edge="1" parent="ZEoUcP8KCs0EKRpIArlr-1" source="ZEoUcP8KCs0EKRpIArlr-55" target="ZEoUcP8KCs0EKRpIArlr-43">
          <mxGeometry width="50" height="50" relative="1" as="geometry">
            <mxPoint x="661" y="270" as="sourcePoint" />
            <mxPoint x="687" y="300" as="targetPoint" />
          </mxGeometry>
        </mxCell>
        <mxCell id="ZEoUcP8KCs0EKRpIArlr-74" value="" style="endArrow=none;html=1;rounded=0;" edge="1" parent="ZEoUcP8KCs0EKRpIArlr-1" source="ZEoUcP8KCs0EKRpIArlr-51" target="ZEoUcP8KCs0EKRpIArlr-39">
          <mxGeometry width="50" height="50" relative="1" as="geometry">
            <mxPoint x="591" y="270" as="sourcePoint" />
            <mxPoint x="564" y="300" as="targetPoint" />
          </mxGeometry>
        </mxCell>
        <mxCell id="ZEoUcP8KCs0EKRpIArlr-75" value="" style="endArrow=none;html=1;rounded=0;" edge="1" parent="ZEoUcP8KCs0EKRpIArlr-1" source="ZEoUcP8KCs0EKRpIArlr-51" target="ZEoUcP8KCs0EKRpIArlr-35">
          <mxGeometry width="50" height="50" relative="1" as="geometry">
            <mxPoint x="273" y="270" as="sourcePoint" />
            <mxPoint x="300" y="300" as="targetPoint" />
          </mxGeometry>
        </mxCell>
        <mxCell id="ZEoUcP8KCs0EKRpIArlr-76" value="" style="endArrow=none;dashed=1;html=1;dashPattern=12 12;strokeWidth=2;rounded=0;strokeColor=#FF6666;" edge="1" parent="ZEoUcP8KCs0EKRpIArlr-1">
          <mxGeometry width="50" height="50" relative="1" as="geometry">
            <mxPoint x="120" y="600" as="sourcePoint" />
            <mxPoint x="120" y="40" as="targetPoint" />
          </mxGeometry>
        </mxCell>
        <mxCell id="ZEoUcP8KCs0EKRpIArlr-77" value="" style="endArrow=none;dashed=1;html=1;dashPattern=12 12;strokeWidth=2;rounded=0;strokeColor=#FF6666;" edge="1" parent="ZEoUcP8KCs0EKRpIArlr-1">
          <mxGeometry width="50" height="50" relative="1" as="geometry">
            <mxPoint x="610" y="600" as="sourcePoint" />
            <mxPoint x="610" y="40" as="targetPoint" />
          </mxGeometry>
        </mxCell>
        <mxCell id="ZEoUcP8KCs0EKRpIArlr-78" value="&lt;font style=&quot;font-size: 20px; color: rgb(255, 102, 102);&quot;&gt;將範圍[1, 6)內的數值+10&lt;/font&gt;" style="text;html=1;align=center;verticalAlign=middle;whiteSpace=wrap;rounded=0;" vertex="1" parent="ZEoUcP8KCs0EKRpIArlr-1">
          <mxGeometry x="286" y="560" width="240" height="25" as="geometry" />
        </mxCell>
        <mxCell id="ZEoUcP8KCs0EKRpIArlr-79" value="&lt;span style=&quot;font-size: 20px;&quot;&gt;我有一共 4&lt;/span&gt;&lt;span style=&quot;color: rgb(255, 102, 102); font-size: 20px;&quot;&gt;-1=3&amp;nbsp;&lt;/span&gt;&lt;span style=&quot;font-size: 20px;&quot;&gt;個元素在更新的範圍內，我的總和要加上&lt;/span&gt;&lt;span style=&quot;color: rgb(255, 102, 102); font-size: 20px;&quot;&gt;4*10&lt;/span&gt;" style="shape=callout;whiteSpace=wrap;html=1;perimeter=calloutPerimeter;fillColor=#d5e8d4;strokeColor=#82b366;position2=1;" vertex="1" parent="ZEoUcP8KCs0EKRpIArlr-1">
          <mxGeometry x="-260" y="160" width="300" height="80" as="geometry" />
        </mxCell>
        <mxCell id="GfKnq17Mjb7XfpvgpKwf-0" value="&lt;span style=&quot;font-size: 20px;&quot;&gt;我有一共 &lt;/span&gt;&lt;span style=&quot;color: rgb(255, 102, 102); font-size: 20px;&quot;&gt;6-&lt;span style=&quot;color: rgb(0, 0, 0);&quot;&gt;4&lt;/span&gt;=2&amp;nbsp;&lt;/span&gt;&lt;span style=&quot;font-size: 20px;&quot;&gt;個元素在更新的範圍內，我的總和要加上&lt;/span&gt;&lt;span style=&quot;color: rgb(255, 102, 102); font-size: 20px;&quot;&gt;2*10&lt;/span&gt;" style="shape=callout;whiteSpace=wrap;html=1;perimeter=calloutPerimeter;fillColor=#d5e8d4;strokeColor=#82b366;position2=0;" vertex="1" parent="ZEoUcP8KCs0EKRpIArlr-1">
          <mxGeometry x="804" y="160" width="326" height="80" as="geometry" />
        </mxCell>
        <mxCell id="VsFhnR2XhkwdZWQ7kP52-0" value="&lt;span style=&quot;color: rgb(255, 102, 102); font-size: 20px;&quot;&gt;[1&lt;/span&gt;" style="text;html=1;align=center;verticalAlign=middle;whiteSpace=wrap;rounded=0;" vertex="1" parent="ZEoUcP8KCs0EKRpIArlr-1">
          <mxGeometry x="90" y="600" width="60" height="30" as="geometry" />
        </mxCell>
        <mxCell id="VsFhnR2XhkwdZWQ7kP52-1" value="&lt;span style=&quot;color: rgb(255, 102, 102); font-size: 20px;&quot;&gt;6)&lt;/span&gt;" style="text;html=1;align=center;verticalAlign=middle;whiteSpace=wrap;rounded=0;" vertex="1" parent="ZEoUcP8KCs0EKRpIArlr-1">
          <mxGeometry x="580" y="600" width="60" height="30" as="geometry" />
        </mxCell>
      </root>
    </mxGraphModel>
  </diagram>
  <diagram name="update4" id="wnO2bG549oqPgHj_sZ4e">
    <mxGraphModel dx="1428" dy="743" grid="1" gridSize="10" guides="1" tooltips="1" connect="1" arrows="1" fold="1" page="1" pageScale="1" pageWidth="827" pageHeight="1169" math="0" shadow="0">
      <root>
        <mxCell id="T0r4GpdQqcXM6x7xD-fo-0" />
        <mxCell id="T0r4GpdQqcXM6x7xD-fo-1" parent="T0r4GpdQqcXM6x7xD-fo-0" />
        <mxCell id="T0r4GpdQqcXM6x7xD-fo-2" value="" style="group" vertex="1" connectable="0" parent="T0r4GpdQqcXM6x7xD-fo-1">
          <mxGeometry x="40" y="400" width="80" height="80" as="geometry" />
        </mxCell>
        <mxCell id="T0r4GpdQqcXM6x7xD-fo-3" value="" style="rounded=0;whiteSpace=wrap;html=1;" vertex="1" parent="T0r4GpdQqcXM6x7xD-fo-2">
          <mxGeometry width="80" height="80" as="geometry" />
        </mxCell>
        <mxCell id="T0r4GpdQqcXM6x7xD-fo-4" value="&lt;font style=&quot;font-size: 24px;&quot;&gt;9&lt;/font&gt;" style="text;html=1;align=center;verticalAlign=middle;whiteSpace=wrap;rounded=0;" vertex="1" parent="T0r4GpdQqcXM6x7xD-fo-2">
          <mxGeometry x="17.5" y="25" width="45" height="30" as="geometry" />
        </mxCell>
        <mxCell id="T0r4GpdQqcXM6x7xD-fo-5" value="&lt;font style=&quot;font-size: 14px;&quot;&gt;[0]&lt;/font&gt;" style="text;html=1;align=center;verticalAlign=middle;whiteSpace=wrap;rounded=0;" vertex="1" parent="T0r4GpdQqcXM6x7xD-fo-2">
          <mxGeometry x="30" y="60" width="50" height="20" as="geometry" />
        </mxCell>
        <mxCell id="T0r4GpdQqcXM6x7xD-fo-6" value="" style="group" vertex="1" connectable="0" parent="T0r4GpdQqcXM6x7xD-fo-1">
          <mxGeometry x="137" y="400" width="80" height="80" as="geometry" />
        </mxCell>
        <mxCell id="T0r4GpdQqcXM6x7xD-fo-7" value="" style="rounded=0;whiteSpace=wrap;html=1;" vertex="1" parent="T0r4GpdQqcXM6x7xD-fo-6">
          <mxGeometry width="80" height="80" as="geometry" />
        </mxCell>
        <mxCell id="T0r4GpdQqcXM6x7xD-fo-8" value="&lt;font style=&quot;font-size: 24px;&quot;&gt;27&lt;/font&gt;" style="text;html=1;align=center;verticalAlign=middle;whiteSpace=wrap;rounded=0;" vertex="1" parent="T0r4GpdQqcXM6x7xD-fo-6">
          <mxGeometry x="17.5" y="25" width="45" height="30" as="geometry" />
        </mxCell>
        <mxCell id="T0r4GpdQqcXM6x7xD-fo-9" value="&lt;font style=&quot;font-size: 14px;&quot;&gt;[1]&lt;/font&gt;" style="text;html=1;align=center;verticalAlign=middle;whiteSpace=wrap;rounded=0;" vertex="1" parent="T0r4GpdQqcXM6x7xD-fo-6">
          <mxGeometry x="30" y="60" width="50" height="20" as="geometry" />
        </mxCell>
        <mxCell id="T0r4GpdQqcXM6x7xD-fo-10" value="" style="group" vertex="1" connectable="0" parent="T0r4GpdQqcXM6x7xD-fo-1">
          <mxGeometry x="234" y="400" width="80" height="80" as="geometry" />
        </mxCell>
        <mxCell id="T0r4GpdQqcXM6x7xD-fo-11" value="" style="rounded=0;whiteSpace=wrap;html=1;" vertex="1" parent="T0r4GpdQqcXM6x7xD-fo-10">
          <mxGeometry width="80" height="80" as="geometry" />
        </mxCell>
        <mxCell id="T0r4GpdQqcXM6x7xD-fo-12" value="&lt;font style=&quot;font-size: 24px;&quot;&gt;12&lt;/font&gt;" style="text;html=1;align=center;verticalAlign=middle;whiteSpace=wrap;rounded=0;" vertex="1" parent="T0r4GpdQqcXM6x7xD-fo-10">
          <mxGeometry x="17.5" y="25" width="45" height="30" as="geometry" />
        </mxCell>
        <mxCell id="T0r4GpdQqcXM6x7xD-fo-13" value="&lt;font style=&quot;font-size: 14px;&quot;&gt;[2]&lt;/font&gt;" style="text;html=1;align=center;verticalAlign=middle;whiteSpace=wrap;rounded=0;" vertex="1" parent="T0r4GpdQqcXM6x7xD-fo-10">
          <mxGeometry x="30" y="60" width="50" height="20" as="geometry" />
        </mxCell>
        <mxCell id="T0r4GpdQqcXM6x7xD-fo-14" value="" style="group" vertex="1" connectable="0" parent="T0r4GpdQqcXM6x7xD-fo-1">
          <mxGeometry x="331" y="400" width="80" height="80" as="geometry" />
        </mxCell>
        <mxCell id="T0r4GpdQqcXM6x7xD-fo-15" value="" style="rounded=0;whiteSpace=wrap;html=1;" vertex="1" parent="T0r4GpdQqcXM6x7xD-fo-14">
          <mxGeometry width="80" height="80" as="geometry" />
        </mxCell>
        <mxCell id="T0r4GpdQqcXM6x7xD-fo-16" value="&lt;font style=&quot;font-size: 24px;&quot;&gt;5&lt;/font&gt;" style="text;html=1;align=center;verticalAlign=middle;whiteSpace=wrap;rounded=0;" vertex="1" parent="T0r4GpdQqcXM6x7xD-fo-14">
          <mxGeometry x="17.5" y="25" width="45" height="30" as="geometry" />
        </mxCell>
        <mxCell id="T0r4GpdQqcXM6x7xD-fo-17" value="&lt;font style=&quot;font-size: 14px;&quot;&gt;[3]&lt;/font&gt;" style="text;html=1;align=center;verticalAlign=middle;whiteSpace=wrap;rounded=0;" vertex="1" parent="T0r4GpdQqcXM6x7xD-fo-14">
          <mxGeometry x="30" y="60" width="50" height="20" as="geometry" />
        </mxCell>
        <mxCell id="T0r4GpdQqcXM6x7xD-fo-18" value="" style="group" vertex="1" connectable="0" parent="T0r4GpdQqcXM6x7xD-fo-1">
          <mxGeometry x="429" y="400" width="80" height="80" as="geometry" />
        </mxCell>
        <mxCell id="T0r4GpdQqcXM6x7xD-fo-19" value="" style="rounded=0;whiteSpace=wrap;html=1;" vertex="1" parent="T0r4GpdQqcXM6x7xD-fo-18">
          <mxGeometry width="80" height="80" as="geometry" />
        </mxCell>
        <mxCell id="T0r4GpdQqcXM6x7xD-fo-20" value="&lt;span style=&quot;font-size: 24px;&quot;&gt;14&lt;/span&gt;" style="text;html=1;align=center;verticalAlign=middle;whiteSpace=wrap;rounded=0;" vertex="1" parent="T0r4GpdQqcXM6x7xD-fo-18">
          <mxGeometry x="17.5" y="25" width="45" height="30" as="geometry" />
        </mxCell>
        <mxCell id="T0r4GpdQqcXM6x7xD-fo-21" value="&lt;font style=&quot;font-size: 14px;&quot;&gt;[4]&lt;/font&gt;" style="text;html=1;align=center;verticalAlign=middle;whiteSpace=wrap;rounded=0;" vertex="1" parent="T0r4GpdQqcXM6x7xD-fo-18">
          <mxGeometry x="30" y="60" width="50" height="20" as="geometry" />
        </mxCell>
        <mxCell id="T0r4GpdQqcXM6x7xD-fo-22" value="" style="group" vertex="1" connectable="0" parent="T0r4GpdQqcXM6x7xD-fo-1">
          <mxGeometry x="526" y="400" width="80" height="80" as="geometry" />
        </mxCell>
        <mxCell id="T0r4GpdQqcXM6x7xD-fo-23" value="" style="rounded=0;whiteSpace=wrap;html=1;" vertex="1" parent="T0r4GpdQqcXM6x7xD-fo-22">
          <mxGeometry width="80" height="80" as="geometry" />
        </mxCell>
        <mxCell id="T0r4GpdQqcXM6x7xD-fo-24" value="&lt;font style=&quot;font-size: 24px;&quot;&gt;41&lt;/font&gt;" style="text;html=1;align=center;verticalAlign=middle;whiteSpace=wrap;rounded=0;" vertex="1" parent="T0r4GpdQqcXM6x7xD-fo-22">
          <mxGeometry x="17.5" y="25" width="45" height="30" as="geometry" />
        </mxCell>
        <mxCell id="T0r4GpdQqcXM6x7xD-fo-25" value="&lt;font style=&quot;font-size: 14px;&quot;&gt;[5]&lt;/font&gt;" style="text;html=1;align=center;verticalAlign=middle;whiteSpace=wrap;rounded=0;" vertex="1" parent="T0r4GpdQqcXM6x7xD-fo-22">
          <mxGeometry x="30" y="60" width="50" height="20" as="geometry" />
        </mxCell>
        <mxCell id="T0r4GpdQqcXM6x7xD-fo-26" value="" style="group" vertex="1" connectable="0" parent="T0r4GpdQqcXM6x7xD-fo-1">
          <mxGeometry x="623" y="400" width="80" height="80" as="geometry" />
        </mxCell>
        <mxCell id="T0r4GpdQqcXM6x7xD-fo-27" value="" style="rounded=0;whiteSpace=wrap;html=1;" vertex="1" parent="T0r4GpdQqcXM6x7xD-fo-26">
          <mxGeometry width="80" height="80" as="geometry" />
        </mxCell>
        <mxCell id="T0r4GpdQqcXM6x7xD-fo-28" value="&lt;span style=&quot;font-size: 24px;&quot;&gt;42&lt;/span&gt;" style="text;html=1;align=center;verticalAlign=middle;whiteSpace=wrap;rounded=0;" vertex="1" parent="T0r4GpdQqcXM6x7xD-fo-26">
          <mxGeometry x="17.5" y="25" width="45" height="30" as="geometry" />
        </mxCell>
        <mxCell id="T0r4GpdQqcXM6x7xD-fo-29" value="&lt;font style=&quot;font-size: 14px;&quot;&gt;[6]&lt;/font&gt;" style="text;html=1;align=center;verticalAlign=middle;whiteSpace=wrap;rounded=0;" vertex="1" parent="T0r4GpdQqcXM6x7xD-fo-26">
          <mxGeometry x="30" y="60" width="50" height="20" as="geometry" />
        </mxCell>
        <mxCell id="T0r4GpdQqcXM6x7xD-fo-30" value="" style="group" vertex="1" connectable="0" parent="T0r4GpdQqcXM6x7xD-fo-1">
          <mxGeometry x="720" y="400" width="80" height="80" as="geometry" />
        </mxCell>
        <mxCell id="T0r4GpdQqcXM6x7xD-fo-31" value="" style="rounded=0;whiteSpace=wrap;html=1;" vertex="1" parent="T0r4GpdQqcXM6x7xD-fo-30">
          <mxGeometry width="80" height="80" as="geometry" />
        </mxCell>
        <mxCell id="T0r4GpdQqcXM6x7xD-fo-32" value="&lt;font style=&quot;font-size: 24px;&quot;&gt;75&lt;/font&gt;" style="text;html=1;align=center;verticalAlign=middle;whiteSpace=wrap;rounded=0;" vertex="1" parent="T0r4GpdQqcXM6x7xD-fo-30">
          <mxGeometry x="17.5" y="25" width="45" height="30" as="geometry" />
        </mxCell>
        <mxCell id="T0r4GpdQqcXM6x7xD-fo-33" value="&lt;font style=&quot;font-size: 14px;&quot;&gt;[7]&lt;/font&gt;" style="text;html=1;align=center;verticalAlign=middle;whiteSpace=wrap;rounded=0;" vertex="1" parent="T0r4GpdQqcXM6x7xD-fo-30">
          <mxGeometry x="30" y="60" width="50" height="20" as="geometry" />
        </mxCell>
        <mxCell id="T0r4GpdQqcXM6x7xD-fo-34" value="" style="group" vertex="1" connectable="0" parent="T0r4GpdQqcXM6x7xD-fo-1">
          <mxGeometry x="40" y="290" width="177" height="80" as="geometry" />
        </mxCell>
        <mxCell id="T0r4GpdQqcXM6x7xD-fo-35" value="" style="rounded=0;whiteSpace=wrap;html=1;fillColor=#fff2cc;strokeColor=#d6b656;" vertex="1" parent="T0r4GpdQqcXM6x7xD-fo-34">
          <mxGeometry width="177" height="80" as="geometry" />
        </mxCell>
        <mxCell id="T0r4GpdQqcXM6x7xD-fo-36" value="&lt;font style=&quot;font-size: 24px;&quot;&gt;36&lt;/font&gt;" style="text;html=1;align=center;verticalAlign=middle;whiteSpace=wrap;rounded=0;" vertex="1" parent="T0r4GpdQqcXM6x7xD-fo-34">
          <mxGeometry x="38.71875" y="25" width="99.56250000000001" height="30" as="geometry" />
        </mxCell>
        <mxCell id="T0r4GpdQqcXM6x7xD-fo-37" value="&lt;font style=&quot;font-size: 14px;&quot;&gt;[0, 2)&lt;/font&gt;" style="text;html=1;align=center;verticalAlign=middle;whiteSpace=wrap;rounded=0;" vertex="1" parent="T0r4GpdQqcXM6x7xD-fo-34">
          <mxGeometry x="110" y="60" width="67" height="20" as="geometry" />
        </mxCell>
        <mxCell id="T0r4GpdQqcXM6x7xD-fo-38" value="" style="group;fillColor=#fa6800;fontColor=#000000;strokeColor=#C73500;" vertex="1" connectable="0" parent="T0r4GpdQqcXM6x7xD-fo-1">
          <mxGeometry x="237" y="290" width="177" height="80" as="geometry" />
        </mxCell>
        <mxCell id="T0r4GpdQqcXM6x7xD-fo-39" value="" style="rounded=0;whiteSpace=wrap;html=1;fillColor=#ffe6cc;strokeColor=#d79b00;" vertex="1" parent="T0r4GpdQqcXM6x7xD-fo-38">
          <mxGeometry width="177" height="80" as="geometry" />
        </mxCell>
        <mxCell id="T0r4GpdQqcXM6x7xD-fo-40" value="&lt;font style=&quot;font-size: 24px;&quot;&gt;17&lt;/font&gt;" style="text;html=1;align=center;verticalAlign=middle;whiteSpace=wrap;rounded=0;" vertex="1" parent="T0r4GpdQqcXM6x7xD-fo-38">
          <mxGeometry x="38.71875" y="25" width="99.56250000000001" height="30" as="geometry" />
        </mxCell>
        <mxCell id="T0r4GpdQqcXM6x7xD-fo-41" value="&lt;font style=&quot;font-size: 14px;&quot;&gt;[2, 4)&lt;/font&gt;" style="text;html=1;align=center;verticalAlign=middle;whiteSpace=wrap;rounded=0;" vertex="1" parent="T0r4GpdQqcXM6x7xD-fo-38">
          <mxGeometry x="110" y="60" width="67" height="20" as="geometry" />
        </mxCell>
        <mxCell id="T0r4GpdQqcXM6x7xD-fo-42" value="" style="group" vertex="1" connectable="0" parent="T0r4GpdQqcXM6x7xD-fo-1">
          <mxGeometry x="429" y="290" width="177" height="80" as="geometry" />
        </mxCell>
        <mxCell id="T0r4GpdQqcXM6x7xD-fo-43" value="" style="rounded=0;whiteSpace=wrap;html=1;fillColor=#ffe6cc;strokeColor=#d79b00;" vertex="1" parent="T0r4GpdQqcXM6x7xD-fo-42">
          <mxGeometry width="177" height="80" as="geometry" />
        </mxCell>
        <mxCell id="T0r4GpdQqcXM6x7xD-fo-44" value="&lt;font style=&quot;font-size: 24px;&quot;&gt;55&lt;/font&gt;" style="text;html=1;align=center;verticalAlign=middle;whiteSpace=wrap;rounded=0;" vertex="1" parent="T0r4GpdQqcXM6x7xD-fo-42">
          <mxGeometry x="38.71875" y="25" width="99.56250000000001" height="30" as="geometry" />
        </mxCell>
        <mxCell id="T0r4GpdQqcXM6x7xD-fo-45" value="&lt;font style=&quot;font-size: 14px;&quot;&gt;[4, 6)&lt;/font&gt;" style="text;html=1;align=center;verticalAlign=middle;whiteSpace=wrap;rounded=0;" vertex="1" parent="T0r4GpdQqcXM6x7xD-fo-42">
          <mxGeometry x="110" y="60" width="67" height="20" as="geometry" />
        </mxCell>
        <mxCell id="T0r4GpdQqcXM6x7xD-fo-46" value="" style="group" vertex="1" connectable="0" parent="T0r4GpdQqcXM6x7xD-fo-1">
          <mxGeometry x="623" y="290" width="177" height="80" as="geometry" />
        </mxCell>
        <mxCell id="T0r4GpdQqcXM6x7xD-fo-47" value="" style="rounded=0;whiteSpace=wrap;html=1;" vertex="1" parent="T0r4GpdQqcXM6x7xD-fo-46">
          <mxGeometry width="177" height="80" as="geometry" />
        </mxCell>
        <mxCell id="T0r4GpdQqcXM6x7xD-fo-48" value="&lt;font style=&quot;font-size: 24px;&quot;&gt;117&lt;/font&gt;" style="text;html=1;align=center;verticalAlign=middle;whiteSpace=wrap;rounded=0;" vertex="1" parent="T0r4GpdQqcXM6x7xD-fo-46">
          <mxGeometry x="38.71875" y="25" width="99.56250000000001" height="30" as="geometry" />
        </mxCell>
        <mxCell id="T0r4GpdQqcXM6x7xD-fo-49" value="&lt;font style=&quot;font-size: 14px;&quot;&gt;[6, 8)&lt;/font&gt;" style="text;html=1;align=center;verticalAlign=middle;whiteSpace=wrap;rounded=0;" vertex="1" parent="T0r4GpdQqcXM6x7xD-fo-46">
          <mxGeometry x="110" y="60" width="67" height="20" as="geometry" />
        </mxCell>
        <mxCell id="T0r4GpdQqcXM6x7xD-fo-50" value="" style="group;fillColor=#fff2cc;strokeColor=#d6b656;" vertex="1" connectable="0" parent="T0r4GpdQqcXM6x7xD-fo-1">
          <mxGeometry x="40" y="180" width="374" height="80" as="geometry" />
        </mxCell>
        <mxCell id="T0r4GpdQqcXM6x7xD-fo-51" value="" style="rounded=0;whiteSpace=wrap;html=1;fillColor=#647687;strokeColor=#314354;fontColor=#ffffff;" vertex="1" parent="T0r4GpdQqcXM6x7xD-fo-50">
          <mxGeometry width="374.00000000000006" height="80" as="geometry" />
        </mxCell>
        <mxCell id="T0r4GpdQqcXM6x7xD-fo-52" value="&lt;span style=&quot;font-size: 24px;&quot;&gt;83&lt;/span&gt;" style="text;html=1;align=center;verticalAlign=middle;whiteSpace=wrap;rounded=0;" vertex="1" parent="T0r4GpdQqcXM6x7xD-fo-50">
          <mxGeometry x="81.8125" y="25" width="210.37500000000006" height="30" as="geometry" />
        </mxCell>
        <mxCell id="T0r4GpdQqcXM6x7xD-fo-53" value="&lt;font style=&quot;font-size: 14px;&quot;&gt;[0, 4)&lt;/font&gt;" style="text;html=1;align=center;verticalAlign=middle;whiteSpace=wrap;rounded=0;" vertex="1" parent="T0r4GpdQqcXM6x7xD-fo-50">
          <mxGeometry x="232.42937853107344" y="60" width="141.57062146892656" height="20" as="geometry" />
        </mxCell>
        <mxCell id="T0r4GpdQqcXM6x7xD-fo-54" value="" style="group" vertex="1" connectable="0" parent="T0r4GpdQqcXM6x7xD-fo-1">
          <mxGeometry x="430" y="180" width="374" height="80" as="geometry" />
        </mxCell>
        <mxCell id="T0r4GpdQqcXM6x7xD-fo-55" value="" style="rounded=0;whiteSpace=wrap;html=1;fillColor=#647687;strokeColor=#314354;fontColor=#ffffff;" vertex="1" parent="T0r4GpdQqcXM6x7xD-fo-54">
          <mxGeometry width="374.00000000000006" height="80" as="geometry" />
        </mxCell>
        <mxCell id="T0r4GpdQqcXM6x7xD-fo-56" value="&lt;span style=&quot;font-size: 24px;&quot;&gt;192&lt;/span&gt;" style="text;html=1;align=center;verticalAlign=middle;whiteSpace=wrap;rounded=0;" vertex="1" parent="T0r4GpdQqcXM6x7xD-fo-54">
          <mxGeometry x="81.8125" y="25" width="210.37500000000006" height="30" as="geometry" />
        </mxCell>
        <mxCell id="T0r4GpdQqcXM6x7xD-fo-57" value="&lt;font style=&quot;font-size: 14px;&quot;&gt;[4, 8)&lt;/font&gt;" style="text;html=1;align=center;verticalAlign=middle;whiteSpace=wrap;rounded=0;" vertex="1" parent="T0r4GpdQqcXM6x7xD-fo-54">
          <mxGeometry x="232.42937853107344" y="60" width="141.57062146892656" height="20" as="geometry" />
        </mxCell>
        <mxCell id="T0r4GpdQqcXM6x7xD-fo-58" value="" style="group;fillColor=#fff2cc;strokeColor=#d6b656;" vertex="1" connectable="0" parent="T0r4GpdQqcXM6x7xD-fo-1">
          <mxGeometry x="40" y="60" width="760" height="80" as="geometry" />
        </mxCell>
        <mxCell id="T0r4GpdQqcXM6x7xD-fo-59" value="" style="rounded=0;whiteSpace=wrap;html=1;fillColor=#647687;strokeColor=#314354;fontColor=#ffffff;" vertex="1" parent="T0r4GpdQqcXM6x7xD-fo-58">
          <mxGeometry width="760.0000000000001" height="80" as="geometry" />
        </mxCell>
        <mxCell id="T0r4GpdQqcXM6x7xD-fo-60" value="&lt;span style=&quot;font-size: 24px;&quot;&gt;275&lt;/span&gt;" style="text;html=1;align=center;verticalAlign=middle;whiteSpace=wrap;rounded=0;" vertex="1" parent="T0r4GpdQqcXM6x7xD-fo-58">
          <mxGeometry x="166.25" y="25" width="427.50000000000017" height="30" as="geometry" />
        </mxCell>
        <mxCell id="T0r4GpdQqcXM6x7xD-fo-61" value="&lt;font style=&quot;font-size: 14px;&quot;&gt;[0, 8)&lt;/font&gt;" style="text;html=1;align=center;verticalAlign=middle;whiteSpace=wrap;rounded=0;" vertex="1" parent="T0r4GpdQqcXM6x7xD-fo-58">
          <mxGeometry x="472.316384180791" y="60" width="287.6836158192091" height="20" as="geometry" />
        </mxCell>
        <mxCell id="T0r4GpdQqcXM6x7xD-fo-62" value="" style="endArrow=none;html=1;rounded=0;" edge="1" parent="T0r4GpdQqcXM6x7xD-fo-1" source="T0r4GpdQqcXM6x7xD-fo-59" target="T0r4GpdQqcXM6x7xD-fo-55">
          <mxGeometry width="50" height="50" relative="1" as="geometry">
            <mxPoint x="479.99727272727273" y="140" as="sourcePoint" />
            <mxPoint x="621.27" y="70" as="targetPoint" />
          </mxGeometry>
        </mxCell>
        <mxCell id="T0r4GpdQqcXM6x7xD-fo-63" value="" style="endArrow=none;html=1;rounded=0;" edge="1" parent="T0r4GpdQqcXM6x7xD-fo-1" source="T0r4GpdQqcXM6x7xD-fo-59" target="T0r4GpdQqcXM6x7xD-fo-51">
          <mxGeometry width="50" height="50" relative="1" as="geometry">
            <mxPoint x="496" y="150" as="sourcePoint" />
            <mxPoint x="561" y="190" as="targetPoint" />
          </mxGeometry>
        </mxCell>
        <mxCell id="T0r4GpdQqcXM6x7xD-fo-64" value="" style="endArrow=none;html=1;rounded=0;" edge="1" parent="T0r4GpdQqcXM6x7xD-fo-1" source="T0r4GpdQqcXM6x7xD-fo-35" target="T0r4GpdQqcXM6x7xD-fo-3">
          <mxGeometry width="50" height="50" relative="1" as="geometry">
            <mxPoint x="366" y="150" as="sourcePoint" />
            <mxPoint x="301" y="190" as="targetPoint" />
          </mxGeometry>
        </mxCell>
        <mxCell id="T0r4GpdQqcXM6x7xD-fo-65" value="" style="endArrow=none;html=1;rounded=0;" edge="1" parent="T0r4GpdQqcXM6x7xD-fo-1" source="T0r4GpdQqcXM6x7xD-fo-35" target="T0r4GpdQqcXM6x7xD-fo-7">
          <mxGeometry width="50" height="50" relative="1" as="geometry">
            <mxPoint x="121" y="380" as="sourcePoint" />
            <mxPoint x="108" y="410" as="targetPoint" />
          </mxGeometry>
        </mxCell>
        <mxCell id="T0r4GpdQqcXM6x7xD-fo-66" value="" style="endArrow=none;html=1;rounded=0;" edge="1" parent="T0r4GpdQqcXM6x7xD-fo-1" source="T0r4GpdQqcXM6x7xD-fo-39" target="T0r4GpdQqcXM6x7xD-fo-11">
          <mxGeometry width="50" height="50" relative="1" as="geometry">
            <mxPoint x="156" y="380" as="sourcePoint" />
            <mxPoint x="169" y="410" as="targetPoint" />
          </mxGeometry>
        </mxCell>
        <mxCell id="T0r4GpdQqcXM6x7xD-fo-67" value="" style="endArrow=none;html=1;rounded=0;" edge="1" parent="T0r4GpdQqcXM6x7xD-fo-1" source="T0r4GpdQqcXM6x7xD-fo-39" target="T0r4GpdQqcXM6x7xD-fo-15">
          <mxGeometry width="50" height="50" relative="1" as="geometry">
            <mxPoint x="317" y="380" as="sourcePoint" />
            <mxPoint x="303" y="410" as="targetPoint" />
          </mxGeometry>
        </mxCell>
        <mxCell id="T0r4GpdQqcXM6x7xD-fo-68" value="" style="endArrow=none;html=1;rounded=0;" edge="1" parent="T0r4GpdQqcXM6x7xD-fo-1" source="T0r4GpdQqcXM6x7xD-fo-43" target="T0r4GpdQqcXM6x7xD-fo-19">
          <mxGeometry width="50" height="50" relative="1" as="geometry">
            <mxPoint x="352" y="380" as="sourcePoint" />
            <mxPoint x="364" y="410" as="targetPoint" />
          </mxGeometry>
        </mxCell>
        <mxCell id="T0r4GpdQqcXM6x7xD-fo-69" value="" style="endArrow=none;html=1;rounded=0;" edge="1" parent="T0r4GpdQqcXM6x7xD-fo-1" source="T0r4GpdQqcXM6x7xD-fo-43" target="T0r4GpdQqcXM6x7xD-fo-23">
          <mxGeometry width="50" height="50" relative="1" as="geometry">
            <mxPoint x="510" y="380" as="sourcePoint" />
            <mxPoint x="497" y="410" as="targetPoint" />
          </mxGeometry>
        </mxCell>
        <mxCell id="T0r4GpdQqcXM6x7xD-fo-70" value="" style="endArrow=none;html=1;rounded=0;" edge="1" parent="T0r4GpdQqcXM6x7xD-fo-1" source="T0r4GpdQqcXM6x7xD-fo-47" target="T0r4GpdQqcXM6x7xD-fo-27">
          <mxGeometry width="50" height="50" relative="1" as="geometry">
            <mxPoint x="545" y="380" as="sourcePoint" />
            <mxPoint x="558" y="410" as="targetPoint" />
          </mxGeometry>
        </mxCell>
        <mxCell id="T0r4GpdQqcXM6x7xD-fo-71" value="" style="endArrow=none;html=1;rounded=0;" edge="1" parent="T0r4GpdQqcXM6x7xD-fo-1" source="T0r4GpdQqcXM6x7xD-fo-47" target="T0r4GpdQqcXM6x7xD-fo-31">
          <mxGeometry width="50" height="50" relative="1" as="geometry">
            <mxPoint x="704" y="380" as="sourcePoint" />
            <mxPoint x="691" y="410" as="targetPoint" />
          </mxGeometry>
        </mxCell>
        <mxCell id="T0r4GpdQqcXM6x7xD-fo-72" value="" style="endArrow=none;html=1;rounded=0;" edge="1" parent="T0r4GpdQqcXM6x7xD-fo-1" source="T0r4GpdQqcXM6x7xD-fo-55" target="T0r4GpdQqcXM6x7xD-fo-47">
          <mxGeometry width="50" height="50" relative="1" as="geometry">
            <mxPoint x="739" y="380" as="sourcePoint" />
            <mxPoint x="752" y="410" as="targetPoint" />
          </mxGeometry>
        </mxCell>
        <mxCell id="T0r4GpdQqcXM6x7xD-fo-73" value="" style="endArrow=none;html=1;rounded=0;" edge="1" parent="T0r4GpdQqcXM6x7xD-fo-1" source="T0r4GpdQqcXM6x7xD-fo-55" target="T0r4GpdQqcXM6x7xD-fo-43">
          <mxGeometry width="50" height="50" relative="1" as="geometry">
            <mxPoint x="661" y="270" as="sourcePoint" />
            <mxPoint x="687" y="300" as="targetPoint" />
          </mxGeometry>
        </mxCell>
        <mxCell id="T0r4GpdQqcXM6x7xD-fo-74" value="" style="endArrow=none;html=1;rounded=0;" edge="1" parent="T0r4GpdQqcXM6x7xD-fo-1" source="T0r4GpdQqcXM6x7xD-fo-51" target="T0r4GpdQqcXM6x7xD-fo-39">
          <mxGeometry width="50" height="50" relative="1" as="geometry">
            <mxPoint x="591" y="270" as="sourcePoint" />
            <mxPoint x="564" y="300" as="targetPoint" />
          </mxGeometry>
        </mxCell>
        <mxCell id="T0r4GpdQqcXM6x7xD-fo-75" value="" style="endArrow=none;html=1;rounded=0;" edge="1" parent="T0r4GpdQqcXM6x7xD-fo-1" source="T0r4GpdQqcXM6x7xD-fo-51" target="T0r4GpdQqcXM6x7xD-fo-35">
          <mxGeometry width="50" height="50" relative="1" as="geometry">
            <mxPoint x="273" y="270" as="sourcePoint" />
            <mxPoint x="300" y="300" as="targetPoint" />
          </mxGeometry>
        </mxCell>
        <mxCell id="T0r4GpdQqcXM6x7xD-fo-76" value="" style="endArrow=none;dashed=1;html=1;dashPattern=12 12;strokeWidth=2;rounded=0;strokeColor=#FF6666;" edge="1" parent="T0r4GpdQqcXM6x7xD-fo-1">
          <mxGeometry width="50" height="50" relative="1" as="geometry">
            <mxPoint x="120" y="600" as="sourcePoint" />
            <mxPoint x="120" y="40" as="targetPoint" />
          </mxGeometry>
        </mxCell>
        <mxCell id="T0r4GpdQqcXM6x7xD-fo-77" value="" style="endArrow=none;dashed=1;html=1;dashPattern=12 12;strokeWidth=2;rounded=0;strokeColor=#FF6666;" edge="1" parent="T0r4GpdQqcXM6x7xD-fo-1">
          <mxGeometry width="50" height="50" relative="1" as="geometry">
            <mxPoint x="610" y="600" as="sourcePoint" />
            <mxPoint x="610" y="40" as="targetPoint" />
          </mxGeometry>
        </mxCell>
        <mxCell id="T0r4GpdQqcXM6x7xD-fo-78" value="&lt;font style=&quot;font-size: 20px; color: rgb(255, 102, 102);&quot;&gt;將範圍[1, 6)內的數值+10&lt;/font&gt;" style="text;html=1;align=center;verticalAlign=middle;whiteSpace=wrap;rounded=0;" vertex="1" parent="T0r4GpdQqcXM6x7xD-fo-1">
          <mxGeometry x="286" y="560" width="240" height="25" as="geometry" />
        </mxCell>
        <mxCell id="rYw6KhGGfVcyYqjaBJT0-0" value="&lt;span style=&quot;font-size: 20px;&quot;&gt;我&lt;font style=&quot;color: rgb(255, 128, 0);&quot;&gt;全部的&lt;/font&gt;&lt;/span&gt;&lt;span style=&quot;font-size: 20px;&quot;&gt;元素都在更新的範圍內，我的總和要加上&lt;/span&gt;&lt;span style=&quot;font-size: 20px;&quot;&gt;(6-4)*10&lt;/span&gt;" style="shape=callout;whiteSpace=wrap;html=1;perimeter=calloutPerimeter;fillColor=#d5e8d4;strokeColor=#82b366;position2=0;" vertex="1" parent="T0r4GpdQqcXM6x7xD-fo-1">
          <mxGeometry x="870" y="220" width="326" height="80" as="geometry" />
        </mxCell>
        <mxCell id="rYw6KhGGfVcyYqjaBJT0-2" value="" style="curved=1;endArrow=classic;html=1;rounded=0;fontFamily=Helvetica;fontSize=12;fontColor=default;entryX=0;entryY=0;entryDx=0;entryDy=80;entryPerimeter=0;exitX=1;exitY=0.5;exitDx=0;exitDy=0;strokeColor=#4D9900;" edge="1" parent="T0r4GpdQqcXM6x7xD-fo-1" source="T0r4GpdQqcXM6x7xD-fo-43" target="rYw6KhGGfVcyYqjaBJT0-0">
          <mxGeometry width="50" height="50" relative="1" as="geometry">
            <mxPoint x="860" y="360" as="sourcePoint" />
            <mxPoint x="910" y="310" as="targetPoint" />
            <Array as="points">
              <mxPoint x="910" y="360" />
              <mxPoint x="860" y="310" />
            </Array>
          </mxGeometry>
        </mxCell>
        <mxCell id="rYw6KhGGfVcyYqjaBJT0-3" value="&lt;font style=&quot;font-size: 20px;&quot;&gt;既然我全部的元素都在&lt;/font&gt;&lt;span style=&quot;font-size: 20px;&quot;&gt;更新的範圍內，那我小孩也一定都是這樣，所以我可以偷懶一下，先把要加的量扣留，等有人來訪問的時候再把它推還給孩子就好了&lt;/span&gt;" style="whiteSpace=wrap;html=1;shape=mxgraph.basic.cloud_callout;fillColor=#ffe6cc;strokeColor=#d79b00;align=center;verticalAlign=middle;fontFamily=Helvetica;fontSize=12;fontColor=default;" vertex="1" parent="T0r4GpdQqcXM6x7xD-fo-1">
          <mxGeometry x="920" width="334" height="220" as="geometry" />
        </mxCell>
        <mxCell id="PSw4t5rAQESV0uspp3RL-0" value="&lt;span style=&quot;color: rgb(255, 102, 102); font-size: 20px;&quot;&gt;[1&lt;/span&gt;" style="text;html=1;align=center;verticalAlign=middle;whiteSpace=wrap;rounded=0;" vertex="1" parent="T0r4GpdQqcXM6x7xD-fo-1">
          <mxGeometry x="90" y="600" width="60" height="30" as="geometry" />
        </mxCell>
        <mxCell id="PSw4t5rAQESV0uspp3RL-1" value="&lt;span style=&quot;color: rgb(255, 102, 102); font-size: 20px;&quot;&gt;6)&lt;/span&gt;" style="text;html=1;align=center;verticalAlign=middle;whiteSpace=wrap;rounded=0;" vertex="1" parent="T0r4GpdQqcXM6x7xD-fo-1">
          <mxGeometry x="580" y="600" width="60" height="30" as="geometry" />
        </mxCell>
      </root>
    </mxGraphModel>
  </diagram>
  <diagram name="update5" id="H7gm-JyHzVB1dRB_KOBX">
    <mxGraphModel dx="1428" dy="743" grid="1" gridSize="10" guides="1" tooltips="1" connect="1" arrows="1" fold="1" page="1" pageScale="1" pageWidth="827" pageHeight="1169" math="0" shadow="0">
      <root>
        <mxCell id="N8NFe8jqotjcpAg7uz2H-0" />
        <mxCell id="N8NFe8jqotjcpAg7uz2H-1" parent="N8NFe8jqotjcpAg7uz2H-0" />
        <mxCell id="N8NFe8jqotjcpAg7uz2H-2" value="" style="group" vertex="1" connectable="0" parent="N8NFe8jqotjcpAg7uz2H-1">
          <mxGeometry x="40" y="400" width="80" height="80" as="geometry" />
        </mxCell>
        <mxCell id="N8NFe8jqotjcpAg7uz2H-3" value="" style="rounded=0;whiteSpace=wrap;html=1;" vertex="1" parent="N8NFe8jqotjcpAg7uz2H-2">
          <mxGeometry width="80" height="80" as="geometry" />
        </mxCell>
        <mxCell id="N8NFe8jqotjcpAg7uz2H-4" value="&lt;font style=&quot;font-size: 24px;&quot;&gt;9&lt;/font&gt;" style="text;html=1;align=center;verticalAlign=middle;whiteSpace=wrap;rounded=0;" vertex="1" parent="N8NFe8jqotjcpAg7uz2H-2">
          <mxGeometry x="17.5" y="25" width="45" height="30" as="geometry" />
        </mxCell>
        <mxCell id="N8NFe8jqotjcpAg7uz2H-5" value="&lt;font style=&quot;font-size: 14px;&quot;&gt;[0]&lt;/font&gt;" style="text;html=1;align=center;verticalAlign=middle;whiteSpace=wrap;rounded=0;" vertex="1" parent="N8NFe8jqotjcpAg7uz2H-2">
          <mxGeometry x="30" y="60" width="50" height="20" as="geometry" />
        </mxCell>
        <mxCell id="N8NFe8jqotjcpAg7uz2H-6" value="" style="group;fillColor=#fff2cc;strokeColor=#d6b656;" vertex="1" connectable="0" parent="N8NFe8jqotjcpAg7uz2H-1">
          <mxGeometry x="137" y="400" width="80" height="80" as="geometry" />
        </mxCell>
        <mxCell id="N8NFe8jqotjcpAg7uz2H-7" value="" style="rounded=0;whiteSpace=wrap;html=1;fillColor=#fff2cc;strokeColor=#d6b656;" vertex="1" parent="N8NFe8jqotjcpAg7uz2H-6">
          <mxGeometry width="80" height="80" as="geometry" />
        </mxCell>
        <mxCell id="N8NFe8jqotjcpAg7uz2H-8" value="&lt;font style=&quot;font-size: 24px;&quot;&gt;27&lt;/font&gt;" style="text;html=1;align=center;verticalAlign=middle;whiteSpace=wrap;rounded=0;" vertex="1" parent="N8NFe8jqotjcpAg7uz2H-6">
          <mxGeometry x="17.5" y="25" width="45" height="30" as="geometry" />
        </mxCell>
        <mxCell id="N8NFe8jqotjcpAg7uz2H-9" value="&lt;font style=&quot;font-size: 14px;&quot;&gt;[1]&lt;/font&gt;" style="text;html=1;align=center;verticalAlign=middle;whiteSpace=wrap;rounded=0;" vertex="1" parent="N8NFe8jqotjcpAg7uz2H-6">
          <mxGeometry x="30" y="60" width="50" height="20" as="geometry" />
        </mxCell>
        <mxCell id="N8NFe8jqotjcpAg7uz2H-10" value="" style="group" vertex="1" connectable="0" parent="N8NFe8jqotjcpAg7uz2H-1">
          <mxGeometry x="234" y="400" width="80" height="80" as="geometry" />
        </mxCell>
        <mxCell id="N8NFe8jqotjcpAg7uz2H-11" value="" style="rounded=0;whiteSpace=wrap;html=1;" vertex="1" parent="N8NFe8jqotjcpAg7uz2H-10">
          <mxGeometry width="80" height="80" as="geometry" />
        </mxCell>
        <mxCell id="N8NFe8jqotjcpAg7uz2H-12" value="&lt;font style=&quot;font-size: 24px;&quot;&gt;12&lt;/font&gt;" style="text;html=1;align=center;verticalAlign=middle;whiteSpace=wrap;rounded=0;" vertex="1" parent="N8NFe8jqotjcpAg7uz2H-10">
          <mxGeometry x="17.5" y="25" width="45" height="30" as="geometry" />
        </mxCell>
        <mxCell id="N8NFe8jqotjcpAg7uz2H-13" value="&lt;font style=&quot;font-size: 14px;&quot;&gt;[2]&lt;/font&gt;" style="text;html=1;align=center;verticalAlign=middle;whiteSpace=wrap;rounded=0;" vertex="1" parent="N8NFe8jqotjcpAg7uz2H-10">
          <mxGeometry x="30" y="60" width="50" height="20" as="geometry" />
        </mxCell>
        <mxCell id="N8NFe8jqotjcpAg7uz2H-14" value="" style="group" vertex="1" connectable="0" parent="N8NFe8jqotjcpAg7uz2H-1">
          <mxGeometry x="331" y="400" width="80" height="80" as="geometry" />
        </mxCell>
        <mxCell id="N8NFe8jqotjcpAg7uz2H-15" value="" style="rounded=0;whiteSpace=wrap;html=1;" vertex="1" parent="N8NFe8jqotjcpAg7uz2H-14">
          <mxGeometry width="80" height="80" as="geometry" />
        </mxCell>
        <mxCell id="N8NFe8jqotjcpAg7uz2H-16" value="&lt;font style=&quot;font-size: 24px;&quot;&gt;5&lt;/font&gt;" style="text;html=1;align=center;verticalAlign=middle;whiteSpace=wrap;rounded=0;" vertex="1" parent="N8NFe8jqotjcpAg7uz2H-14">
          <mxGeometry x="17.5" y="25" width="45" height="30" as="geometry" />
        </mxCell>
        <mxCell id="N8NFe8jqotjcpAg7uz2H-17" value="&lt;font style=&quot;font-size: 14px;&quot;&gt;[3]&lt;/font&gt;" style="text;html=1;align=center;verticalAlign=middle;whiteSpace=wrap;rounded=0;" vertex="1" parent="N8NFe8jqotjcpAg7uz2H-14">
          <mxGeometry x="30" y="60" width="50" height="20" as="geometry" />
        </mxCell>
        <mxCell id="N8NFe8jqotjcpAg7uz2H-18" value="" style="group" vertex="1" connectable="0" parent="N8NFe8jqotjcpAg7uz2H-1">
          <mxGeometry x="429" y="400" width="80" height="80" as="geometry" />
        </mxCell>
        <mxCell id="N8NFe8jqotjcpAg7uz2H-19" value="" style="rounded=0;whiteSpace=wrap;html=1;" vertex="1" parent="N8NFe8jqotjcpAg7uz2H-18">
          <mxGeometry width="80" height="80" as="geometry" />
        </mxCell>
        <mxCell id="N8NFe8jqotjcpAg7uz2H-20" value="&lt;span style=&quot;font-size: 24px;&quot;&gt;14&lt;/span&gt;" style="text;html=1;align=center;verticalAlign=middle;whiteSpace=wrap;rounded=0;" vertex="1" parent="N8NFe8jqotjcpAg7uz2H-18">
          <mxGeometry x="17.5" y="25" width="45" height="30" as="geometry" />
        </mxCell>
        <mxCell id="N8NFe8jqotjcpAg7uz2H-21" value="&lt;font style=&quot;font-size: 14px;&quot;&gt;[4]&lt;/font&gt;" style="text;html=1;align=center;verticalAlign=middle;whiteSpace=wrap;rounded=0;" vertex="1" parent="N8NFe8jqotjcpAg7uz2H-18">
          <mxGeometry x="30" y="60" width="50" height="20" as="geometry" />
        </mxCell>
        <mxCell id="N8NFe8jqotjcpAg7uz2H-22" value="" style="group" vertex="1" connectable="0" parent="N8NFe8jqotjcpAg7uz2H-1">
          <mxGeometry x="526" y="400" width="80" height="80" as="geometry" />
        </mxCell>
        <mxCell id="N8NFe8jqotjcpAg7uz2H-23" value="" style="rounded=0;whiteSpace=wrap;html=1;" vertex="1" parent="N8NFe8jqotjcpAg7uz2H-22">
          <mxGeometry width="80" height="80" as="geometry" />
        </mxCell>
        <mxCell id="N8NFe8jqotjcpAg7uz2H-24" value="&lt;font style=&quot;font-size: 24px;&quot;&gt;41&lt;/font&gt;" style="text;html=1;align=center;verticalAlign=middle;whiteSpace=wrap;rounded=0;" vertex="1" parent="N8NFe8jqotjcpAg7uz2H-22">
          <mxGeometry x="17.5" y="25" width="45" height="30" as="geometry" />
        </mxCell>
        <mxCell id="N8NFe8jqotjcpAg7uz2H-25" value="&lt;font style=&quot;font-size: 14px;&quot;&gt;[5]&lt;/font&gt;" style="text;html=1;align=center;verticalAlign=middle;whiteSpace=wrap;rounded=0;" vertex="1" parent="N8NFe8jqotjcpAg7uz2H-22">
          <mxGeometry x="30" y="60" width="50" height="20" as="geometry" />
        </mxCell>
        <mxCell id="N8NFe8jqotjcpAg7uz2H-26" value="" style="group" vertex="1" connectable="0" parent="N8NFe8jqotjcpAg7uz2H-1">
          <mxGeometry x="623" y="400" width="80" height="80" as="geometry" />
        </mxCell>
        <mxCell id="N8NFe8jqotjcpAg7uz2H-27" value="" style="rounded=0;whiteSpace=wrap;html=1;" vertex="1" parent="N8NFe8jqotjcpAg7uz2H-26">
          <mxGeometry width="80" height="80" as="geometry" />
        </mxCell>
        <mxCell id="N8NFe8jqotjcpAg7uz2H-28" value="&lt;span style=&quot;font-size: 24px;&quot;&gt;42&lt;/span&gt;" style="text;html=1;align=center;verticalAlign=middle;whiteSpace=wrap;rounded=0;" vertex="1" parent="N8NFe8jqotjcpAg7uz2H-26">
          <mxGeometry x="17.5" y="25" width="45" height="30" as="geometry" />
        </mxCell>
        <mxCell id="N8NFe8jqotjcpAg7uz2H-29" value="&lt;font style=&quot;font-size: 14px;&quot;&gt;[6]&lt;/font&gt;" style="text;html=1;align=center;verticalAlign=middle;whiteSpace=wrap;rounded=0;" vertex="1" parent="N8NFe8jqotjcpAg7uz2H-26">
          <mxGeometry x="30" y="60" width="50" height="20" as="geometry" />
        </mxCell>
        <mxCell id="N8NFe8jqotjcpAg7uz2H-30" value="" style="group" vertex="1" connectable="0" parent="N8NFe8jqotjcpAg7uz2H-1">
          <mxGeometry x="720" y="400" width="80" height="80" as="geometry" />
        </mxCell>
        <mxCell id="N8NFe8jqotjcpAg7uz2H-31" value="" style="rounded=0;whiteSpace=wrap;html=1;" vertex="1" parent="N8NFe8jqotjcpAg7uz2H-30">
          <mxGeometry width="80" height="80" as="geometry" />
        </mxCell>
        <mxCell id="N8NFe8jqotjcpAg7uz2H-32" value="&lt;font style=&quot;font-size: 24px;&quot;&gt;75&lt;/font&gt;" style="text;html=1;align=center;verticalAlign=middle;whiteSpace=wrap;rounded=0;" vertex="1" parent="N8NFe8jqotjcpAg7uz2H-30">
          <mxGeometry x="17.5" y="25" width="45" height="30" as="geometry" />
        </mxCell>
        <mxCell id="N8NFe8jqotjcpAg7uz2H-33" value="&lt;font style=&quot;font-size: 14px;&quot;&gt;[7]&lt;/font&gt;" style="text;html=1;align=center;verticalAlign=middle;whiteSpace=wrap;rounded=0;" vertex="1" parent="N8NFe8jqotjcpAg7uz2H-30">
          <mxGeometry x="30" y="60" width="50" height="20" as="geometry" />
        </mxCell>
        <mxCell id="N8NFe8jqotjcpAg7uz2H-34" value="" style="group;fillColor=#647687;fontColor=#ffffff;strokeColor=#314354;" vertex="1" connectable="0" parent="N8NFe8jqotjcpAg7uz2H-1">
          <mxGeometry x="40" y="290" width="177" height="80" as="geometry" />
        </mxCell>
        <mxCell id="N8NFe8jqotjcpAg7uz2H-35" value="" style="rounded=0;whiteSpace=wrap;html=1;fillColor=#647687;strokeColor=#314354;fontColor=#ffffff;" vertex="1" parent="N8NFe8jqotjcpAg7uz2H-34">
          <mxGeometry width="177" height="80" as="geometry" />
        </mxCell>
        <mxCell id="N8NFe8jqotjcpAg7uz2H-36" value="&lt;font style=&quot;font-size: 24px;&quot;&gt;46&lt;/font&gt;" style="text;html=1;align=center;verticalAlign=middle;whiteSpace=wrap;rounded=0;" vertex="1" parent="N8NFe8jqotjcpAg7uz2H-34">
          <mxGeometry x="38.71875" y="25" width="99.56250000000001" height="30" as="geometry" />
        </mxCell>
        <mxCell id="N8NFe8jqotjcpAg7uz2H-37" value="&lt;font style=&quot;font-size: 14px;&quot;&gt;[0, 2)&lt;/font&gt;" style="text;html=1;align=center;verticalAlign=middle;whiteSpace=wrap;rounded=0;" vertex="1" parent="N8NFe8jqotjcpAg7uz2H-34">
          <mxGeometry x="110" y="60" width="67" height="20" as="geometry" />
        </mxCell>
        <mxCell id="N8NFe8jqotjcpAg7uz2H-38" value="" style="group;fillColor=#fa6800;fontColor=#000000;strokeColor=#C73500;" vertex="1" connectable="0" parent="N8NFe8jqotjcpAg7uz2H-1">
          <mxGeometry x="237" y="290" width="177" height="80" as="geometry" />
        </mxCell>
        <mxCell id="N8NFe8jqotjcpAg7uz2H-39" value="" style="rounded=0;whiteSpace=wrap;html=1;fillColor=#ffe6cc;strokeColor=#d79b00;" vertex="1" parent="N8NFe8jqotjcpAg7uz2H-38">
          <mxGeometry width="177" height="80" as="geometry" />
        </mxCell>
        <mxCell id="N8NFe8jqotjcpAg7uz2H-40" value="&lt;font style=&quot;font-size: 24px;&quot;&gt;37&lt;/font&gt;" style="text;html=1;align=center;verticalAlign=middle;whiteSpace=wrap;rounded=0;" vertex="1" parent="N8NFe8jqotjcpAg7uz2H-38">
          <mxGeometry x="38.71875" y="25" width="99.56250000000001" height="30" as="geometry" />
        </mxCell>
        <mxCell id="N8NFe8jqotjcpAg7uz2H-41" value="&lt;font style=&quot;font-size: 14px;&quot;&gt;[2, 4)&lt;/font&gt;" style="text;html=1;align=center;verticalAlign=middle;whiteSpace=wrap;rounded=0;" vertex="1" parent="N8NFe8jqotjcpAg7uz2H-38">
          <mxGeometry x="110" y="60" width="67" height="20" as="geometry" />
        </mxCell>
        <mxCell id="KVzkAKxyd6EglrbsVL-6-0" value="&lt;font style=&quot;font-size: 14px;&quot;&gt;10&lt;/font&gt;" style="text;html=1;align=center;verticalAlign=middle;whiteSpace=wrap;rounded=0;fontFamily=Helvetica;fontSize=12;fontColor=default;" vertex="1" parent="N8NFe8jqotjcpAg7uz2H-38">
          <mxGeometry width="30" height="20" as="geometry" />
        </mxCell>
        <mxCell id="N8NFe8jqotjcpAg7uz2H-42" value="" style="group" vertex="1" connectable="0" parent="N8NFe8jqotjcpAg7uz2H-1">
          <mxGeometry x="429" y="290" width="177" height="80" as="geometry" />
        </mxCell>
        <mxCell id="N8NFe8jqotjcpAg7uz2H-43" value="" style="rounded=0;whiteSpace=wrap;html=1;fillColor=#ffe6cc;strokeColor=#d79b00;" vertex="1" parent="N8NFe8jqotjcpAg7uz2H-42">
          <mxGeometry width="177" height="80" as="geometry" />
        </mxCell>
        <mxCell id="N8NFe8jqotjcpAg7uz2H-44" value="&lt;font style=&quot;font-size: 24px;&quot;&gt;75&lt;/font&gt;" style="text;html=1;align=center;verticalAlign=middle;whiteSpace=wrap;rounded=0;" vertex="1" parent="N8NFe8jqotjcpAg7uz2H-42">
          <mxGeometry x="38.71875" y="25" width="99.56250000000001" height="30" as="geometry" />
        </mxCell>
        <mxCell id="N8NFe8jqotjcpAg7uz2H-45" value="&lt;font style=&quot;font-size: 14px;&quot;&gt;[4, 6)&lt;/font&gt;" style="text;html=1;align=center;verticalAlign=middle;whiteSpace=wrap;rounded=0;" vertex="1" parent="N8NFe8jqotjcpAg7uz2H-42">
          <mxGeometry x="110" y="60" width="67" height="20" as="geometry" />
        </mxCell>
        <mxCell id="KVzkAKxyd6EglrbsVL-6-3" value="&lt;font style=&quot;font-size: 14px;&quot;&gt;10&lt;/font&gt;" style="text;html=1;align=center;verticalAlign=middle;whiteSpace=wrap;rounded=0;fontFamily=Helvetica;fontSize=12;fontColor=default;" vertex="1" parent="N8NFe8jqotjcpAg7uz2H-42">
          <mxGeometry width="30" height="20" as="geometry" />
        </mxCell>
        <mxCell id="N8NFe8jqotjcpAg7uz2H-46" value="" style="group" vertex="1" connectable="0" parent="N8NFe8jqotjcpAg7uz2H-1">
          <mxGeometry x="623" y="290" width="177" height="80" as="geometry" />
        </mxCell>
        <mxCell id="N8NFe8jqotjcpAg7uz2H-47" value="" style="rounded=0;whiteSpace=wrap;html=1;" vertex="1" parent="N8NFe8jqotjcpAg7uz2H-46">
          <mxGeometry width="177" height="80" as="geometry" />
        </mxCell>
        <mxCell id="N8NFe8jqotjcpAg7uz2H-48" value="&lt;font style=&quot;font-size: 24px;&quot;&gt;117&lt;/font&gt;" style="text;html=1;align=center;verticalAlign=middle;whiteSpace=wrap;rounded=0;" vertex="1" parent="N8NFe8jqotjcpAg7uz2H-46">
          <mxGeometry x="38.71875" y="25" width="99.56250000000001" height="30" as="geometry" />
        </mxCell>
        <mxCell id="N8NFe8jqotjcpAg7uz2H-49" value="&lt;font style=&quot;font-size: 14px;&quot;&gt;[6, 8)&lt;/font&gt;" style="text;html=1;align=center;verticalAlign=middle;whiteSpace=wrap;rounded=0;" vertex="1" parent="N8NFe8jqotjcpAg7uz2H-46">
          <mxGeometry x="110" y="60" width="67" height="20" as="geometry" />
        </mxCell>
        <mxCell id="N8NFe8jqotjcpAg7uz2H-50" value="" style="group;fillColor=#fff2cc;strokeColor=#d6b656;" vertex="1" connectable="0" parent="N8NFe8jqotjcpAg7uz2H-1">
          <mxGeometry x="40" y="180" width="374" height="80" as="geometry" />
        </mxCell>
        <mxCell id="N8NFe8jqotjcpAg7uz2H-51" value="" style="rounded=0;whiteSpace=wrap;html=1;fillColor=#647687;strokeColor=#314354;fontColor=#ffffff;" vertex="1" parent="N8NFe8jqotjcpAg7uz2H-50">
          <mxGeometry width="374.00000000000006" height="80" as="geometry" />
        </mxCell>
        <mxCell id="N8NFe8jqotjcpAg7uz2H-52" value="&lt;span style=&quot;font-size: 24px;&quot;&gt;83&lt;/span&gt;" style="text;html=1;align=center;verticalAlign=middle;whiteSpace=wrap;rounded=0;" vertex="1" parent="N8NFe8jqotjcpAg7uz2H-50">
          <mxGeometry x="81.8125" y="25" width="210.37500000000006" height="30" as="geometry" />
        </mxCell>
        <mxCell id="N8NFe8jqotjcpAg7uz2H-53" value="&lt;font style=&quot;font-size: 14px;&quot;&gt;[0, 4)&lt;/font&gt;" style="text;html=1;align=center;verticalAlign=middle;whiteSpace=wrap;rounded=0;" vertex="1" parent="N8NFe8jqotjcpAg7uz2H-50">
          <mxGeometry x="232.42937853107344" y="60" width="141.57062146892656" height="20" as="geometry" />
        </mxCell>
        <mxCell id="N8NFe8jqotjcpAg7uz2H-54" value="" style="group" vertex="1" connectable="0" parent="N8NFe8jqotjcpAg7uz2H-1">
          <mxGeometry x="430" y="180" width="374" height="80" as="geometry" />
        </mxCell>
        <mxCell id="N8NFe8jqotjcpAg7uz2H-55" value="" style="rounded=0;whiteSpace=wrap;html=1;fillColor=#647687;strokeColor=#314354;fontColor=#ffffff;" vertex="1" parent="N8NFe8jqotjcpAg7uz2H-54">
          <mxGeometry width="374.00000000000006" height="80" as="geometry" />
        </mxCell>
        <mxCell id="N8NFe8jqotjcpAg7uz2H-56" value="&lt;span style=&quot;font-size: 24px;&quot;&gt;192&lt;/span&gt;" style="text;html=1;align=center;verticalAlign=middle;whiteSpace=wrap;rounded=0;" vertex="1" parent="N8NFe8jqotjcpAg7uz2H-54">
          <mxGeometry x="81.8125" y="25" width="210.37500000000006" height="30" as="geometry" />
        </mxCell>
        <mxCell id="N8NFe8jqotjcpAg7uz2H-57" value="&lt;font style=&quot;font-size: 14px;&quot;&gt;[4, 8)&lt;/font&gt;" style="text;html=1;align=center;verticalAlign=middle;whiteSpace=wrap;rounded=0;" vertex="1" parent="N8NFe8jqotjcpAg7uz2H-54">
          <mxGeometry x="232.42937853107344" y="60" width="141.57062146892656" height="20" as="geometry" />
        </mxCell>
        <mxCell id="N8NFe8jqotjcpAg7uz2H-58" value="" style="group;fillColor=#fff2cc;strokeColor=#d6b656;" vertex="1" connectable="0" parent="N8NFe8jqotjcpAg7uz2H-1">
          <mxGeometry x="40" y="60" width="760" height="80" as="geometry" />
        </mxCell>
        <mxCell id="N8NFe8jqotjcpAg7uz2H-59" value="" style="rounded=0;whiteSpace=wrap;html=1;fillColor=#647687;strokeColor=#314354;fontColor=#ffffff;" vertex="1" parent="N8NFe8jqotjcpAg7uz2H-58">
          <mxGeometry width="760.0000000000001" height="80" as="geometry" />
        </mxCell>
        <mxCell id="N8NFe8jqotjcpAg7uz2H-60" value="&lt;span style=&quot;font-size: 24px;&quot;&gt;275&lt;/span&gt;" style="text;html=1;align=center;verticalAlign=middle;whiteSpace=wrap;rounded=0;" vertex="1" parent="N8NFe8jqotjcpAg7uz2H-58">
          <mxGeometry x="166.25" y="25" width="427.50000000000017" height="30" as="geometry" />
        </mxCell>
        <mxCell id="N8NFe8jqotjcpAg7uz2H-61" value="&lt;font style=&quot;font-size: 14px;&quot;&gt;[0, 8)&lt;/font&gt;" style="text;html=1;align=center;verticalAlign=middle;whiteSpace=wrap;rounded=0;" vertex="1" parent="N8NFe8jqotjcpAg7uz2H-58">
          <mxGeometry x="472.316384180791" y="60" width="287.6836158192091" height="20" as="geometry" />
        </mxCell>
        <mxCell id="N8NFe8jqotjcpAg7uz2H-62" value="" style="endArrow=none;html=1;rounded=0;" edge="1" parent="N8NFe8jqotjcpAg7uz2H-1" source="N8NFe8jqotjcpAg7uz2H-59" target="N8NFe8jqotjcpAg7uz2H-55">
          <mxGeometry width="50" height="50" relative="1" as="geometry">
            <mxPoint x="479.99727272727273" y="140" as="sourcePoint" />
            <mxPoint x="621.27" y="70" as="targetPoint" />
          </mxGeometry>
        </mxCell>
        <mxCell id="N8NFe8jqotjcpAg7uz2H-63" value="" style="endArrow=none;html=1;rounded=0;" edge="1" parent="N8NFe8jqotjcpAg7uz2H-1" source="N8NFe8jqotjcpAg7uz2H-59" target="N8NFe8jqotjcpAg7uz2H-51">
          <mxGeometry width="50" height="50" relative="1" as="geometry">
            <mxPoint x="496" y="150" as="sourcePoint" />
            <mxPoint x="561" y="190" as="targetPoint" />
          </mxGeometry>
        </mxCell>
        <mxCell id="N8NFe8jqotjcpAg7uz2H-64" value="" style="endArrow=none;html=1;rounded=0;" edge="1" parent="N8NFe8jqotjcpAg7uz2H-1" source="N8NFe8jqotjcpAg7uz2H-35" target="N8NFe8jqotjcpAg7uz2H-3">
          <mxGeometry width="50" height="50" relative="1" as="geometry">
            <mxPoint x="366" y="150" as="sourcePoint" />
            <mxPoint x="301" y="190" as="targetPoint" />
          </mxGeometry>
        </mxCell>
        <mxCell id="N8NFe8jqotjcpAg7uz2H-65" value="" style="endArrow=none;html=1;rounded=0;" edge="1" parent="N8NFe8jqotjcpAg7uz2H-1" source="N8NFe8jqotjcpAg7uz2H-35" target="N8NFe8jqotjcpAg7uz2H-7">
          <mxGeometry width="50" height="50" relative="1" as="geometry">
            <mxPoint x="121" y="380" as="sourcePoint" />
            <mxPoint x="108" y="410" as="targetPoint" />
          </mxGeometry>
        </mxCell>
        <mxCell id="N8NFe8jqotjcpAg7uz2H-66" value="" style="endArrow=none;html=1;rounded=0;" edge="1" parent="N8NFe8jqotjcpAg7uz2H-1" source="N8NFe8jqotjcpAg7uz2H-39" target="N8NFe8jqotjcpAg7uz2H-11">
          <mxGeometry width="50" height="50" relative="1" as="geometry">
            <mxPoint x="156" y="380" as="sourcePoint" />
            <mxPoint x="169" y="410" as="targetPoint" />
          </mxGeometry>
        </mxCell>
        <mxCell id="N8NFe8jqotjcpAg7uz2H-67" value="" style="endArrow=none;html=1;rounded=0;" edge="1" parent="N8NFe8jqotjcpAg7uz2H-1" source="N8NFe8jqotjcpAg7uz2H-39" target="N8NFe8jqotjcpAg7uz2H-15">
          <mxGeometry width="50" height="50" relative="1" as="geometry">
            <mxPoint x="317" y="380" as="sourcePoint" />
            <mxPoint x="303" y="410" as="targetPoint" />
          </mxGeometry>
        </mxCell>
        <mxCell id="N8NFe8jqotjcpAg7uz2H-68" value="" style="endArrow=none;html=1;rounded=0;" edge="1" parent="N8NFe8jqotjcpAg7uz2H-1" source="N8NFe8jqotjcpAg7uz2H-43" target="N8NFe8jqotjcpAg7uz2H-19">
          <mxGeometry width="50" height="50" relative="1" as="geometry">
            <mxPoint x="352" y="380" as="sourcePoint" />
            <mxPoint x="364" y="410" as="targetPoint" />
          </mxGeometry>
        </mxCell>
        <mxCell id="N8NFe8jqotjcpAg7uz2H-69" value="" style="endArrow=none;html=1;rounded=0;" edge="1" parent="N8NFe8jqotjcpAg7uz2H-1" source="N8NFe8jqotjcpAg7uz2H-43" target="N8NFe8jqotjcpAg7uz2H-23">
          <mxGeometry width="50" height="50" relative="1" as="geometry">
            <mxPoint x="510" y="380" as="sourcePoint" />
            <mxPoint x="497" y="410" as="targetPoint" />
          </mxGeometry>
        </mxCell>
        <mxCell id="N8NFe8jqotjcpAg7uz2H-70" value="" style="endArrow=none;html=1;rounded=0;" edge="1" parent="N8NFe8jqotjcpAg7uz2H-1" source="N8NFe8jqotjcpAg7uz2H-47" target="N8NFe8jqotjcpAg7uz2H-27">
          <mxGeometry width="50" height="50" relative="1" as="geometry">
            <mxPoint x="545" y="380" as="sourcePoint" />
            <mxPoint x="558" y="410" as="targetPoint" />
          </mxGeometry>
        </mxCell>
        <mxCell id="N8NFe8jqotjcpAg7uz2H-71" value="" style="endArrow=none;html=1;rounded=0;" edge="1" parent="N8NFe8jqotjcpAg7uz2H-1" source="N8NFe8jqotjcpAg7uz2H-47" target="N8NFe8jqotjcpAg7uz2H-31">
          <mxGeometry width="50" height="50" relative="1" as="geometry">
            <mxPoint x="704" y="380" as="sourcePoint" />
            <mxPoint x="691" y="410" as="targetPoint" />
          </mxGeometry>
        </mxCell>
        <mxCell id="N8NFe8jqotjcpAg7uz2H-72" value="" style="endArrow=none;html=1;rounded=0;" edge="1" parent="N8NFe8jqotjcpAg7uz2H-1" source="N8NFe8jqotjcpAg7uz2H-55" target="N8NFe8jqotjcpAg7uz2H-47">
          <mxGeometry width="50" height="50" relative="1" as="geometry">
            <mxPoint x="739" y="380" as="sourcePoint" />
            <mxPoint x="752" y="410" as="targetPoint" />
          </mxGeometry>
        </mxCell>
        <mxCell id="N8NFe8jqotjcpAg7uz2H-73" value="" style="endArrow=none;html=1;rounded=0;" edge="1" parent="N8NFe8jqotjcpAg7uz2H-1" source="N8NFe8jqotjcpAg7uz2H-55" target="N8NFe8jqotjcpAg7uz2H-43">
          <mxGeometry width="50" height="50" relative="1" as="geometry">
            <mxPoint x="661" y="270" as="sourcePoint" />
            <mxPoint x="687" y="300" as="targetPoint" />
          </mxGeometry>
        </mxCell>
        <mxCell id="N8NFe8jqotjcpAg7uz2H-74" value="" style="endArrow=none;html=1;rounded=0;" edge="1" parent="N8NFe8jqotjcpAg7uz2H-1" source="N8NFe8jqotjcpAg7uz2H-51" target="N8NFe8jqotjcpAg7uz2H-39">
          <mxGeometry width="50" height="50" relative="1" as="geometry">
            <mxPoint x="591" y="270" as="sourcePoint" />
            <mxPoint x="564" y="300" as="targetPoint" />
          </mxGeometry>
        </mxCell>
        <mxCell id="N8NFe8jqotjcpAg7uz2H-75" value="" style="endArrow=none;html=1;rounded=0;" edge="1" parent="N8NFe8jqotjcpAg7uz2H-1" source="N8NFe8jqotjcpAg7uz2H-51" target="N8NFe8jqotjcpAg7uz2H-35">
          <mxGeometry width="50" height="50" relative="1" as="geometry">
            <mxPoint x="273" y="270" as="sourcePoint" />
            <mxPoint x="300" y="300" as="targetPoint" />
          </mxGeometry>
        </mxCell>
        <mxCell id="N8NFe8jqotjcpAg7uz2H-76" value="" style="endArrow=none;dashed=1;html=1;dashPattern=12 12;strokeWidth=2;rounded=0;strokeColor=#FF6666;" edge="1" parent="N8NFe8jqotjcpAg7uz2H-1">
          <mxGeometry width="50" height="50" relative="1" as="geometry">
            <mxPoint x="120" y="600" as="sourcePoint" />
            <mxPoint x="120" y="40" as="targetPoint" />
          </mxGeometry>
        </mxCell>
        <mxCell id="N8NFe8jqotjcpAg7uz2H-77" value="" style="endArrow=none;dashed=1;html=1;dashPattern=12 12;strokeWidth=2;rounded=0;strokeColor=#FF6666;" edge="1" parent="N8NFe8jqotjcpAg7uz2H-1">
          <mxGeometry width="50" height="50" relative="1" as="geometry">
            <mxPoint x="610" y="600" as="sourcePoint" />
            <mxPoint x="610" y="40" as="targetPoint" />
          </mxGeometry>
        </mxCell>
        <mxCell id="N8NFe8jqotjcpAg7uz2H-78" value="&lt;font style=&quot;font-size: 20px; color: rgb(255, 102, 102);&quot;&gt;將範圍[1, 6)內的數值+10&lt;/font&gt;" style="text;html=1;align=center;verticalAlign=middle;whiteSpace=wrap;rounded=0;" vertex="1" parent="N8NFe8jqotjcpAg7uz2H-1">
          <mxGeometry x="286" y="560" width="240" height="25" as="geometry" />
        </mxCell>
        <mxCell id="KVzkAKxyd6EglrbsVL-6-4" value="&lt;font style=&quot;font-size: 20px;&quot;&gt;我沒有小孩了不用繼續向下&lt;/font&gt;" style="shape=callout;whiteSpace=wrap;html=1;perimeter=calloutPerimeter;fillColor=#d5e8d4;strokeColor=#82b366;align=center;verticalAlign=middle;fontFamily=Helvetica;fontSize=12;fontColor=default;position2=0;" vertex="1" parent="N8NFe8jqotjcpAg7uz2H-1">
          <mxGeometry x="340" y="610" width="251" height="80" as="geometry" />
        </mxCell>
        <mxCell id="8W695ffmlxj5VBzZ625j-0" value="&lt;span style=&quot;color: rgb(255, 102, 102); font-size: 20px;&quot;&gt;[1&lt;/span&gt;" style="text;html=1;align=center;verticalAlign=middle;whiteSpace=wrap;rounded=0;" vertex="1" parent="N8NFe8jqotjcpAg7uz2H-1">
          <mxGeometry x="90" y="600" width="60" height="30" as="geometry" />
        </mxCell>
        <mxCell id="8W695ffmlxj5VBzZ625j-1" value="&lt;span style=&quot;color: rgb(255, 102, 102); font-size: 20px;&quot;&gt;6)&lt;/span&gt;" style="text;html=1;align=center;verticalAlign=middle;whiteSpace=wrap;rounded=0;" vertex="1" parent="N8NFe8jqotjcpAg7uz2H-1">
          <mxGeometry x="580" y="600" width="60" height="30" as="geometry" />
        </mxCell>
        <mxCell id="8W695ffmlxj5VBzZ625j-2" value="" style="curved=1;endArrow=classic;html=1;rounded=0;fontFamily=Helvetica;fontSize=12;fontColor=default;exitX=0.5;exitY=1;exitDx=0;exitDy=0;entryX=0;entryY=0;entryDx=0;entryDy=80;entryPerimeter=0;strokeColor=#4D9900;" edge="1" parent="N8NFe8jqotjcpAg7uz2H-1" source="N8NFe8jqotjcpAg7uz2H-7" target="KVzkAKxyd6EglrbsVL-6-4">
          <mxGeometry width="50" height="50" relative="1" as="geometry">
            <mxPoint x="200" y="570" as="sourcePoint" />
            <mxPoint x="250" y="520" as="targetPoint" />
            <Array as="points">
              <mxPoint x="250" y="570" />
              <mxPoint x="160" y="590" />
              <mxPoint x="200" y="520" />
            </Array>
          </mxGeometry>
        </mxCell>
      </root>
    </mxGraphModel>
  </diagram>
  <diagram name="update6" id="jUa89DNu7eLJ8juFgkbE">
    <mxGraphModel dx="1428" dy="743" grid="1" gridSize="10" guides="1" tooltips="1" connect="1" arrows="1" fold="1" page="1" pageScale="1" pageWidth="827" pageHeight="1169" math="0" shadow="0">
      <root>
        <mxCell id="0vHNFP4cCtBBOitNof4p-0" />
        <mxCell id="0vHNFP4cCtBBOitNof4p-1" parent="0vHNFP4cCtBBOitNof4p-0" />
        <mxCell id="0vHNFP4cCtBBOitNof4p-2" value="" style="group" vertex="1" connectable="0" parent="0vHNFP4cCtBBOitNof4p-1">
          <mxGeometry x="40" y="400" width="80" height="80" as="geometry" />
        </mxCell>
        <mxCell id="0vHNFP4cCtBBOitNof4p-3" value="" style="rounded=0;whiteSpace=wrap;html=1;" vertex="1" parent="0vHNFP4cCtBBOitNof4p-2">
          <mxGeometry width="80" height="80" as="geometry" />
        </mxCell>
        <mxCell id="0vHNFP4cCtBBOitNof4p-4" value="&lt;font style=&quot;font-size: 24px;&quot;&gt;9&lt;/font&gt;" style="text;html=1;align=center;verticalAlign=middle;whiteSpace=wrap;rounded=0;" vertex="1" parent="0vHNFP4cCtBBOitNof4p-2">
          <mxGeometry x="17.5" y="25" width="45" height="30" as="geometry" />
        </mxCell>
        <mxCell id="0vHNFP4cCtBBOitNof4p-5" value="&lt;font style=&quot;font-size: 14px;&quot;&gt;[0]&lt;/font&gt;" style="text;html=1;align=center;verticalAlign=middle;whiteSpace=wrap;rounded=0;" vertex="1" parent="0vHNFP4cCtBBOitNof4p-2">
          <mxGeometry x="30" y="60" width="50" height="20" as="geometry" />
        </mxCell>
        <mxCell id="0vHNFP4cCtBBOitNof4p-6" value="" style="group;fillColor=#eeeeee;strokeColor=#36393d;" vertex="1" connectable="0" parent="0vHNFP4cCtBBOitNof4p-1">
          <mxGeometry x="137" y="400" width="80" height="80" as="geometry" />
        </mxCell>
        <mxCell id="0vHNFP4cCtBBOitNof4p-7" value="" style="rounded=0;whiteSpace=wrap;html=1;fillColor=#647687;strokeColor=#314354;fontColor=#ffffff;" vertex="1" parent="0vHNFP4cCtBBOitNof4p-6">
          <mxGeometry width="80" height="80" as="geometry" />
        </mxCell>
        <mxCell id="0vHNFP4cCtBBOitNof4p-8" value="&lt;font style=&quot;font-size: 24px;&quot;&gt;37&lt;/font&gt;" style="text;html=1;align=center;verticalAlign=middle;whiteSpace=wrap;rounded=0;" vertex="1" parent="0vHNFP4cCtBBOitNof4p-6">
          <mxGeometry x="17.5" y="25" width="45" height="30" as="geometry" />
        </mxCell>
        <mxCell id="0vHNFP4cCtBBOitNof4p-9" value="&lt;font style=&quot;font-size: 14px;&quot;&gt;[1]&lt;/font&gt;" style="text;html=1;align=center;verticalAlign=middle;whiteSpace=wrap;rounded=0;" vertex="1" parent="0vHNFP4cCtBBOitNof4p-6">
          <mxGeometry x="30" y="60" width="50" height="20" as="geometry" />
        </mxCell>
        <mxCell id="0vHNFP4cCtBBOitNof4p-10" value="" style="group" vertex="1" connectable="0" parent="0vHNFP4cCtBBOitNof4p-1">
          <mxGeometry x="234" y="400" width="80" height="80" as="geometry" />
        </mxCell>
        <mxCell id="0vHNFP4cCtBBOitNof4p-11" value="" style="rounded=0;whiteSpace=wrap;html=1;" vertex="1" parent="0vHNFP4cCtBBOitNof4p-10">
          <mxGeometry width="80" height="80" as="geometry" />
        </mxCell>
        <mxCell id="0vHNFP4cCtBBOitNof4p-12" value="&lt;font style=&quot;font-size: 24px;&quot;&gt;12&lt;/font&gt;" style="text;html=1;align=center;verticalAlign=middle;whiteSpace=wrap;rounded=0;" vertex="1" parent="0vHNFP4cCtBBOitNof4p-10">
          <mxGeometry x="17.5" y="25" width="45" height="30" as="geometry" />
        </mxCell>
        <mxCell id="0vHNFP4cCtBBOitNof4p-13" value="&lt;font style=&quot;font-size: 14px;&quot;&gt;[2]&lt;/font&gt;" style="text;html=1;align=center;verticalAlign=middle;whiteSpace=wrap;rounded=0;" vertex="1" parent="0vHNFP4cCtBBOitNof4p-10">
          <mxGeometry x="30" y="60" width="50" height="20" as="geometry" />
        </mxCell>
        <mxCell id="0vHNFP4cCtBBOitNof4p-14" value="" style="group" vertex="1" connectable="0" parent="0vHNFP4cCtBBOitNof4p-1">
          <mxGeometry x="331" y="400" width="80" height="80" as="geometry" />
        </mxCell>
        <mxCell id="0vHNFP4cCtBBOitNof4p-15" value="" style="rounded=0;whiteSpace=wrap;html=1;" vertex="1" parent="0vHNFP4cCtBBOitNof4p-14">
          <mxGeometry width="80" height="80" as="geometry" />
        </mxCell>
        <mxCell id="0vHNFP4cCtBBOitNof4p-16" value="&lt;font style=&quot;font-size: 24px;&quot;&gt;5&lt;/font&gt;" style="text;html=1;align=center;verticalAlign=middle;whiteSpace=wrap;rounded=0;" vertex="1" parent="0vHNFP4cCtBBOitNof4p-14">
          <mxGeometry x="17.5" y="25" width="45" height="30" as="geometry" />
        </mxCell>
        <mxCell id="0vHNFP4cCtBBOitNof4p-17" value="&lt;font style=&quot;font-size: 14px;&quot;&gt;[3]&lt;/font&gt;" style="text;html=1;align=center;verticalAlign=middle;whiteSpace=wrap;rounded=0;" vertex="1" parent="0vHNFP4cCtBBOitNof4p-14">
          <mxGeometry x="30" y="60" width="50" height="20" as="geometry" />
        </mxCell>
        <mxCell id="0vHNFP4cCtBBOitNof4p-18" value="" style="group" vertex="1" connectable="0" parent="0vHNFP4cCtBBOitNof4p-1">
          <mxGeometry x="429" y="400" width="80" height="80" as="geometry" />
        </mxCell>
        <mxCell id="0vHNFP4cCtBBOitNof4p-19" value="" style="rounded=0;whiteSpace=wrap;html=1;" vertex="1" parent="0vHNFP4cCtBBOitNof4p-18">
          <mxGeometry width="80" height="80" as="geometry" />
        </mxCell>
        <mxCell id="0vHNFP4cCtBBOitNof4p-20" value="&lt;span style=&quot;font-size: 24px;&quot;&gt;14&lt;/span&gt;" style="text;html=1;align=center;verticalAlign=middle;whiteSpace=wrap;rounded=0;" vertex="1" parent="0vHNFP4cCtBBOitNof4p-18">
          <mxGeometry x="17.5" y="25" width="45" height="30" as="geometry" />
        </mxCell>
        <mxCell id="0vHNFP4cCtBBOitNof4p-21" value="&lt;font style=&quot;font-size: 14px;&quot;&gt;[4]&lt;/font&gt;" style="text;html=1;align=center;verticalAlign=middle;whiteSpace=wrap;rounded=0;" vertex="1" parent="0vHNFP4cCtBBOitNof4p-18">
          <mxGeometry x="30" y="60" width="50" height="20" as="geometry" />
        </mxCell>
        <mxCell id="0vHNFP4cCtBBOitNof4p-22" value="" style="group" vertex="1" connectable="0" parent="0vHNFP4cCtBBOitNof4p-1">
          <mxGeometry x="526" y="400" width="80" height="80" as="geometry" />
        </mxCell>
        <mxCell id="0vHNFP4cCtBBOitNof4p-23" value="" style="rounded=0;whiteSpace=wrap;html=1;" vertex="1" parent="0vHNFP4cCtBBOitNof4p-22">
          <mxGeometry width="80" height="80" as="geometry" />
        </mxCell>
        <mxCell id="0vHNFP4cCtBBOitNof4p-24" value="&lt;font style=&quot;font-size: 24px;&quot;&gt;41&lt;/font&gt;" style="text;html=1;align=center;verticalAlign=middle;whiteSpace=wrap;rounded=0;" vertex="1" parent="0vHNFP4cCtBBOitNof4p-22">
          <mxGeometry x="17.5" y="25" width="45" height="30" as="geometry" />
        </mxCell>
        <mxCell id="0vHNFP4cCtBBOitNof4p-25" value="&lt;font style=&quot;font-size: 14px;&quot;&gt;[5]&lt;/font&gt;" style="text;html=1;align=center;verticalAlign=middle;whiteSpace=wrap;rounded=0;" vertex="1" parent="0vHNFP4cCtBBOitNof4p-22">
          <mxGeometry x="30" y="60" width="50" height="20" as="geometry" />
        </mxCell>
        <mxCell id="0vHNFP4cCtBBOitNof4p-26" value="" style="group" vertex="1" connectable="0" parent="0vHNFP4cCtBBOitNof4p-1">
          <mxGeometry x="623" y="400" width="80" height="80" as="geometry" />
        </mxCell>
        <mxCell id="0vHNFP4cCtBBOitNof4p-27" value="" style="rounded=0;whiteSpace=wrap;html=1;" vertex="1" parent="0vHNFP4cCtBBOitNof4p-26">
          <mxGeometry width="80" height="80" as="geometry" />
        </mxCell>
        <mxCell id="0vHNFP4cCtBBOitNof4p-28" value="&lt;span style=&quot;font-size: 24px;&quot;&gt;42&lt;/span&gt;" style="text;html=1;align=center;verticalAlign=middle;whiteSpace=wrap;rounded=0;" vertex="1" parent="0vHNFP4cCtBBOitNof4p-26">
          <mxGeometry x="17.5" y="25" width="45" height="30" as="geometry" />
        </mxCell>
        <mxCell id="0vHNFP4cCtBBOitNof4p-29" value="&lt;font style=&quot;font-size: 14px;&quot;&gt;[6]&lt;/font&gt;" style="text;html=1;align=center;verticalAlign=middle;whiteSpace=wrap;rounded=0;" vertex="1" parent="0vHNFP4cCtBBOitNof4p-26">
          <mxGeometry x="30" y="60" width="50" height="20" as="geometry" />
        </mxCell>
        <mxCell id="0vHNFP4cCtBBOitNof4p-30" value="" style="group" vertex="1" connectable="0" parent="0vHNFP4cCtBBOitNof4p-1">
          <mxGeometry x="720" y="400" width="80" height="80" as="geometry" />
        </mxCell>
        <mxCell id="0vHNFP4cCtBBOitNof4p-31" value="" style="rounded=0;whiteSpace=wrap;html=1;" vertex="1" parent="0vHNFP4cCtBBOitNof4p-30">
          <mxGeometry width="80" height="80" as="geometry" />
        </mxCell>
        <mxCell id="0vHNFP4cCtBBOitNof4p-32" value="&lt;font style=&quot;font-size: 24px;&quot;&gt;75&lt;/font&gt;" style="text;html=1;align=center;verticalAlign=middle;whiteSpace=wrap;rounded=0;" vertex="1" parent="0vHNFP4cCtBBOitNof4p-30">
          <mxGeometry x="17.5" y="25" width="45" height="30" as="geometry" />
        </mxCell>
        <mxCell id="0vHNFP4cCtBBOitNof4p-33" value="&lt;font style=&quot;font-size: 14px;&quot;&gt;[7]&lt;/font&gt;" style="text;html=1;align=center;verticalAlign=middle;whiteSpace=wrap;rounded=0;" vertex="1" parent="0vHNFP4cCtBBOitNof4p-30">
          <mxGeometry x="30" y="60" width="50" height="20" as="geometry" />
        </mxCell>
        <mxCell id="0vHNFP4cCtBBOitNof4p-34" value="" style="group;fillColor=#647687;fontColor=#ffffff;strokeColor=#314354;" vertex="1" connectable="0" parent="0vHNFP4cCtBBOitNof4p-1">
          <mxGeometry x="40" y="290" width="177" height="80" as="geometry" />
        </mxCell>
        <mxCell id="0vHNFP4cCtBBOitNof4p-35" value="" style="rounded=0;whiteSpace=wrap;html=1;fillColor=#647687;strokeColor=#314354;fontColor=#ffffff;" vertex="1" parent="0vHNFP4cCtBBOitNof4p-34">
          <mxGeometry width="177" height="80" as="geometry" />
        </mxCell>
        <mxCell id="0vHNFP4cCtBBOitNof4p-36" value="&lt;font style=&quot;font-size: 24px;&quot;&gt;46&lt;/font&gt;" style="text;html=1;align=center;verticalAlign=middle;whiteSpace=wrap;rounded=0;" vertex="1" parent="0vHNFP4cCtBBOitNof4p-34">
          <mxGeometry x="38.71875" y="25" width="99.56250000000001" height="30" as="geometry" />
        </mxCell>
        <mxCell id="0vHNFP4cCtBBOitNof4p-37" value="&lt;font style=&quot;font-size: 14px;&quot;&gt;[0, 2)&lt;/font&gt;" style="text;html=1;align=center;verticalAlign=middle;whiteSpace=wrap;rounded=0;" vertex="1" parent="0vHNFP4cCtBBOitNof4p-34">
          <mxGeometry x="110" y="60" width="67" height="20" as="geometry" />
        </mxCell>
        <mxCell id="0vHNFP4cCtBBOitNof4p-38" value="" style="group;fillColor=#fa6800;fontColor=#000000;strokeColor=#C73500;" vertex="1" connectable="0" parent="0vHNFP4cCtBBOitNof4p-1">
          <mxGeometry x="237" y="290" width="177" height="80" as="geometry" />
        </mxCell>
        <mxCell id="0vHNFP4cCtBBOitNof4p-39" value="" style="rounded=0;whiteSpace=wrap;html=1;fillColor=#ffe6cc;strokeColor=#d79b00;" vertex="1" parent="0vHNFP4cCtBBOitNof4p-38">
          <mxGeometry width="177" height="80" as="geometry" />
        </mxCell>
        <mxCell id="0vHNFP4cCtBBOitNof4p-40" value="&lt;font style=&quot;font-size: 24px;&quot;&gt;37&lt;/font&gt;" style="text;html=1;align=center;verticalAlign=middle;whiteSpace=wrap;rounded=0;" vertex="1" parent="0vHNFP4cCtBBOitNof4p-38">
          <mxGeometry x="38.71875" y="25" width="99.56250000000001" height="30" as="geometry" />
        </mxCell>
        <mxCell id="0vHNFP4cCtBBOitNof4p-41" value="&lt;font style=&quot;font-size: 14px;&quot;&gt;[2, 4)&lt;/font&gt;" style="text;html=1;align=center;verticalAlign=middle;whiteSpace=wrap;rounded=0;" vertex="1" parent="0vHNFP4cCtBBOitNof4p-38">
          <mxGeometry x="110" y="60" width="67" height="20" as="geometry" />
        </mxCell>
        <mxCell id="0vHNFP4cCtBBOitNof4p-42" value="&lt;font style=&quot;font-size: 14px;&quot;&gt;10&lt;/font&gt;" style="text;html=1;align=center;verticalAlign=middle;whiteSpace=wrap;rounded=0;fontFamily=Helvetica;fontSize=12;fontColor=default;" vertex="1" parent="0vHNFP4cCtBBOitNof4p-38">
          <mxGeometry width="30" height="20" as="geometry" />
        </mxCell>
        <mxCell id="0vHNFP4cCtBBOitNof4p-43" value="" style="group" vertex="1" connectable="0" parent="0vHNFP4cCtBBOitNof4p-1">
          <mxGeometry x="429" y="290" width="177" height="80" as="geometry" />
        </mxCell>
        <mxCell id="0vHNFP4cCtBBOitNof4p-44" value="" style="rounded=0;whiteSpace=wrap;html=1;fillColor=#ffe6cc;strokeColor=#d79b00;" vertex="1" parent="0vHNFP4cCtBBOitNof4p-43">
          <mxGeometry width="177" height="80" as="geometry" />
        </mxCell>
        <mxCell id="0vHNFP4cCtBBOitNof4p-45" value="&lt;font style=&quot;font-size: 24px;&quot;&gt;75&lt;/font&gt;" style="text;html=1;align=center;verticalAlign=middle;whiteSpace=wrap;rounded=0;" vertex="1" parent="0vHNFP4cCtBBOitNof4p-43">
          <mxGeometry x="38.71875" y="25" width="99.56250000000001" height="30" as="geometry" />
        </mxCell>
        <mxCell id="0vHNFP4cCtBBOitNof4p-46" value="&lt;font style=&quot;font-size: 14px;&quot;&gt;[4, 6)&lt;/font&gt;" style="text;html=1;align=center;verticalAlign=middle;whiteSpace=wrap;rounded=0;" vertex="1" parent="0vHNFP4cCtBBOitNof4p-43">
          <mxGeometry x="110" y="60" width="67" height="20" as="geometry" />
        </mxCell>
        <mxCell id="0vHNFP4cCtBBOitNof4p-47" value="&lt;font style=&quot;font-size: 14px;&quot;&gt;10&lt;/font&gt;" style="text;html=1;align=center;verticalAlign=middle;whiteSpace=wrap;rounded=0;fontFamily=Helvetica;fontSize=12;fontColor=default;" vertex="1" parent="0vHNFP4cCtBBOitNof4p-43">
          <mxGeometry width="30" height="20" as="geometry" />
        </mxCell>
        <mxCell id="0vHNFP4cCtBBOitNof4p-48" value="" style="group" vertex="1" connectable="0" parent="0vHNFP4cCtBBOitNof4p-1">
          <mxGeometry x="623" y="290" width="177" height="80" as="geometry" />
        </mxCell>
        <mxCell id="0vHNFP4cCtBBOitNof4p-49" value="" style="rounded=0;whiteSpace=wrap;html=1;" vertex="1" parent="0vHNFP4cCtBBOitNof4p-48">
          <mxGeometry width="177" height="80" as="geometry" />
        </mxCell>
        <mxCell id="0vHNFP4cCtBBOitNof4p-50" value="&lt;font style=&quot;font-size: 24px;&quot;&gt;117&lt;/font&gt;" style="text;html=1;align=center;verticalAlign=middle;whiteSpace=wrap;rounded=0;" vertex="1" parent="0vHNFP4cCtBBOitNof4p-48">
          <mxGeometry x="38.71875" y="25" width="99.56250000000001" height="30" as="geometry" />
        </mxCell>
        <mxCell id="0vHNFP4cCtBBOitNof4p-51" value="&lt;font style=&quot;font-size: 14px;&quot;&gt;[6, 8)&lt;/font&gt;" style="text;html=1;align=center;verticalAlign=middle;whiteSpace=wrap;rounded=0;" vertex="1" parent="0vHNFP4cCtBBOitNof4p-48">
          <mxGeometry x="110" y="60" width="67" height="20" as="geometry" />
        </mxCell>
        <mxCell id="0vHNFP4cCtBBOitNof4p-52" value="" style="group;fillColor=#fff2cc;strokeColor=#d6b656;" vertex="1" connectable="0" parent="0vHNFP4cCtBBOitNof4p-1">
          <mxGeometry x="40" y="180" width="374" height="80" as="geometry" />
        </mxCell>
        <mxCell id="0vHNFP4cCtBBOitNof4p-53" value="" style="rounded=0;whiteSpace=wrap;html=1;fillColor=#647687;strokeColor=#314354;fontColor=#ffffff;" vertex="1" parent="0vHNFP4cCtBBOitNof4p-52">
          <mxGeometry width="374.00000000000006" height="80" as="geometry" />
        </mxCell>
        <mxCell id="0vHNFP4cCtBBOitNof4p-54" value="&lt;span style=&quot;font-size: 24px;&quot;&gt;83&lt;/span&gt;" style="text;html=1;align=center;verticalAlign=middle;whiteSpace=wrap;rounded=0;" vertex="1" parent="0vHNFP4cCtBBOitNof4p-52">
          <mxGeometry x="81.8125" y="25" width="210.37500000000006" height="30" as="geometry" />
        </mxCell>
        <mxCell id="0vHNFP4cCtBBOitNof4p-55" value="&lt;font style=&quot;font-size: 14px;&quot;&gt;[0, 4)&lt;/font&gt;" style="text;html=1;align=center;verticalAlign=middle;whiteSpace=wrap;rounded=0;" vertex="1" parent="0vHNFP4cCtBBOitNof4p-52">
          <mxGeometry x="232.42937853107344" y="60" width="141.57062146892656" height="20" as="geometry" />
        </mxCell>
        <mxCell id="0vHNFP4cCtBBOitNof4p-56" value="" style="group" vertex="1" connectable="0" parent="0vHNFP4cCtBBOitNof4p-1">
          <mxGeometry x="430" y="180" width="374" height="80" as="geometry" />
        </mxCell>
        <mxCell id="0vHNFP4cCtBBOitNof4p-57" value="" style="rounded=0;whiteSpace=wrap;html=1;fillColor=#647687;strokeColor=#314354;fontColor=#ffffff;" vertex="1" parent="0vHNFP4cCtBBOitNof4p-56">
          <mxGeometry width="374.00000000000006" height="80" as="geometry" />
        </mxCell>
        <mxCell id="0vHNFP4cCtBBOitNof4p-58" value="&lt;span style=&quot;font-size: 24px;&quot;&gt;192&lt;/span&gt;" style="text;html=1;align=center;verticalAlign=middle;whiteSpace=wrap;rounded=0;" vertex="1" parent="0vHNFP4cCtBBOitNof4p-56">
          <mxGeometry x="81.8125" y="25" width="210.37500000000006" height="30" as="geometry" />
        </mxCell>
        <mxCell id="0vHNFP4cCtBBOitNof4p-59" value="&lt;font style=&quot;font-size: 14px;&quot;&gt;[4, 8)&lt;/font&gt;" style="text;html=1;align=center;verticalAlign=middle;whiteSpace=wrap;rounded=0;" vertex="1" parent="0vHNFP4cCtBBOitNof4p-56">
          <mxGeometry x="232.42937853107344" y="60" width="141.57062146892656" height="20" as="geometry" />
        </mxCell>
        <mxCell id="0vHNFP4cCtBBOitNof4p-60" value="" style="group;fillColor=#fff2cc;strokeColor=#d6b656;" vertex="1" connectable="0" parent="0vHNFP4cCtBBOitNof4p-1">
          <mxGeometry x="40" y="60" width="760" height="80" as="geometry" />
        </mxCell>
        <mxCell id="0vHNFP4cCtBBOitNof4p-61" value="" style="rounded=0;whiteSpace=wrap;html=1;fillColor=#647687;strokeColor=#314354;fontColor=#ffffff;" vertex="1" parent="0vHNFP4cCtBBOitNof4p-60">
          <mxGeometry width="760.0000000000001" height="80" as="geometry" />
        </mxCell>
        <mxCell id="0vHNFP4cCtBBOitNof4p-62" value="&lt;span style=&quot;font-size: 24px;&quot;&gt;275&lt;/span&gt;" style="text;html=1;align=center;verticalAlign=middle;whiteSpace=wrap;rounded=0;" vertex="1" parent="0vHNFP4cCtBBOitNof4p-60">
          <mxGeometry x="166.25" y="25" width="427.50000000000017" height="30" as="geometry" />
        </mxCell>
        <mxCell id="0vHNFP4cCtBBOitNof4p-63" value="&lt;font style=&quot;font-size: 14px;&quot;&gt;[0, 8)&lt;/font&gt;" style="text;html=1;align=center;verticalAlign=middle;whiteSpace=wrap;rounded=0;" vertex="1" parent="0vHNFP4cCtBBOitNof4p-60">
          <mxGeometry x="472.316384180791" y="60" width="287.6836158192091" height="20" as="geometry" />
        </mxCell>
        <mxCell id="0vHNFP4cCtBBOitNof4p-64" value="" style="endArrow=none;html=1;rounded=0;" edge="1" parent="0vHNFP4cCtBBOitNof4p-1" source="0vHNFP4cCtBBOitNof4p-61" target="0vHNFP4cCtBBOitNof4p-57">
          <mxGeometry width="50" height="50" relative="1" as="geometry">
            <mxPoint x="479.99727272727273" y="140" as="sourcePoint" />
            <mxPoint x="621.27" y="70" as="targetPoint" />
          </mxGeometry>
        </mxCell>
        <mxCell id="0vHNFP4cCtBBOitNof4p-65" value="" style="endArrow=none;html=1;rounded=0;" edge="1" parent="0vHNFP4cCtBBOitNof4p-1" source="0vHNFP4cCtBBOitNof4p-61" target="0vHNFP4cCtBBOitNof4p-53">
          <mxGeometry width="50" height="50" relative="1" as="geometry">
            <mxPoint x="496" y="150" as="sourcePoint" />
            <mxPoint x="561" y="190" as="targetPoint" />
          </mxGeometry>
        </mxCell>
        <mxCell id="0vHNFP4cCtBBOitNof4p-66" value="" style="endArrow=none;html=1;rounded=0;" edge="1" parent="0vHNFP4cCtBBOitNof4p-1" source="0vHNFP4cCtBBOitNof4p-35" target="0vHNFP4cCtBBOitNof4p-3">
          <mxGeometry width="50" height="50" relative="1" as="geometry">
            <mxPoint x="366" y="150" as="sourcePoint" />
            <mxPoint x="301" y="190" as="targetPoint" />
          </mxGeometry>
        </mxCell>
        <mxCell id="0vHNFP4cCtBBOitNof4p-67" value="" style="endArrow=none;html=1;rounded=0;" edge="1" parent="0vHNFP4cCtBBOitNof4p-1" source="0vHNFP4cCtBBOitNof4p-35" target="0vHNFP4cCtBBOitNof4p-7">
          <mxGeometry width="50" height="50" relative="1" as="geometry">
            <mxPoint x="121" y="380" as="sourcePoint" />
            <mxPoint x="108" y="410" as="targetPoint" />
          </mxGeometry>
        </mxCell>
        <mxCell id="0vHNFP4cCtBBOitNof4p-68" value="" style="endArrow=none;html=1;rounded=0;" edge="1" parent="0vHNFP4cCtBBOitNof4p-1" source="0vHNFP4cCtBBOitNof4p-39" target="0vHNFP4cCtBBOitNof4p-11">
          <mxGeometry width="50" height="50" relative="1" as="geometry">
            <mxPoint x="156" y="380" as="sourcePoint" />
            <mxPoint x="169" y="410" as="targetPoint" />
          </mxGeometry>
        </mxCell>
        <mxCell id="0vHNFP4cCtBBOitNof4p-69" value="" style="endArrow=none;html=1;rounded=0;" edge="1" parent="0vHNFP4cCtBBOitNof4p-1" source="0vHNFP4cCtBBOitNof4p-39" target="0vHNFP4cCtBBOitNof4p-15">
          <mxGeometry width="50" height="50" relative="1" as="geometry">
            <mxPoint x="317" y="380" as="sourcePoint" />
            <mxPoint x="303" y="410" as="targetPoint" />
          </mxGeometry>
        </mxCell>
        <mxCell id="0vHNFP4cCtBBOitNof4p-70" value="" style="endArrow=none;html=1;rounded=0;" edge="1" parent="0vHNFP4cCtBBOitNof4p-1" source="0vHNFP4cCtBBOitNof4p-44" target="0vHNFP4cCtBBOitNof4p-19">
          <mxGeometry width="50" height="50" relative="1" as="geometry">
            <mxPoint x="352" y="380" as="sourcePoint" />
            <mxPoint x="364" y="410" as="targetPoint" />
          </mxGeometry>
        </mxCell>
        <mxCell id="0vHNFP4cCtBBOitNof4p-71" value="" style="endArrow=none;html=1;rounded=0;" edge="1" parent="0vHNFP4cCtBBOitNof4p-1" source="0vHNFP4cCtBBOitNof4p-44" target="0vHNFP4cCtBBOitNof4p-23">
          <mxGeometry width="50" height="50" relative="1" as="geometry">
            <mxPoint x="510" y="380" as="sourcePoint" />
            <mxPoint x="497" y="410" as="targetPoint" />
          </mxGeometry>
        </mxCell>
        <mxCell id="0vHNFP4cCtBBOitNof4p-72" value="" style="endArrow=none;html=1;rounded=0;" edge="1" parent="0vHNFP4cCtBBOitNof4p-1" source="0vHNFP4cCtBBOitNof4p-49" target="0vHNFP4cCtBBOitNof4p-27">
          <mxGeometry width="50" height="50" relative="1" as="geometry">
            <mxPoint x="545" y="380" as="sourcePoint" />
            <mxPoint x="558" y="410" as="targetPoint" />
          </mxGeometry>
        </mxCell>
        <mxCell id="0vHNFP4cCtBBOitNof4p-73" value="" style="endArrow=none;html=1;rounded=0;" edge="1" parent="0vHNFP4cCtBBOitNof4p-1" source="0vHNFP4cCtBBOitNof4p-49" target="0vHNFP4cCtBBOitNof4p-31">
          <mxGeometry width="50" height="50" relative="1" as="geometry">
            <mxPoint x="704" y="380" as="sourcePoint" />
            <mxPoint x="691" y="410" as="targetPoint" />
          </mxGeometry>
        </mxCell>
        <mxCell id="0vHNFP4cCtBBOitNof4p-74" value="" style="endArrow=none;html=1;rounded=0;" edge="1" parent="0vHNFP4cCtBBOitNof4p-1" source="0vHNFP4cCtBBOitNof4p-57" target="0vHNFP4cCtBBOitNof4p-49">
          <mxGeometry width="50" height="50" relative="1" as="geometry">
            <mxPoint x="739" y="380" as="sourcePoint" />
            <mxPoint x="752" y="410" as="targetPoint" />
          </mxGeometry>
        </mxCell>
        <mxCell id="0vHNFP4cCtBBOitNof4p-75" value="" style="endArrow=none;html=1;rounded=0;" edge="1" parent="0vHNFP4cCtBBOitNof4p-1" source="0vHNFP4cCtBBOitNof4p-57" target="0vHNFP4cCtBBOitNof4p-44">
          <mxGeometry width="50" height="50" relative="1" as="geometry">
            <mxPoint x="661" y="270" as="sourcePoint" />
            <mxPoint x="687" y="300" as="targetPoint" />
          </mxGeometry>
        </mxCell>
        <mxCell id="0vHNFP4cCtBBOitNof4p-76" value="" style="endArrow=none;html=1;rounded=0;" edge="1" parent="0vHNFP4cCtBBOitNof4p-1" source="0vHNFP4cCtBBOitNof4p-53" target="0vHNFP4cCtBBOitNof4p-39">
          <mxGeometry width="50" height="50" relative="1" as="geometry">
            <mxPoint x="591" y="270" as="sourcePoint" />
            <mxPoint x="564" y="300" as="targetPoint" />
          </mxGeometry>
        </mxCell>
        <mxCell id="0vHNFP4cCtBBOitNof4p-77" value="" style="endArrow=none;html=1;rounded=0;" edge="1" parent="0vHNFP4cCtBBOitNof4p-1" source="0vHNFP4cCtBBOitNof4p-53" target="0vHNFP4cCtBBOitNof4p-35">
          <mxGeometry width="50" height="50" relative="1" as="geometry">
            <mxPoint x="273" y="270" as="sourcePoint" />
            <mxPoint x="300" y="300" as="targetPoint" />
          </mxGeometry>
        </mxCell>
        <mxCell id="0vHNFP4cCtBBOitNof4p-78" value="" style="endArrow=none;dashed=1;html=1;dashPattern=12 12;strokeWidth=2;rounded=0;strokeColor=#FF6666;" edge="1" parent="0vHNFP4cCtBBOitNof4p-1">
          <mxGeometry width="50" height="50" relative="1" as="geometry">
            <mxPoint x="120" y="600" as="sourcePoint" />
            <mxPoint x="120" y="40" as="targetPoint" />
          </mxGeometry>
        </mxCell>
        <mxCell id="0vHNFP4cCtBBOitNof4p-79" value="" style="endArrow=none;dashed=1;html=1;dashPattern=12 12;strokeWidth=2;rounded=0;strokeColor=#FF6666;" edge="1" parent="0vHNFP4cCtBBOitNof4p-1">
          <mxGeometry width="50" height="50" relative="1" as="geometry">
            <mxPoint x="610" y="600" as="sourcePoint" />
            <mxPoint x="610" y="40" as="targetPoint" />
          </mxGeometry>
        </mxCell>
        <mxCell id="0vHNFP4cCtBBOitNof4p-80" value="&lt;font style=&quot;font-size: 20px; color: rgb(255, 102, 102);&quot;&gt;將範圍[1, 6)內的數值+10&lt;/font&gt;" style="text;html=1;align=center;verticalAlign=middle;whiteSpace=wrap;rounded=0;" vertex="1" parent="0vHNFP4cCtBBOitNof4p-1">
          <mxGeometry x="286" y="560" width="240" height="25" as="geometry" />
        </mxCell>
        <mxCell id="0vHNFP4cCtBBOitNof4p-82" value="&lt;span style=&quot;color: rgb(255, 102, 102); font-size: 20px;&quot;&gt;[1&lt;/span&gt;" style="text;html=1;align=center;verticalAlign=middle;whiteSpace=wrap;rounded=0;" vertex="1" parent="0vHNFP4cCtBBOitNof4p-1">
          <mxGeometry x="90" y="600" width="60" height="30" as="geometry" />
        </mxCell>
        <mxCell id="0vHNFP4cCtBBOitNof4p-83" value="&lt;span style=&quot;color: rgb(255, 102, 102); font-size: 20px;&quot;&gt;6)&lt;/span&gt;" style="text;html=1;align=center;verticalAlign=middle;whiteSpace=wrap;rounded=0;" vertex="1" parent="0vHNFP4cCtBBOitNof4p-1">
          <mxGeometry x="580" y="600" width="60" height="30" as="geometry" />
        </mxCell>
      </root>
    </mxGraphModel>
  </diagram>
</mxfile>
